<?xml version="1.0" encoding="UTF-8"?>
<svg xmlns="http://www.w3.org/2000/svg" xmlns:xlink="http://www.w3.org/1999/xlink" version="1.2" >
<font id="Quicksand Bold Oblique Regular">
<font-face  font-family="Quicksand" units-per-em="1000" ascent="750" descent="-170" font-style="normal" font-weight="700" font-stretch="normal" cap-height="700" x-height="500" underline-position="-75" underline-thickness="50" />
<missing-glyph  horiz-adv-x="500" d="" />
<glyph glyph-name="NULL" d="" />
<glyph glyph-name="CR" unicode="&#xd;" horiz-adv-x="250" d="" />
<glyph glyph-name="&amp;#x20;" unicode="&#x20;" horiz-adv-x="300" d="" />
<glyph glyph-name="&amp;#xa0;" unicode="&#xa0;" horiz-adv-x="300" d="" />
<glyph glyph-name="exclam" unicode="&#x21;" horiz-adv-x="252" d="M267 701 C237 701 207 676 202 645 L137 275 C131 244 152 219 182 219 C213 219 242 244 248 275 L313 645 C319 676 298 701 267 701 L267 701 Z M167 133 C137 133 107 108 102 78 L98 56 C93 26 113 1 144 1 C175 1 204 26 209 56 L213 78 C218 108 198 133 167 133 L167 133 Z " />
<glyph glyph-name="quotedbl" unicode="&#x22;" horiz-adv-x="410" d="M289 433 C287 410 303 395 322 395 C341 395 351 407 358 426 L431 648 C433 656 435 664 435 670 C435 691 421 703 403 703 L363 703 C330 703 308 679 306 647 L289 433 Z M69 433 C68 410 83 395 103 395 C122 395 132 407 139 426 L212 648 C214 656 216 664 216 670 C216 691 202 703 183 703 L144 703 C111 703 89 679 87 647 L69 433 Z " />
<glyph glyph-name="numbersign" unicode="&#x23;" horiz-adv-x="700" d="M125 56 C120 22 144 -5 176 -5 C206 -5 225 16 229 38 L250 161 L407 161 L388 56 C383 25 407 -5 440 -5 C466 -5 488 13 492 38 L513 161 L588 161 C617 161 640 185 640 213 C640 242 617 265 588 265 L531 265 L561 439 L625 439 C653 439 677 463 677 491 C677 520 653 543 625 543 L579 543 L596 644 C601 675 577 705 545 705 C518 705 496 688 492 662 L472 543 L315 543 L333 644 C337 675 314 705 281 705 C255 705 233 688 229 662 L209 543 L133 543 C105 543 81 519 81 491 C81 463 105 439 133 439 L191 439 L161 265 L97 265 C68 265 45 241 45 213 C45 184 68 161 97 161 L143 161 L125 56 Z M268 265 L298 439 L454 439 L424 265 L268 265 Z " />
<glyph glyph-name="dollar" unicode="&#x24;" horiz-adv-x="632" d="M401 720 L397 699 C270 689 172 615 153 508 C133 395 192 340 331 302 L296 105 C243 115 201 138 160 172 C152 179 141 183 129 183 C98 183 70 159 64 128 C61 107 68 91 83 80 C136 37 201 10 274 2 L263 -60 C259 -84 276 -103 300 -103 C324 -103 346 -84 350 -60 L361 0 C490 12 589 85 608 195 C627 302 573 363 427 401 L461 593 C494 585 525 570 557 549 C566 543 575 540 585 540 C616 540 645 564 651 595 C655 619 644 634 629 643 C588 672 542 691 484 698 L488 720 C492 744 476 763 452 763 C428 763 405 744 401 720 L401 720 L401 720 Z M489 188 C480 140 440 108 375 101 L407 283 C479 259 497 232 489 188 L489 188 L489 188 Z M273 515 C280 559 318 593 383 599 L352 422 C280 447 265 473 273 515 L273 515 Z " />
<glyph glyph-name="ampersand" unicode="&#x26;" horiz-adv-x="696" d="M571 447 C540 440 517 411 518 381 C519 374 518 369 517 365 C517 361 516 359 515 359 C515 358 514 358 512 357 C509 356 505 356 500 356 C500 356 499 356 498 356 C487 356 475 357 465 357 C395 357 340 339 300 306 C260 273 245 232 241 205 C236 182 238 166 239 163 C242 139 261 124 285 124 C290 124 296 124 301 126 C332 135 354 166 350 195 C350 196 350 200 351 205 C353 214 356 221 363 227 C370 233 391 246 443 246 C443 244 442 242 442 240 C429 169 361 111 289 111 C218 111 170 169 183 240 C192 292 230 336 277 357 C278 358 280 359 282 360 C283 361 284 361 285 362 C287 363 288 363 289 364 C293 367 298 371 302 375 C303 377 303 378 304 379 C304 379 304 379 305 379 C323 404 323 436 302 453 C285 466 277 489 281 514 C289 556 328 589 370 589 C411 589 439 556 432 514 C426 483 447 459 477 459 C508 459 537 483 542 514 C560 617 492 700 389 700 C287 700 189 617 171 514 C164 479 169 445 181 417 C125 373 84 310 72 240 C49 107 137 0 270 0 C403 0 529 107 553 240 C554 248 555 256 556 264 C560 266 563 268 567 271 C598 291 622 328 628 365 C630 378 631 392 630 405 C629 435 602 454 571 447 L571 447 Z " />
<glyph glyph-name="quotesingle" unicode="&#x27;" horiz-adv-x="230" d="M69 433 C68 410 83 395 103 395 C122 395 133 407 140 426 L213 648 C215 656 217 664 217 670 C217 691 202 703 183 703 L144 703 C111 703 89 679 87 647 L69 433 Z " />
<glyph glyph-name="parenleft" unicode="&#x28;" horiz-adv-x="430" d="M148 -56 C176 -81 215 -95 258 -95 L260 -95 C295 -95 328 -67 334 -32 C341 3 318 31 283 31 C264 32 253 36 243 45 C227 58 214 88 209 134 C203 180 206 239 219 305 C233 392 260 469 291 516 C306 540 321 556 335 565 C348 574 360 578 379 578 C414 578 447 607 453 642 C459 676 437 705 402 705 C358 705 313 691 275 665 C220 627 182 572 153 511 C124 449 105 379 92 305 C74 206 71 115 92 40 C103 3 121 -31 148 -56 L148 -56 Z " />
<glyph glyph-name="parenright" unicode="&#x29;" horiz-adv-x="430" d="M371 666 C343 691 304 705 261 705 L259 705 C224 705 191 677 185 642 C178 607 201 579 236 579 C255 578 266 574 276 565 C292 552 305 522 310 476 C316 430 313 371 300 305 C286 218 259 141 228 94 C213 70 198 54 184 45 C171 36 159 32 140 32 C105 32 72 3 66 -32 C60 -66 82 -95 117 -95 C161 -95 206 -81 244 -55 C299 -17 337 38 366 99 C395 161 414 231 427 305 C445 404 448 495 427 570 C416 607 398 641 371 666 L371 666 Z " />
<glyph glyph-name="asterisk" unicode="&#x2a;" horiz-adv-x="430" d="M349 623 C353 639 340 654 324 654 C315 654 308 651 299 644 L236 602 L256 669 C263 689 253 705 234 705 C214 705 199 689 198 668 L195 602 L147 644 C140 651 135 654 127 654 C109 654 92 640 89 624 C87 609 95 598 106 593 L166 566 L96 538 C84 534 72 524 69 509 C66 492 78 477 95 477 C102 477 110 480 119 487 L182 529 L162 463 C156 442 164 427 184 427 C204 427 219 443 220 463 L223 529 L271 487 C278 480 283 477 292 477 C308 477 326 491 329 508 C331 523 324 533 312 538 L251 566 L322 593 C334 598 347 608 349 623 L349 623 Z " />
<glyph glyph-name="plus" unicode="&#x2b;" horiz-adv-x="620" d="M413 401 L327 401 L344 487 C350 515 331 540 301 540 C272 540 243 515 237 487 L220 401 L134 401 C105 401 76 377 70 348 C64 318 83 294 112 294 L198 294 L180 208 C174 180 193 155 222 155 C252 155 281 180 287 208 L305 294 L391 294 C419 294 449 318 455 348 C461 377 441 401 413 401 L413 401 Z " />
<glyph glyph-name="comma" unicode="&#x2c;" horiz-adv-x="230" d="M151 58 C151 58 151 58 151 58 C151 58 151 58 151 58 C149 58 149 59 149 59 C144 82 124 98 100 98 C75 98 54 75 54 49 C54 23 75 1 100 1 C107 1 111 1 114 2 C107 -14 97 -31 69 -37 C60 -40 55 -47 57 -55 C59 -62 66 -67 72 -67 C73 -67 75 -67 75 -67 C141 -51 152 9 152 39 C152 51 151 56 151 58 L151 58 Z " />
<glyph glyph-name="hyphen" unicode="&#x2d;" horiz-adv-x="408" d="M288 308 L288 308 C308 308 323 324 323 344 L323 344 C323 364 308 380 288 380 L102 380 L102 380 C82 380 66 364 66 344 L66 344 C66 324 82 308 102 308 L288 308 Z " />
<glyph glyph-name="period" unicode="&#x2e;" horiz-adv-x="230" d="M181 50 C181 77 159 99 132 99 C106 99 82 77 82 50 C82 24 106 0 132 0 C159 0 181 24 181 50 L181 50 Z " />
<glyph glyph-name="slash" unicode="&#x2f;" horiz-adv-x="500" d="M36 4 L36 4 C42 1 50 0 56 0 L56 0 C77 0 98 12 107 33 L352 617 L352 617 C364 644 351 677 324 688 L324 688 C295 700 263 687 251 659 L6 76 L6 76 C-6 48 7 15 36 4 L36 4 Z " />
<glyph glyph-name="zero" unicode="0" horiz-adv-x="710" d="M395 699 C317 699 244 652 190 588 C136 524 97 440 81 349 C65 258 74 174 106 110 C137 46 194 -1 272 -1 C350 -1 424 46 477 110 C531 174 570 258 586 349 C602 440 593 524 561 588 C530 652 473 699 395 699 L395 699 Z M396 172 C359 129 322 110 291 110 C260 110 230 129 209 172 C188 214 179 278 192 349 C204 420 235 484 271 527 C308 570 345 589 376 588 C407 589 437 570 458 527 C480 484 488 420 476 349 C463 278 432 214 396 172 L396 172 Z " />
<glyph glyph-name="one" unicode="1" horiz-adv-x="335" d="M286 653 C286 655 286 657 286 658 C286 660 285 662 285 664 C285 665 284 667 284 669 C283 670 283 671 283 672 C282 673 282 673 282 673 C281 675 280 676 279 678 C278 679 278 681 277 682 C276 683 275 684 274 685 C272 687 271 688 270 689 C269 690 267 691 266 692 C264 692 263 693 261 694 C260 695 258 695 257 696 C255 697 254 697 252 698 C250 698 249 698 247 698 C245 699 243 699 241 699 C241 699 240 699 240 699 C239 699 238 699 236 699 C234 699 232 699 230 698 C228 698 227 697 225 697 C223 696 221 696 219 695 C217 695 215 694 213 693 C212 692 211 692 210 691 L74 618 C45 603 30 569 41 542 C49 525 65 515 84 515 C94 515 104 518 114 523 L158 547 L71 54 C65 24 86 -1 116 -1 C147 -1 176 24 181 54 L285 644 C286 645 285 646 286 647 C286 649 286 651 286 653 L286 653 Z " />
<glyph glyph-name="two" unicode="2" horiz-adv-x="590" d="M474 109 L262 109 L481 280 C541 327 580 393 591 458 C601 515 591 573 557 619 C519 671 458 698 393 698 C336 698 274 677 221 636 L185 608 C159 587 151 552 167 530 C184 507 218 505 245 526 L245 526 L281 554 C310 576 343 587 374 587 C409 587 441 573 462 545 C480 520 486 489 480 458 C474 423 454 388 421 362 L78 95 C52 74 44 39 61 16 C69 4 83 -2 98 -2 C99 -2 100 -2 100 -2 C101 -2 101 -2 102 -2 L455 -2 C485 -2 514 23 520 53 C525 84 505 109 474 109 L474 109 Z " />
<glyph glyph-name="three" unicode="3" horiz-adv-x="610" d="M441 473 L590 603 C595 607 599 612 603 617 C608 625 613 634 614 644 C620 675 599 700 568 700 L273 700 C241 700 211 675 206 644 C200 612 221 587 253 587 L414 587 L294 483 C269 460 263 425 281 403 C282 402 282 402 282 402 C291 390 304 383 321 384 C355 383 387 371 409 344 C430 318 437 284 431 249 C425 214 406 180 375 153 C343 127 307 114 272 114 C237 114 205 127 184 153 C166 175 130 175 104 153 C78 131 71 95 89 73 C129 25 189 0 252 0 C252 0 252 0 252 0 C316 0 384 25 441 73 C498 122 534 186 545 249 C556 312 543 376 503 424 C486 445 465 461 441 473 L441 473 Z " />
<glyph glyph-name="four" unicode="4" horiz-adv-x="664" d="M555 239 L545 239 L616 643 C616 644 616 644 616 645 C616 647 617 650 617 652 C617 653 617 655 616 656 C616 658 616 660 616 662 C615 663 615 665 615 666 C614 668 614 670 613 671 C612 673 611 674 611 676 C610 677 609 679 608 680 C607 681 606 683 605 684 C604 685 604 685 603 686 C602 686 602 687 601 687 C600 688 598 689 597 690 C596 691 594 692 593 693 C591 694 590 694 588 695 C587 695 585 696 583 696 C582 697 580 697 578 697 C576 698 575 698 573 698 C572 698 571 698 570 698 C569 698 568 698 568 698 C566 698 564 698 562 697 C560 697 558 697 556 696 C554 696 553 695 551 695 C549 694 547 693 545 692 C544 692 542 691 541 690 C539 689 537 688 535 687 C534 686 532 685 531 684 C529 682 527 681 526 679 C525 679 524 678 524 677 L73 218 C50 195 47 160 68 141 C77 132 88 128 100 128 C101 128 101 128 102 128 C102 128 102 128 102 128 L415 128 L401 53 C396 23 416 -2 447 -2 C478 -2 507 23 512 53 L525 128 L535 128 C566 128 595 153 600 184 C606 214 585 239 555 239 L555 239 Z M235 239 L478 486 L434 239 L235 239 L235 239 Z " />
<glyph glyph-name="five" unicode="5" horiz-adv-x="605" d="M537 588 C568 588 598 613 603 644 C609 676 588 701 557 701 L262 701 C252 701 243 699 235 695 C233 694 232 693 231 693 C230 692 228 691 227 690 C212 682 200 667 195 650 L119 392 C117 386 116 381 117 375 C117 374 117 374 117 373 C117 371 117 369 117 367 C118 365 118 363 119 361 C119 360 119 359 119 359 C121 354 123 349 127 345 C145 323 181 323 207 345 C238 371 275 384 310 384 C344 384 376 371 398 345 C420 319 427 285 421 250 C414 215 395 181 364 154 C333 128 296 115 261 114 C227 115 195 127 173 154 C155 176 119 176 93 154 C67 132 60 96 79 74 L79 74 C118 25 178 1 241 1 C241 1 241 1 241 1 C305 1 373 26 430 74 C487 122 523 186 534 250 C545 313 532 377 492 425 C452 474 393 498 330 498 C307 498 284 495 261 489 L291 588 L537 588 L537 588 Z " />
<glyph glyph-name="six" unicode="6" horiz-adv-x="642" d="M362 487 C328 487 294 479 262 467 C268 476 274 485 280 493 C302 522 328 546 356 563 C384 579 416 590 455 592 C486 593 514 618 518 649 C522 680 501 703 470 702 C412 700 358 683 311 655 C241 613 189 550 152 484 C116 417 93 345 81 279 C77 259 75 240 73 221 C73 221 74 220 74 220 C64 97 151 2 277 2 C411 2 538 110 562 244 C586 378 496 487 362 487 L362 487 Z M296 113 C223 113 175 172 187 244 C200 317 270 376 343 376 C416 376 464 317 451 244 L451 244 C438 172 369 113 296 113 L296 113 Z " />
<glyph glyph-name="seven" unicode="7" horiz-adv-x="587" d="M536 654 C536 656 536 658 535 659 C535 661 535 662 535 664 C534 666 534 668 533 670 C532 671 532 672 531 673 C531 675 530 676 529 678 C528 679 527 680 526 682 C525 683 523 684 522 686 C521 687 520 688 519 689 C514 693 508 696 501 697 C497 698 493 698 489 698 L148 698 C118 698 89 673 83 643 C78 612 98 587 129 587 L387 587 L81 75 C64 47 71 14 97 2 C104 0 111 -2 118 -2 C140 -2 162 11 175 32 L527 621 C529 624 531 628 532 632 C535 639 536 647 536 654 L536 654 Z " />
<glyph glyph-name="eight" unicode="8" horiz-adv-x="630" d="M484 435 C510 462 528 496 535 533 C551 624 490 698 399 698 C308 698 221 624 205 533 C198 496 204 462 220 435 C148 392 93 319 79 236 C55 105 144 -2 275 -2 C407 -2 533 105 556 236 C570 319 541 392 484 435 L484 435 Z M379 589 C411 589 431 564 426 533 C420 503 391 478 360 477 C329 478 308 503 313 533 C319 564 348 589 379 589 L379 589 Z M294 107 C223 107 175 165 187 236 C200 308 268 366 340 366 C412 366 459 308 447 236 C434 165 366 107 294 107 L294 107 Z " />
<glyph glyph-name="nine" unicode="9" horiz-adv-x="642" d="M578 482 C587 604 500 699 375 699 C241 699 113 591 89 457 C66 323 155 215 289 215 C324 215 358 222 389 235 C384 226 378 217 371 209 C349 179 324 155 296 139 C267 122 236 111 197 110 C166 109 138 83 133 52 C129 22 150 -1 179 -1 C180 -1 181 -1 182 -1 C240 1 294 19 340 46 C411 88 462 151 499 217 C536 284 559 356 570 422 C574 442 576 461 578 480 C578 481 578 481 578 482 L578 482 Z M309 325 C236 325 187 384 200 457 C213 529 282 588 355 588 C428 588 477 529 464 457 C451 384 382 325 309 325 L309 325 Z " />
<glyph glyph-name="colon" unicode="&#x3a;" horiz-adv-x="240" d="M190 50 C195 77 177 99 150 99 C124 99 96 77 91 50 C87 24 106 0 132 0 C159 0 186 24 190 50 L190 50 Z M264 473 C269 500 251 522 224 522 C198 522 170 500 165 473 C160 447 180 423 206 423 C233 423 259 447 264 473 L264 473 Z " />
<glyph glyph-name="&amp;#x3b;" unicode="&#x3b;" horiz-adv-x="240" d="M257 471 C263 498 245 520 218 520 C192 520 164 498 158 471 C153 445 173 421 199 421 C226 421 252 445 257 471 L257 471 Z M175 60 C175 60 175 60 175 60 C175 60 175 60 175 60 C173 60 174 61 174 61 C173 84 156 100 132 100 C107 100 82 77 77 51 C72 25 88 3 113 3 C120 3 124 3 128 4 C118 -12 104 -29 75 -35 C66 -38 59 -45 60 -53 C60 -60 66 -65 72 -65 C73 -65 75 -65 75 -65 C145 -49 167 11 173 41 C175 53 175 58 175 60 L175 60 Z " />
<glyph glyph-name="&amp;#x37e;" unicode="&#x37e;" horiz-adv-x="240" d="M257 471 C263 498 245 520 218 520 C192 520 164 498 158 471 C153 445 173 421 199 421 C226 421 252 445 257 471 L257 471 Z M175 60 C175 60 175 60 175 60 C175 60 175 60 175 60 C173 60 174 61 174 61 C173 84 156 100 132 100 C107 100 82 77 77 51 C72 25 88 3 113 3 C120 3 124 3 128 4 C118 -12 104 -29 75 -35 C66 -38 59 -45 60 -53 C60 -60 66 -65 72 -65 C73 -65 75 -65 75 -65 C145 -49 167 11 173 41 C175 53 175 58 175 60 L175 60 Z " />
<glyph glyph-name="less" unicode="&#x3c;" horiz-adv-x="620" d="M512 682 C492 707 451 707 422 682 L88 396 C81 390 75 383 71 376 C71 376 70 375 70 375 C68 372 67 369 66 366 C65 365 65 364 65 363 C64 360 63 358 62 355 C62 354 61 352 61 351 C61 349 61 347 61 344 C61 342 60 341 60 339 C60 337 61 335 61 334 C61 331 61 329 62 327 C62 326 62 325 63 324 C64 321 64 318 66 316 C66 315 66 315 67 314 C68 311 70 308 72 306 L305 20 C316 7 331 1 347 1 C364 1 381 7 396 19 C425 44 432 85 412 110 L215 351 L497 592 C526 617 533 657 512 682 L512 682 Z " />
<glyph glyph-name="equal" unicode="&#x3d;" horiz-adv-x="620" d="M115 259 L115 259 L301 259 L301 259 C321 259 336 275 336 295 L336 295 C336 315 321 331 301 331 L115 331 L115 331 C95 331 79 315 79 295 L79 295 C79 275 95 259 115 259 L115 259 Z M115 372 L115 372 L301 372 L301 372 C321 372 336 387 336 407 L336 407 C336 426 321 442 301 442 L115 442 L115 442 C95 442 79 426 79 407 L79 407 C79 387 95 372 115 372 L115 372 Z " />
<glyph glyph-name="greater" unicode="&#x3e;" horiz-adv-x="620" d="M562 357 C562 359 562 361 562 363 C562 365 562 366 562 368 C561 370 561 373 561 375 C561 376 560 377 560 378 C559 380 558 383 557 386 C557 386 557 387 556 387 C555 390 553 393 551 396 L317 682 C297 707 256 707 227 682 C198 657 190 617 211 592 L408 351 L126 110 C96 85 89 44 110 19 C120 7 135 1 152 1 C168 1 186 7 200 20 L535 306 C538 308 540 311 543 314 C543 314 544 315 544 316 C547 318 549 322 551 325 C551 325 552 326 552 327 C554 330 555 333 557 336 C557 337 558 338 558 339 C559 341 560 344 560 347 C561 348 561 349 561 351 C562 353 562 355 562 357 L562 357 Z " />
<glyph glyph-name="question" unicode="&#x3f;" horiz-adv-x="534" d="M165 122 C136 122 109 99 104 70 L101 51 C96 22 115 -1 143 -1 C172 -1 199 22 204 51 L207 70 C212 99 193 122 165 122 L165 122 Z M266 699 C185 699 105 655 55 589 C37 564 39 533 62 519 C84 504 116 513 135 537 L135 537 C162 573 204 596 248 596 C313 596 357 543 346 478 C334 412 272 359 206 359 C178 359 151 336 146 308 C146 307 146 307 146 306 C146 305 145 305 145 304 L126 194 C121 165 140 143 168 143 C196 143 223 165 228 194 L241 263 C342 286 430 373 448 478 C470 600 388 699 266 699 L266 699 Z " />
<glyph glyph-name="at" unicode="&#x40;" horiz-adv-x="980" d="M499 702 C305 702 121 545 87 352 C53 159 182 2 375 2 C405 2 435 6 464 13 C495 20 518 50 515 80 C513 110 486 127 455 120 L455 120 C436 115 415 113 395 113 C263 113 175 220 198 352 C221 484 347 591 479 591 C611 591 699 484 676 352 C669 313 654 276 631 244 C630 242 623 234 616 227 C613 225 611 223 608 222 L629 341 C629 342 629 344 629 345 C630 347 631 349 631 352 C641 407 629 457 600 494 C572 531 527 555 473 555 C418 555 365 531 324 494 C283 457 253 407 243 352 C233 297 245 247 274 210 C302 173 347 149 401 149 C401 149 401 149 401 149 C433 149 465 158 494 172 C496 162 499 152 505 142 C516 121 543 104 574 104 C583 104 592 105 601 108 C640 117 668 139 687 156 C706 173 717 188 719 190 L720 191 L720 192 C753 240 777 294 787 352 C821 545 692 702 499 702 L499 702 Z M483 286 C465 269 443 260 421 260 C399 260 380 269 368 286 C355 302 349 325 354 352 C358 378 373 402 391 418 C409 435 431 444 453 444 C475 444 494 435 506 418 C519 402 525 378 520 352 C516 325 501 302 483 286 L483 286 Z " />
<glyph glyph-name="A" unicode="A" horiz-adv-x="646" d="M239 165 L483 165 L509 36 C513 14 532 0 554 0 C561 0 567 1 574 3 C605 14 625 46 619 75 L502 664 C497 687 478 700 455 700 C432 700 408 687 396 664 L71 75 C55 46 64 14 90 3 C96 1 103 0 109 0 C132 0 155 14 167 36 L239 165 L239 165 Z M300 275 L418 490 L461 275 L300 275 L300 275 Z " />
<glyph glyph-name="B" unicode="B" horiz-adv-x="594" d="M155 -1 C156 -1 156 -1 156 -1 C157 -1 157 -1 158 -1 L336 -1 C454 -1 567 95 588 213 C601 290 573 357 519 395 C548 426 569 466 577 508 C595 614 525 699 420 699 L281 699 C281 699 280 699 280 699 C279 699 279 699 279 699 C248 699 219 674 214 644 L110 54 C104 24 125 -1 155 -1 L155 -1 Z M355 110 L230 110 L267 317 L392 317 C449 317 487 270 477 213 C467 156 412 110 355 110 L355 110 Z M466 508 C458 464 416 428 372 428 L286 428 L315 588 L400 588 C444 588 474 552 466 508 L466 508 Z " />
<glyph glyph-name="C" unicode="C" horiz-adv-x="719" d="M404 0 C404 0 404 0 404 0 C487 0 570 28 639 76 C667 94 677 129 663 153 C648 177 614 182 587 163 C539 130 482 111 423 111 C354 111 297 138 260 181 C223 225 206 284 218 350 C229 416 267 475 320 519 C372 562 439 589 507 589 C566 589 616 569 653 537 C674 518 709 522 732 546 C755 570 757 605 736 624 C684 672 611 700 527 700 C330 700 142 544 107 350 C73 155 207 0 404 0 L404 0 Z " />
<glyph glyph-name="D" unicode="D" horiz-adv-x="719" d="M155 0 C155 0 155 0 156 0 C156 0 156 0 156 0 L273 0 C466 0 651 157 685 350 C719 544 590 700 397 700 L279 700 C279 700 279 700 279 700 C279 700 279 700 279 700 C248 700 219 676 213 645 L110 56 C104 25 125 0 155 0 L155 0 Z M574 350 C551 218 425 111 293 111 L230 111 L314 590 L377 590 C509 589 597 483 574 350 L574 350 Z " />
<glyph glyph-name="E" unicode="E" horiz-adv-x="593" d="M155 -2 C155 -2 155 -2 155 -2 C156 -2 156 -2 156 -2 L481 -2 C511 -2 540 23 546 53 C551 84 531 109 500 109 L229 109 L262 293 L495 293 C526 293 555 317 560 348 C566 379 545 403 515 403 L281 403 L314 587 L585 587 C615 587 644 612 650 643 C655 673 635 698 604 698 L280 698 C280 698 279 698 279 698 C279 698 278 698 278 698 C247 698 218 673 213 643 L109 53 C104 23 124 -2 155 -2 L155 -2 Z " />
<glyph glyph-name="F" unicode="F" horiz-adv-x="600" d="M155 0 C186 0 215 25 220 55 L263 295 L496 295 C526 295 555 319 561 350 C566 381 546 405 515 405 L282 405 L315 589 L585 589 C616 589 645 614 650 645 C656 675 635 700 605 700 L281 700 C280 700 280 700 280 700 C279 700 279 700 279 700 C248 700 219 675 214 645 L110 55 C104 25 125 0 155 0 L155 0 Z " />
<glyph glyph-name="G" unicode="G" horiz-adv-x="800" d="M403 1 C403 1 403 1 404 1 C487 1 570 30 639 77 C648 83 655 91 660 100 C661 101 661 101 661 101 C662 103 663 105 664 107 C666 112 668 117 669 122 L707 338 C712 369 692 393 661 393 C661 393 661 393 661 393 C660 393 660 393 660 393 L468 393 C437 393 408 369 403 338 C397 308 418 283 448 283 L587 283 L563 150 C520 126 472 112 423 112 C354 112 297 139 260 183 C223 226 206 286 218 351 C229 417 267 476 319 520 C372 564 438 591 507 591 C566 591 616 571 653 538 C674 519 709 524 732 548 C755 572 757 607 736 625 C684 673 611 701 527 701 C330 701 142 546 107 351 C73 157 207 2 403 1 L403 1 Z " />
<glyph glyph-name="H" unicode="H" horiz-adv-x="760" d="M521 295 L479 55 C474 25 494 0 525 0 C555 0 585 25 590 55 L694 645 C699 675 679 700 648 700 C618 700 589 675 583 645 L541 405 L282 405 L324 645 C330 675 309 700 279 700 C248 700 219 675 213 645 L110 55 C104 25 125 0 155 0 C186 0 215 25 220 55 L262 295 L521 295 L521 295 Z " />
<glyph glyph-name="I" unicode="I" horiz-adv-x="305" d="M227 54 L331 644 C336 674 316 699 285 699 C255 699 226 674 220 644 L116 54 C111 24 131 -1 162 -1 C192 -1 222 24 227 54 L227 54 Z " />
<glyph glyph-name="J" unicode="J" horiz-adv-x="594" d="M94 241 C63 231 42 200 46 171 C60 71 141 -1 252 -1 C389 -1 520 110 544 247 L614 644 C619 674 599 699 568 699 C538 699 508 674 503 644 L503 644 L433 247 C420 171 347 110 271 110 C210 109 165 150 157 205 C153 234 125 250 94 241 L94 241 Z " />
<glyph glyph-name="K" unicode="K" horiz-adv-x="715" d="M279 700 C248 700 219 675 214 645 L110 55 C104 25 125 0 155 0 C186 0 215 25 220 55 L246 199 L370 305 L554 20 C562 7 577 0 593 0 C605 0 619 4 630 13 C657 32 667 67 652 91 L462 383 L724 606 C749 627 755 662 737 684 C720 705 685 705 659 684 L273 356 L324 645 C330 675 309 700 279 700 L279 700 Z " />
<glyph glyph-name="L" unicode="L" horiz-adv-x="619" d="M155 2 C156 2 156 3 156 3 C157 3 157 2 157 2 L481 2 C512 2 541 27 547 58 C552 88 532 113 501 113 L230 113 L324 647 C330 678 309 702 279 702 C248 702 219 678 214 647 L110 58 C104 27 125 2 155 2 L155 2 Z " />
<glyph glyph-name="M" unicode="M" horiz-adv-x="868" d="M320 678 C312 694 296 702 279 701 C278 701 278 701 278 701 C278 701 278 701 278 701 C278 701 278 701 278 701 C247 701 218 677 213 646 L109 57 C104 26 124 1 155 1 C185 1 214 26 220 57 L294 477 L402 277 C410 262 426 254 443 254 C443 254 444 254 444 254 C445 254 445 254 446 254 C463 254 481 262 495 277 L673 477 L599 57 C594 26 614 1 645 1 C676 1 705 26 710 57 L814 646 C819 677 799 701 769 701 C769 701 769 701 769 701 C768 701 768 701 768 701 C768 701 768 701 768 701 C750 702 732 694 718 679 L470 402 L320 678 L320 678 Z " />
<glyph glyph-name="N" unicode="N" horiz-adv-x="790" d="M110 55 C104 24 125 0 155 0 C186 0 215 24 220 55 L294 474 L538 26 C539 23 541 21 542 19 C550 7 564 0 580 0 C611 0 640 24 645 55 L749 642 C754 672 734 697 703 697 C673 697 644 672 638 642 L565 225 L319 677 C306 702 272 707 245 689 C227 678 216 660 213 642 C213 642 213 642 213 642 L110 55 L110 55 Z " />
<glyph glyph-name="O" unicode="O" horiz-adv-x="850" d="M361 -1 C361 -1 361 -1 361 -1 C454 -1 545 39 616 103 C687 166 739 253 755 349 C772 444 751 532 703 595 C654 659 577 699 485 699 C392 699 301 659 230 595 C159 532 107 444 90 349 C73 253 94 166 143 103 C191 39 268 -1 361 -1 L361 -1 Z M297 519 C345 562 405 588 465 588 C525 588 576 562 609 519 C642 476 657 416 645 349 C633 282 597 222 549 178 C500 135 441 110 381 109 C320 110 270 135 237 178 C204 222 189 282 201 349 C213 416 249 476 297 519 L297 519 Z " />
<glyph glyph-name="P" unicode="P" horiz-adv-x="583" d="M155 1 C185 1 215 26 220 56 L258 272 L382 272 C500 273 613 368 634 487 C655 605 576 701 457 701 L280 701 C279 701 279 701 279 701 C279 701 279 701 278 701 C248 701 219 676 213 646 L109 56 C104 26 124 1 155 1 L155 1 Z M523 487 C513 430 458 383 401 383 L278 383 L314 590 L438 590 C495 590 533 544 523 487 L523 487 Z " />
<glyph glyph-name="Q" unicode="Q" horiz-adv-x="844" d="M786 -18 C771 8 735 12 705 -8 C660 -38 629 -47 599 -47 C566 -47 530 -33 492 -10 L515 0 C562 19 606 48 647 82 C721 150 778 242 794 345 C813 447 789 541 738 609 C687 676 604 720 505 720 C406 720 309 676 232 609 C157 541 101 447 85 345 C66 242 88 150 141 82 C165 50 198 23 236 2 L234 1 C202 -12 183 -48 191 -78 C193 -86 198 -94 204 -100 C205 -100 205 -100 205 -101 C206 -102 208 -102 210 -103 C225 -114 247 -117 270 -106 L270 -106 C275 -103 311 -88 345 -88 C366 -88 385 -94 403 -104 C451 -136 506 -164 578 -164 C578 -164 578 -164 579 -164 C637 -164 699 -144 761 -101 C791 -80 802 -44 786 -18 L786 -18 Z M202 345 C214 418 254 482 305 528 C357 574 420 600 484 600 C549 600 603 574 639 528 C674 482 689 418 677 345 C665 274 625 210 574 163 C522 118 458 89 394 89 C330 89 276 118 240 163 C205 210 190 274 202 345 L202 345 Z " />
<glyph glyph-name="R" unicode="R" horiz-adv-x="625" d="M578 83 C575 99 564 111 550 117 C549 127 549 146 555 176 C562 218 556 255 541 284 C533 298 524 310 514 321 C568 360 609 419 620 486 C641 604 562 700 444 700 L266 700 C266 700 266 700 265 700 C265 700 265 700 265 700 C234 700 205 675 200 645 L96 55 C90 25 111 0 141 0 C172 0 201 25 206 55 L245 272 L363 272 C372 269 396 262 415 248 C426 239 435 230 440 218 C445 207 447 195 444 176 C435 120 435 84 445 56 C450 41 459 29 471 20 C483 12 497 9 508 9 C508 9 508 9 508 9 C518 9 526 11 531 13 C561 22 582 54 578 83 L578 83 Z M301 589 L424 589 C481 589 520 543 510 486 C499 429 445 382 388 382 L264 382 L301 589 L301 589 Z " />
<glyph glyph-name="S" unicode="S" horiz-adv-x="667" d="M83 98 L83 98 C130 53 210 1 316 0 L316 0 C385 0 451 20 506 55 L506 55 C560 90 604 144 615 206 L615 206 C621 236 618 265 607 290 L607 290 C591 326 560 351 525 370 L525 370 C488 389 445 402 397 411 L397 411 L395 411 L395 411 C344 421 303 436 280 454 L280 454 C269 463 262 471 259 479 L259 479 C255 487 254 495 256 506 L256 506 C260 527 275 548 304 568 L304 568 C333 587 375 601 420 600 L420 600 C479 601 522 571 566 539 L566 539 C586 523 618 530 637 553 L637 553 C656 576 656 607 635 622 L635 622 C591 654 531 700 437 700 L437 700 C373 700 311 681 260 648 L260 648 C209 616 167 565 156 506 L156 506 C151 478 154 450 164 427 L164 427 C180 392 208 369 242 351 L242 351 C276 334 316 322 360 313 L361 313 L362 313 L362 313 C418 302 463 285 488 266 L488 266 C501 257 508 247 513 237 L513 237 C517 228 518 219 516 206 L516 206 C511 182 494 158 461 136 L461 136 C429 115 383 100 334 100 L334 100 C263 99 196 140 160 175 L160 175 C141 192 109 189 88 168 L88 168 C67 146 65 115 83 98 L83 98 Z " />
<glyph glyph-name="T" unicode="T" horiz-adv-x="648" d="M56 645 C50 614 71 590 101 590 L259 590 L165 56 C159 25 180 0 210 0 C241 0 270 25 275 56 L369 590 L527 590 C557 590 587 614 592 645 C597 676 577 700 546 700 L121 700 C90 700 61 676 56 645 L56 645 Z " />
<glyph glyph-name="U" unicode="U" horiz-adv-x="814" d="M728 700 C698 700 668 676 663 645 L600 289 C583 191 489 111 390 111 C292 111 226 191 243 289 L306 645 C312 676 291 700 261 700 C230 700 201 676 195 645 L133 289 C105 130 211 0 371 0 C531 0 683 130 711 289 L774 645 C779 676 759 700 728 700 L728 700 Z " />
<glyph glyph-name="V" unicode="V" horiz-adv-x="750" d="M645 697 C619 709 584 696 567 667 L288 199 L173 667 C166 696 136 709 106 697 C75 685 56 653 63 624 L208 35 C208 32 209 29 211 27 C211 26 211 26 211 26 C213 23 214 21 215 19 C216 18 216 18 217 17 C219 15 220 13 222 12 C223 11 223 11 223 11 C226 9 229 7 232 6 C232 6 232 6 232 6 C232 6 233 5 233 5 C236 4 238 3 241 3 C242 3 242 2 243 2 C246 2 249 1 253 1 L253 1 L253 1 C256 1 259 2 263 2 C263 2 264 3 265 3 C268 3 271 4 274 5 C274 5 274 5 275 6 C275 6 275 6 276 6 C279 7 282 9 285 11 C286 11 286 11 287 12 C289 13 292 15 294 17 C295 18 296 18 296 19 C298 21 301 23 303 25 C303 26 303 26 304 27 C306 29 308 32 310 35 L662 624 C679 653 671 685 645 697 L645 697 Z " />
<glyph glyph-name="W" unicode="W" horiz-adv-x="1102" d="M1015 696 C989 708 955 695 938 667 L658 199 L582 509 C577 531 558 543 535 543 C513 543 490 531 477 509 L291 199 L177 667 C170 695 140 708 109 696 C79 684 60 652 67 624 L211 35 C212 32 213 29 215 26 C215 26 215 25 215 25 C216 23 218 20 219 18 C220 18 220 17 221 17 C222 15 224 13 226 11 C226 11 227 11 227 10 C230 8 232 7 235 5 C235 5 236 5 236 5 C236 5 237 5 237 5 C240 4 242 3 244 2 C245 2 246 2 247 2 C250 1 253 1 256 1 C256 1 256 1 256 1 C257 1 257 1 257 1 C257 1 257 1 257 1 C257 1 257 1 257 1 C260 1 263 1 266 2 C267 2 268 2 269 2 C272 3 274 4 277 5 C278 5 278 5 279 5 C279 5 279 5 280 5 C283 7 286 8 289 10 C290 11 290 11 291 11 C293 13 296 15 298 17 C299 17 299 18 300 18 C302 20 304 23 306 25 C307 25 307 26 308 26 C310 29 312 32 314 35 L501 348 L578 35 C579 32 580 29 581 26 C581 26 582 25 582 25 C583 23 584 20 586 18 C586 18 587 17 587 17 C589 15 591 13 593 11 C593 11 593 11 594 10 C596 8 599 7 602 5 C602 5 602 5 602 5 C603 5 603 5 604 5 C606 4 608 3 611 2 C612 2 613 2 614 2 C617 1 620 1 623 1 C623 1 623 1 623 1 C623 1 623 1 623 1 C623 1 623 1 623 1 C623 1 623 1 623 1 C626 1 630 1 633 2 C634 2 635 2 636 2 C638 3 641 4 644 5 C644 5 645 5 645 5 C646 5 646 5 646 5 C649 7 653 8 656 10 C656 11 657 11 657 11 C660 13 662 15 664 17 C665 17 666 18 667 18 C669 20 671 23 673 25 C673 25 674 26 674 26 C676 29 678 32 680 35 L1032 624 C1049 652 1042 684 1015 696 L1015 696 Z " />
<glyph glyph-name="X" unicode="X" horiz-adv-x="722" d="M710 691 C689 709 653 703 631 679 L419 445 L289 679 C276 703 242 709 214 691 C186 673 175 638 189 613 L334 351 L96 89 C74 65 73 30 95 12 C103 5 114 1 125 1 C142 1 161 9 174 24 L386 258 L515 24 C524 9 539 1 556 1 C567 1 579 5 591 12 C618 30 630 65 616 89 L471 351 L709 613 C731 638 732 673 710 691 L710 691 Z " />
<glyph glyph-name="Y" unicode="Y" horiz-adv-x="604" d="M592 611 C614 636 615 670 593 688 C572 706 536 701 514 676 L300 440 L169 676 C155 701 121 706 93 688 C66 670 54 636 68 611 L225 328 L176 54 C171 24 191 -1 222 -1 C252 -1 282 24 287 54 L335 328 L592 611 L592 611 Z " />
<glyph glyph-name="Z" unicode="Z" horiz-adv-x="667" d="M718 647 C718 649 718 651 718 653 C718 655 718 657 718 659 C718 660 717 662 717 664 C717 665 716 667 716 669 C715 670 715 672 714 673 C713 675 712 676 711 678 C711 679 710 680 709 682 C708 683 706 684 705 686 C704 687 703 688 703 688 C702 689 702 689 702 689 C700 690 699 691 697 692 C696 693 695 694 693 694 C692 695 690 695 689 696 C687 697 685 697 683 698 C682 698 681 698 679 698 C677 699 675 699 673 699 C672 699 672 699 672 699 L241 699 C211 699 181 674 176 644 C171 613 191 588 222 588 L543 588 L88 87 C88 87 88 86 88 86 C86 84 85 83 84 81 C83 80 82 78 81 77 C80 75 79 74 78 72 C77 70 76 68 75 66 C75 65 75 64 74 62 C74 60 73 58 72 55 C72 55 72 55 72 54 C72 53 72 52 72 51 C72 49 71 47 71 44 C71 43 72 41 72 40 C72 38 72 36 72 34 C73 33 73 31 74 30 C74 28 75 26 76 25 C76 23 77 22 78 21 C79 19 80 18 81 16 C82 15 83 14 84 12 C85 12 86 10 87 10 C87 9 88 9 88 9 C89 8 89 8 90 7 C92 6 94 5 96 4 C97 4 98 3 98 3 C101 2 103 1 105 1 C106 0 107 0 108 0 C111 -1 114 -1 118 -1 C118 -1 118 -1 118 -1 L548 -1 C579 -1 608 24 613 54 C619 85 598 110 568 110 L246 110 L701 611 C701 611 701 612 702 612 C703 614 704 616 706 617 C707 619 708 620 709 621 C710 623 711 625 711 627 C712 628 713 630 714 632 C715 633 715 635 715 636 C716 638 717 641 717 643 C717 643 717 643 717 644 C718 645 718 646 718 647 L718 647 Z " />
<glyph glyph-name="bracketleft" unicode="&#x5b;" horiz-adv-x="430" d="M103 -65 C98 -98 119 -125 152 -125 L358 -125 C384 -125 410 -103 414 -77 C419 -51 401 -30 375 -30 L226 -30 L338 610 L487 610 C513 610 539 631 544 657 C548 683 530 705 504 705 L298 705 C265 705 234 678 229 645 L103 -65 L103 -65 Z " />
<glyph glyph-name="backslash" unicode="&#x5c;" horiz-adv-x="500" d="M337 4 C366 15 379 48 367 76 L367 76 L122 659 C110 687 78 700 49 688 L49 688 C22 677 9 644 21 617 L21 617 L266 33 C275 12 296 0 317 0 L317 0 C323 0 331 1 337 4 L337 4 L337 4 Z " />
<glyph glyph-name="bracketright" unicode="&#x5d;" horiz-adv-x="430" d="M500 645 C505 678 484 705 451 705 L245 705 C219 705 193 683 189 657 C184 631 202 610 228 610 L377 610 L265 -30 L116 -30 C90 -30 64 -51 59 -77 C55 -103 73 -125 99 -125 L305 -125 C338 -125 369 -98 374 -65 L500 645 Z " />
<glyph glyph-name="asciicircum" unicode="&#x5e;" horiz-adv-x="500" d="M279 625 L332 532 C351 497 366 488 396 488 C412 488 425 496 428 508 C430 517 428 527 423 538 L355 668 C342 691 328 704 300 704 L291 704 C263 704 243 691 223 668 L101 538 C91 527 85 517 83 508 C80 496 91 488 107 488 C136 488 153 497 188 532 L279 625 Z " />
<glyph glyph-name="underscore" unicode="&#x5f;" horiz-adv-x="600" d="M18 -160 L622 -160 C648 -160 674 -139 680 -113 C685 -87 669 -66 643 -66 L39 -66 C13 -66 -13 -87 -18 -113 C-24 -139 -8 -160 18 -160 L18 -160 Z " />
<glyph glyph-name="grave" unicode="&#x60;" horiz-adv-x="500" d="M318 590 C336 590 349 598 349 611 C349 618 344 627 340 633 L283 721 C272 739 256 750 235 750 C203 750 163 730 163 711 C163 700 170 690 180 681 L248 617 C271 595 290 590 318 590 L318 590 Z " />
<glyph glyph-name="a" unicode="a" horiz-adv-x="619" d="M246 1 C246 1 246 1 246 1 C295 1 344 18 386 44 C387 20 404 1 431 1 C460 1 487 25 493 55 L561 446 C567 476 548 499 518 499 C492 499 468 481 459 457 C426 483 383 499 334 499 C268 499 202 471 151 426 C101 380 64 318 53 250 C40 183 56 121 90 75 C124 30 180 1 246 1 L246 1 Z M216 353 C245 378 279 394 315 394 C351 394 380 378 399 353 C419 327 429 291 421 250 C414 210 393 174 363 148 C335 122 300 107 265 107 C229 107 199 122 180 148 C160 174 151 210 158 250 C165 291 187 327 216 353 L216 353 Z " />
<glyph glyph-name="b" unicode="b" horiz-adv-x="660" d="M144 -2 C170 -2 194 16 204 41 C239 14 282 -2 334 -2 C471 -2 598 111 622 249 C646 387 558 500 422 500 C372 500 323 484 279 459 L310 645 C316 675 295 700 265 700 C235 700 206 675 201 645 L99 53 C93 22 114 -2 144 -2 L144 -2 Z M301 350 C330 376 367 392 402 392 C440 392 471 376 492 350 C511 324 520 288 513 249 C506 209 485 173 455 148 C425 122 389 106 354 106 C316 106 285 122 265 148 C245 173 236 209 243 249 C250 288 271 324 301 350 L301 350 Z " />
<glyph glyph-name="c" unicode="c" horiz-adv-x="571" d="M299 0 C299 0 299 0 299 0 C360 0 420 20 470 55 C497 73 507 107 493 131 C479 155 446 159 419 141 C389 120 354 108 318 108 C233 108 178 175 192 255 C206 335 285 401 370 401 C406 401 437 389 459 369 C480 351 515 355 537 378 C560 402 561 436 541 455 C503 489 450 510 389 510 C246 510 109 397 83 255 C58 113 156 0 299 0 L299 0 Z " />
<glyph glyph-name="d" unicode="d" horiz-adv-x="660" d="M283 -1 C334 -1 383 16 426 42 C427 18 446 -1 472 -1 C502 -1 530 24 536 54 L638 646 C643 676 623 700 593 700 C564 700 534 676 529 646 L499 457 C464 484 421 500 371 500 C235 500 108 386 84 249 C60 113 147 0 283 -1 L283 -1 Z M250 350 C279 376 315 391 352 391 C389 391 419 376 440 350 C459 325 468 290 461 249 C455 210 433 175 404 149 C374 124 339 108 302 108 C265 108 235 124 214 149 C194 175 185 210 193 249 C199 290 221 325 250 350 L250 350 Z " />
<glyph glyph-name="e" unicode="e" horiz-adv-x="609" d="M280 0 C370 0 426 21 486 77 C505 96 507 124 490 143 C488 145 456 177 418 141 C385 111 337 100 299 103 C265 106 227 124 211 148 C197 165 189 191 189 214 L508 214 C535 214 560 230 567 254 C568 256 569 261 569 263 C569 263 569 263 569 263 C569 263 569 263 569 263 C570 264 570 266 570 268 C587 403 502 500 371 500 C234 500 108 386 83 250 C58 114 143 1 280 0 L280 0 Z M354 405 C440 398 480 339 482 299 L199 299 C215 340 268 401 354 405 L354 405 Z " />
<glyph glyph-name="f" unicode="f" horiz-adv-x="362" d="M292 583 C294 584 294 584 299 586 C303 588 312 589 325 589 C355 589 384 614 390 644 C395 675 375 700 344 700 C324 700 304 698 283 691 C252 683 219 659 200 630 C180 600 170 569 164 532 L161 518 L135 518 C105 518 76 493 70 463 C65 432 85 407 116 407 L142 407 L80 55 C74 24 95 0 125 0 C156 0 185 24 190 55 L252 407 L282 407 C312 407 341 432 347 463 C352 493 332 518 301 518 L272 518 L274 532 C281 569 291 582 292 583 L292 583 Z " />
<glyph glyph-name="g" unicode="g" horiz-adv-x="660" d="M555 246 C555 247 555 247 555 247 L590 446 C596 476 576 500 546 500 C520 500 495 482 486 456 C452 484 408 500 358 500 C291 500 224 470 173 424 C121 378 84 315 72 246 C60 178 75 114 110 68 C145 23 201 -8 269 -8 C269 -8 269 -8 269 -8 C317 -8 365 8 407 33 C385 -28 322 -75 257 -75 C235 -75 217 -70 200 -61 C176 -48 142 -59 124 -86 C106 -113 112 -145 136 -158 C165 -173 200 -182 238 -182 C372 -182 499 -74 522 60 L555 246 C555 246 555 246 555 246 L555 246 Z M288 101 C252 101 222 116 201 143 C182 169 172 205 180 246 C187 288 209 324 238 350 C268 376 303 392 340 392 C376 392 405 376 425 350 C445 325 455 288 448 247 L447 246 C440 205 418 168 388 143 C359 116 324 101 288 101 L288 101 Z " />
<glyph glyph-name="h" unicode="h" horiz-adv-x="613" d="M469 1 C499 1 528 26 534 56 L577 283 C598 404 518 501 398 501 C359 501 320 491 286 473 L313 646 C318 676 298 701 267 701 C236 701 207 676 202 646 L142 283 L98 56 C93 26 113 1 144 1 C174 1 203 26 209 56 L252 283 C263 342 319 390 378 390 C437 390 477 342 466 283 L423 56 C418 26 438 1 469 1 L469 1 Z " />
<glyph glyph-name="i" unicode="i" horiz-adv-x="281" d="M99 54 C94 24 114 -1 145 -1 C176 -1 205 24 210 54 L282 445 C288 475 267 500 237 500 C206 500 177 475 172 445 L99 54 L99 54 Z M310 623 L314 644 C319 674 299 699 268 699 C238 699 209 674 203 644 L200 623 C194 592 215 567 245 567 C276 567 305 592 310 623 L310 623 Z " />
<glyph glyph-name="j" unicode="j" horiz-adv-x="249" d="M311 644 C316 674 295 700 264 700 C232 700 203 674 198 644 L194 623 C189 591 210 565 240 565 C272 565 302 591 307 623 L311 644 L311 644 Z M230 500 C198 500 168 476 163 444 L67 -85 C67 -85 67 -85 67 -85 C36 -85 6 -110 1 -141 C-5 -173 16 -198 47 -198 C109 -198 169 -147 180 -85 L276 444 C281 476 261 500 230 500 L230 500 Z " />
<glyph glyph-name="k" unicode="k" horiz-adv-x="560" d="M144 0 C175 0 204 25 209 55 L225 142 L290 198 L405 20 C414 7 428 0 444 0 C457 0 470 4 482 13 C509 32 518 67 503 90 L383 276 L559 426 C584 447 590 482 572 504 C555 525 520 525 494 504 L252 298 L313 645 C319 675 298 700 268 700 C237 700 208 675 203 645 L99 55 C93 25 114 0 144 0 L144 0 Z " />
<glyph glyph-name="l" unicode="l" horiz-adv-x="249" d="M209 644 L105 55 C100 24 121 -1 151 -1 C182 -1 211 24 216 55 L320 644 C325 675 305 699 275 699 C244 699 215 675 209 644 L209 644 Z " />
<glyph glyph-name="m" unicode="m" horiz-adv-x="951" d="M557 292 C558 293 558 294 558 294 C569 350 622 395 678 395 C735 395 772 349 762 292 L721 56 C715 26 735 2 764 2 C793 2 822 26 826 56 L868 292 C888 407 812 500 697 500 C634 500 575 474 529 431 C498 474 448 500 385 500 C346 500 307 489 273 470 C267 488 251 500 230 500 C200 500 173 477 167 447 L140 292 C140 292 140 292 140 292 L99 56 C93 26 113 2 142 2 C171 2 199 26 204 56 L246 292 C256 349 311 395 366 395 C422 395 460 350 451 294 C451 294 451 293 451 292 L409 56 C405 26 424 2 453 2 C453 2 453 2 453 2 C453 2 453 2 453 2 C483 2 510 26 516 56 L557 292 L557 292 Z " />
<glyph glyph-name="n" unicode="n" horiz-adv-x="613" d="M410 55 C405 25 424 1 454 1 C483 1 511 25 515 55 L557 291 C578 407 501 500 385 500 C346 500 307 489 272 469 C267 488 251 500 230 500 C201 500 173 476 167 447 L140 291 C140 291 140 291 140 291 L98 55 C93 25 113 1 142 1 C142 1 142 1 142 1 C142 1 142 1 142 1 C171 1 200 25 204 55 L247 291 C256 348 310 394 367 394 C424 394 462 348 452 291 L410 55 L410 55 Z " />
<glyph glyph-name="o" unicode="o" horiz-adv-x="625" d="M365 500 C298 500 232 470 181 425 C131 379 94 317 82 249 C70 180 85 118 119 73 C155 27 210 -2 277 -2 C277 -2 277 -2 277 -2 C344 -2 410 27 460 73 C511 118 548 180 560 249 C572 317 557 379 523 425 C487 470 432 500 365 500 L365 500 Z M454 249 C446 208 424 171 396 146 C366 120 331 104 295 104 C260 104 230 120 210 146 C190 171 181 208 188 249 C196 289 218 326 246 351 C276 378 310 393 347 393 C382 393 412 378 431 351 C452 326 461 289 454 249 L454 249 L454 249 Z " />
<glyph glyph-name="p" unicode="p" horiz-adv-x="660" d="M454 500 C404 500 354 484 310 458 C309 482 291 500 265 500 C235 500 206 476 201 445 L98 -135 C93 -165 113 -190 143 -190 C173 -190 202 -165 208 -135 L238 40 C272 13 316 -2 366 -3 C501 -2 630 112 654 249 C678 386 591 500 454 500 L454 500 Z M487 149 C457 123 423 107 385 107 C348 107 318 123 297 149 C278 173 267 208 276 249 C282 289 304 324 332 350 C362 375 399 391 436 391 C472 391 502 375 523 350 C544 324 552 289 545 249 C539 208 517 173 487 149 L487 149 Z " />
<glyph glyph-name="q" unicode="q" horiz-adv-x="660" d="M570 250 L604 445 C610 476 589 499 560 499 C534 499 509 482 499 457 C465 484 422 499 371 499 C235 499 108 387 84 249 C60 113 147 0 283 -1 C333 0 382 15 425 41 L394 -132 C388 -162 409 -187 438 -187 C469 -187 497 -162 502 -132 L570 249 C570 249 570 249 570 249 C570 249 570 250 570 250 L570 250 Z M403 149 C374 124 338 108 302 108 C265 108 235 124 214 149 C194 175 185 210 192 249 C199 289 221 325 250 350 C280 376 315 391 351 391 C388 391 419 376 439 350 C459 325 468 289 461 250 L461 249 C454 210 433 175 403 149 L403 149 Z " />
<glyph glyph-name="r" unicode="r" horiz-adv-x="439" d="M230 500 C201 500 172 476 168 447 L98 53 C93 24 113 0 142 0 C171 0 200 24 205 53 L238 242 C245 257 266 294 295 327 C312 346 330 364 350 375 C370 386 390 393 414 393 C443 393 470 418 476 447 C481 476 462 500 432 500 C383 500 337 483 300 459 C290 453 281 447 272 440 L274 447 C279 476 260 500 230 500 L230 500 Z " />
<glyph glyph-name="s" unicode="s" horiz-adv-x="492" d="M71 70 L71 70 C104 38 159 2 235 1 L235 1 C283 1 332 16 372 41 L372 41 C411 67 445 108 454 155 L454 155 C458 180 456 202 447 222 L447 222 C435 250 412 269 387 282 L387 282 C362 296 332 305 299 311 L298 311 L297 312 L297 312 C265 317 240 326 230 335 L230 335 C224 339 221 343 220 345 L220 345 C220 348 219 349 220 353 L220 353 C221 357 225 366 240 375 L240 375 C254 386 278 394 303 394 L303 394 C335 394 360 377 388 356 L388 356 C409 340 444 347 463 371 L463 371 C484 395 483 429 461 444 L461 444 L461 444 C433 466 390 500 321 500 L321 500 C276 500 231 486 192 462 L192 462 C156 437 123 398 114 353 L114 353 C111 330 114 309 121 291 L121 291 C133 263 156 245 177 232 L177 232 C201 220 230 212 260 206 L261 206 L261 206 L261 206 L261 206 C296 199 324 188 338 179 L338 179 C344 173 347 169 349 166 L349 166 C350 162 350 160 350 155 L350 155 C348 147 342 138 325 126 L325 126 C308 116 281 108 253 108 L253 108 C215 107 174 129 154 150 L154 150 C134 170 99 167 76 143 L76 143 C54 121 51 89 71 70 L71 70 Z " />
<glyph glyph-name="t" unicode="t" horiz-adv-x="400" d="M229 701 C199 701 170 676 164 646 L142 500 L113 500 C82 500 53 475 48 444 C42 414 63 389 93 389 L123 389 L70 112 C59 51 100 1 162 1 C192 1 221 26 227 56 C232 87 212 112 181 112 C181 112 181 112 181 112 L233 389 L259 389 C290 389 319 414 324 444 C330 475 309 500 279 500 L253 500 L275 646 C280 676 260 701 229 701 L229 701 Z " />
<glyph glyph-name="u" unicode="u" horiz-adv-x="613" d="M519 500 C490 500 462 477 457 447 L415 210 C405 154 351 108 294 108 C238 108 199 154 209 210 L251 447 C256 477 237 500 207 500 C178 500 151 477 145 447 L104 210 C83 95 160 1 276 1 C391 1 501 95 521 210 L562 447 C568 477 549 500 519 500 L519 500 Z " />
<glyph glyph-name="v" unicode="v" horiz-adv-x="582" d="M469 490 C444 501 411 489 395 462 L232 188 L164 462 C158 489 129 501 100 490 C71 478 53 448 60 421 L155 31 C156 29 157 26 158 23 C158 23 159 22 159 22 C160 20 161 18 163 16 C163 16 164 15 164 15 C166 13 168 11 170 10 C170 9 170 9 171 9 C173 7 175 5 178 4 C178 4 178 4 178 4 C179 3 179 3 179 3 C182 2 184 1 187 1 C187 1 188 0 189 0 C192 0 195 -1 198 -1 C198 -1 198 -1 198 -1 C198 -1 198 -1 198 -1 C198 -1 198 -1 198 -1 C198 -1 198 -1 199 -1 C202 -1 205 0 208 0 C208 0 209 1 210 1 C213 1 215 2 218 3 C218 3 219 3 219 4 C219 4 220 4 220 4 C223 5 226 7 229 9 C230 9 230 9 231 10 C233 11 236 13 238 15 C239 15 239 16 240 16 C242 18 243 20 245 22 C246 22 246 23 247 23 C249 26 251 29 252 31 L484 421 C501 448 493 478 469 490 L469 490 Z " />
<glyph glyph-name="w" unicode="w" horiz-adv-x="861" d="M711 488 C687 500 654 487 638 461 L475 189 L434 357 C429 378 412 390 390 389 C370 390 348 378 335 357 L235 189 L168 461 C162 487 133 500 104 488 C76 478 58 447 65 420 L159 34 C160 31 161 28 162 26 C162 25 163 25 163 24 C164 22 165 20 167 18 C167 17 168 17 168 16 C170 15 172 14 173 12 C174 12 174 11 175 11 C176 9 179 8 181 6 C182 6 182 6 182 6 C183 6 183 6 184 5 C186 5 188 4 190 3 C191 3 192 3 193 3 C196 2 199 2 202 2 C202 2 202 2 202 2 C202 2 202 2 202 2 C202 2 202 2 202 2 C202 2 202 2 202 2 C205 2 208 2 211 3 C212 3 213 3 214 3 C216 4 219 5 222 5 C222 6 223 6 223 6 C223 6 224 6 224 6 C227 8 229 9 232 11 C233 11 234 12 234 12 C236 14 239 15 241 16 C242 17 242 17 243 18 C245 20 247 22 249 24 C250 25 250 25 250 26 C253 28 255 31 255 34 L358 205 L400 34 C401 31 402 28 403 26 C403 25 403 25 404 24 C405 22 406 20 407 18 C408 17 409 17 409 16 C411 15 412 14 413 12 C414 12 414 11 415 11 C417 9 419 8 422 6 C422 6 423 6 423 6 C423 6 424 6 424 5 C427 5 429 4 431 3 C432 3 433 3 434 3 C437 2 439 2 442 2 C442 2 442 2 442 2 C442 2 442 2 442 2 C442 2 442 2 442 2 C442 2 442 2 442 2 C445 2 449 2 452 3 C453 3 454 3 455 3 C457 4 460 5 462 5 C463 6 463 6 464 6 C464 6 464 6 464 6 C467 8 470 9 473 11 C474 11 474 12 475 12 C477 14 479 15 482 16 C482 17 483 17 484 18 C486 20 488 22 490 24 C490 25 490 25 490 26 C492 28 494 31 496 34 L727 420 C743 447 736 478 711 488 L711 488 Z " />
<glyph glyph-name="x" unicode="x" horiz-adv-x="570" d="M515 483 C495 500 461 495 441 471 L317 336 L242 471 C228 495 196 500 170 483 C144 466 133 433 146 409 L236 247 L88 84 C67 61 67 28 87 11 C95 4 106 1 116 1 C133 1 149 8 163 22 L285 158 L360 22 C369 8 384 1 399 1 C410 1 421 4 432 11 C459 28 469 61 456 84 L366 247 L514 409 C535 433 536 466 515 483 L515 483 Z " />
<glyph glyph-name="y" unicode="y" horiz-adv-x="588" d="M537 447 C540 465 534 481 521 490 C514 497 504 500 492 500 C474 500 456 490 443 475 C436 467 431 457 429 447 L388 207 C377 150 323 103 265 103 C207 103 169 150 179 207 L222 447 C227 477 207 500 177 500 C148 500 120 477 114 447 L72 207 C52 91 130 -4 246 -4 C281 -4 315 4 347 20 C320 -34 263 -71 205 -71 C184 -71 165 -66 149 -58 C125 -45 90 -56 72 -82 C55 -109 60 -141 84 -154 C113 -170 148 -179 186 -179 C319 -179 446 -71 469 62 L523 370 L537 447 L537 447 Z " />
<glyph glyph-name="z" unicode="z" horiz-adv-x="554" d="M412 106 L230 106 L510 415 C510 415 510 415 511 416 C512 417 513 419 514 420 C515 422 516 423 517 425 C518 426 519 428 520 430 C521 431 522 433 523 435 C523 436 523 438 524 439 C524 440 525 443 526 445 C526 445 526 445 526 446 C526 447 526 448 526 449 C526 451 527 453 527 455 C527 457 526 459 526 460 C526 462 526 464 525 466 C525 467 525 469 524 470 C524 472 523 473 522 475 C522 476 521 478 520 479 C519 480 518 482 517 483 C516 485 515 486 514 487 C513 488 512 489 511 490 C511 490 511 490 511 490 C509 491 507 491 506 492 C505 493 503 494 502 494 C501 495 500 496 498 496 C497 497 495 497 494 498 C492 498 491 498 489 498 C487 499 485 499 483 499 C483 499 483 499 482 499 L194 499 C165 499 137 476 132 446 C127 417 146 392 176 392 L358 392 L78 83 C78 83 78 83 78 82 C76 81 75 79 74 77 C73 77 71 76 71 74 C70 72 69 71 68 69 C67 67 66 66 66 64 C65 62 65 61 64 59 C63 57 63 55 62 53 C62 53 62 53 62 52 C62 51 62 50 62 48 C62 47 61 45 61 43 C61 41 62 39 62 37 C62 36 62 34 62 33 C63 31 63 29 64 28 C64 26 65 25 66 24 C66 23 67 21 68 20 C69 19 70 17 71 16 C72 14 73 13 74 12 C75 11 76 10 77 9 C77 9 77 9 78 9 C78 8 79 8 80 7 C82 6 83 5 85 4 C86 4 87 3 87 3 C89 2 91 1 93 1 C94 0 95 0 96 0 C99 -1 102 -1 106 -1 C106 -1 106 -1 106 -1 L394 -1 C423 -1 451 23 456 52 C461 81 442 106 412 106 L412 106 Z " />
<glyph glyph-name="braceleft" unicode="&#x7b;" horiz-adv-x="480" d="M325 -148 C354 -155 382 -136 387 -107 C391 -83 377 -70 366 -66 C274 -36 266 -5 278 63 C281 83 289 116 293 137 C307 215 276 252 213 274 C283 295 327 333 341 411 C345 432 349 465 352 485 C364 553 384 584 486 614 C499 618 517 631 521 655 C526 684 506 703 473 696 C312 662 260 600 243 503 C241 488 236 448 233 431 C220 357 188 325 119 322 C87 320 65 301 60 274 C55 247 71 228 102 226 C170 224 190 191 177 118 C174 101 165 61 163 46 C145 -52 176 -114 325 -148 L325 -148 Z " />
<glyph glyph-name="bar" unicode="&#x7c;" horiz-adv-x="286" d="M126 -85 C121 -112 138 -133 163 -133 C190 -133 217 -112 222 -85 L372 755 C377 782 360 803 333 803 C307 803 280 782 275 755 L126 -85 Z " />
<glyph glyph-name="braceright" unicode="&#x7d;" horiz-adv-x="480" d="M254 696 C225 703 197 684 192 655 C188 631 202 618 213 614 C305 584 313 553 301 485 C298 465 290 432 286 411 C272 333 303 296 366 274 C296 253 252 215 238 137 C234 116 230 83 227 63 C215 -5 195 -36 93 -66 C80 -70 62 -83 58 -107 C53 -136 73 -155 106 -148 C267 -114 319 -52 336 45 C338 60 343 100 346 117 C359 191 391 223 460 226 C492 228 514 247 519 274 C524 301 508 320 477 322 C409 324 389 357 402 430 C405 447 414 487 416 502 C434 600 403 662 254 696 L254 696 Z " />
<glyph glyph-name="asciitilde" unicode="&#x7e;" horiz-adv-x="460" d="M154 247 C166 269 177 279 201 279 C236 279 289 239 344 239 C398 239 425 272 446 330 C449 337 450 347 450 353 C450 370 433 387 413 387 C398 387 387 377 381 366 C369 344 358 335 334 335 C299 335 246 374 191 374 C137 374 110 341 89 283 C86 277 85 266 85 261 C85 243 102 227 122 227 C137 227 148 236 154 247 L154 247 Z " />
<glyph glyph-name="exclamdown" unicode="&#xa1;" horiz-adv-x="252" d="M145 1 C175 1 205 26 210 57 L275 427 C281 458 260 483 230 483 C199 483 170 458 164 427 L99 57 C93 26 114 1 145 1 L145 1 Z M245 569 C275 569 305 594 310 624 L314 646 C319 676 299 701 268 701 C237 701 208 676 203 646 L199 624 C194 594 214 569 245 569 L245 569 Z " />
<glyph glyph-name="cent" unicode="&#xa2;" horiz-adv-x="581" d="M410 139 C381 120 345 107 309 107 C294 107 279 109 267 113 L428 384 C436 379 444 374 451 368 C471 349 504 353 530 378 C549 400 552 435 532 453 C519 465 504 475 487 484 L523 543 C539 570 532 603 507 614 C480 626 446 613 429 585 L384 509 L380 509 C238 508 100 395 75 253 C62 181 82 117 122 71 L81 2 C64 -26 72 -59 99 -70 C104 -73 112 -74 118 -74 C139 -74 162 -62 175 -41 L207 13 C232 4 260 -1 290 -1 C351 -1 412 21 461 53 C488 73 498 106 486 128 C469 153 437 157 410 139 L410 139 L410 139 Z M183 253 C194 317 249 374 314 393 L189 183 C181 204 178 228 183 253 L183 253 Z " />
<glyph glyph-name="sterling" unicode="&#xa3;" horiz-adv-x="644" d="M70 43 C66 19 81 0 109 0 L547 0 C577 0 605 23 611 53 C616 83 596 107 566 107 L290 107 L320 278 L522 278 C550 278 578 301 584 330 C588 358 569 382 541 382 L339 382 L354 471 C362 513 380 546 405 568 C427 586 451 596 483 596 C529 596 556 577 581 544 C588 535 600 525 622 525 C656 525 688 551 694 585 C697 604 691 618 682 629 C647 676 594 710 502 710 C430 710 369 688 323 648 C276 608 243 547 230 474 L214 382 L182 382 C153 382 125 358 121 330 C115 301 134 278 163 278 L195 278 L164 102 L111 87 C87 80 73 63 70 43 L70 43 Z " />
<glyph glyph-name="yen" unicode="&#xa5;" horiz-adv-x="686" d="M394 266 L548 266 C572 266 595 286 600 310 C604 335 587 355 563 355 L442 355 L673 607 C684 619 692 633 695 650 C702 685 679 707 647 707 C621 707 600 690 584 672 L362 412 L233 673 C222 694 207 707 181 707 C146 707 115 680 109 649 C107 634 109 621 117 607 L256 355 L137 355 C113 355 90 335 86 310 C81 286 98 266 122 266 L276 266 L263 193 L109 193 C85 193 61 173 57 148 C53 124 69 104 93 104 L247 104 L239 56 C233 23 254 -3 287 -3 C320 -3 351 23 357 56 L365 104 L519 104 C543 104 567 124 571 148 C575 173 559 193 535 193 L381 193 L394 266 L394 266 Z " />
<glyph glyph-name="dieresis" unicode="&#xa8;" horiz-adv-x="500" d="M411 720 C374 720 339 694 332 658 L331 651 C323 615 347 590 384 590 C420 590 454 615 462 651 L463 658 C470 694 447 720 411 720 L411 720 Z M212 720 C175 720 140 694 133 658 L132 651 C124 615 148 590 185 590 C221 590 255 615 263 651 L264 658 C271 694 248 720 212 720 L212 720 Z " />
<glyph glyph-name="copyright" unicode="&#xa9;" horiz-adv-x="830" d="M414 -12 C617 -12 777 153 777 350 L777 352 C777 549 619 712 416 712 C213 712 53 547 53 350 L53 348 C53 151 211 -12 414 -12 L414 -12 Z M414 24 C230 24 91 169 91 348 L91 350 C91 529 231 676 416 676 C600 676 739 531 739 352 L739 350 C739 171 599 24 414 24 L414 24 Z M419 159 C483 159 522 180 559 212 C565 217 570 226 570 237 C570 256 554 272 535 272 C525 272 518 267 513 263 C486 240 459 227 421 227 C353 227 303 285 303 354 L303 356 C303 426 353 483 421 483 C455 483 484 469 507 451 C515 445 523 441 531 441 C551 441 567 457 567 478 C567 491 560 502 551 508 C519 534 482 551 421 551 C308 551 227 462 227 355 L227 353 C227 245 309 159 419 159 L419 159 Z " />
<glyph glyph-name="guillemotleft" unicode="&#xab;" horiz-adv-x="515" d="M455 42 C483 42 508 64 514 92 C516 105 514 114 506 125 L425 265 L554 402 C564 411 572 423 574 436 C579 463 562 486 534 486 C516 486 498 476 485 462 L330 299 C319 288 311 277 309 264 C306 251 310 241 317 229 L416 63 C423 51 436 42 455 42 L455 42 Z M203 42 C231 42 257 64 262 92 C264 104 262 115 255 125 L173 265 L303 402 C312 411 320 423 322 436 C327 463 310 486 283 486 C264 486 247 476 233 462 L78 299 C67 288 60 277 58 264 C55 251 58 241 65 229 L164 63 C171 51 185 42 203 42 L203 42 Z " />
<glyph glyph-name="registered" unicode="&#xae;" horiz-adv-x="416" d="M208 360 C305 360 382 440 382 535 L382 536 C382 631 306 710 208 710 C111 710 34 630 34 535 L34 534 C34 439 110 360 208 360 L208 360 Z M208 379 C120 379 54 449 54 534 L54 535 C54 620 121 691 208 691 C296 691 362 621 362 536 L362 535 C362 450 295 379 208 379 L208 379 Z M275 463 C275 466 274 472 274 481 C274 493 270 504 265 512 C262 517 258 520 254 523 C268 535 277 552 277 571 C277 606 249 634 215 634 L162 634 C162 634 162 634 162 634 C162 634 162 634 162 634 C153 634 146 627 146 618 L146 445 C146 436 153 429 162 429 C171 429 179 436 179 445 L179 509 L213 509 C216 508 223 506 229 502 C233 499 236 496 238 493 C240 490 241 486 242 481 C242 464 244 454 248 445 C250 441 253 437 257 435 C261 433 266 432 269 432 C269 432 269 432 269 432 C272 432 274 433 275 433 C284 436 289 445 286 453 C284 458 280 462 275 463 L275 463 Z M215 541 L179 541 L179 601 L215 601 C231 601 245 588 245 571 C245 555 231 541 215 541 L215 541 Z " />
<glyph glyph-name="degree" unicode="&#xb0;" horiz-adv-x="450" d="M241 381 C328 381 407 456 407 543 L407 545 C407 632 328 706 241 706 C153 706 74 632 74 545 L74 543 C74 456 153 381 241 381 L241 381 Z M241 447 C186 447 146 492 146 543 L146 545 C146 596 186 640 241 640 C295 640 335 596 335 545 L335 543 C335 492 295 447 241 447 L241 447 Z " />
<glyph glyph-name="acute" unicode="&#xb4;" horiz-adv-x="500" d="M231 590 C259 590 278 595 302 617 L369 681 C379 690 386 700 386 711 C386 730 346 750 314 750 C293 750 277 739 266 721 L209 633 C205 627 201 618 201 611 C201 598 214 590 231 590 L231 590 Z " />
<glyph glyph-name="cedilla" unicode="&#xb8;" horiz-adv-x="500" d="M340 10 L249 10 L178 -93 C173 -100 170 -108 170 -116 C170 -137 216 -160 240 -160 C261 -160 271 -150 279 -131 L340 10 Z " />
<glyph glyph-name="guillemotright" unicode="&#xbb;" horiz-adv-x="515" d="M191 486 C163 486 138 464 132 436 C130 423 132 414 140 403 L221 263 L92 126 C82 117 74 105 72 92 C67 65 84 42 112 42 C130 42 148 52 161 66 L316 229 C327 240 335 251 337 264 C340 277 336 287 329 299 L230 465 C223 477 210 486 191 486 L191 486 Z M443 486 C415 486 389 464 384 436 C382 424 384 413 391 403 L473 263 L343 126 C334 117 326 105 324 92 C319 65 336 42 363 42 C382 42 399 52 413 66 L568 229 C579 240 586 251 588 264 C591 277 588 287 581 299 L482 465 C475 477 461 486 443 486 L443 486 Z " />
<glyph glyph-name="questiondown" unicode="&#xbf;" horiz-adv-x="534" d="M357 576 C386 576 413 599 418 628 L421 647 C426 676 407 699 379 699 C350 699 323 676 318 647 L315 628 C310 599 329 576 357 576 L357 576 Z M256 -1 C337 -1 417 43 467 109 C485 134 483 165 460 179 C438 194 406 185 387 161 L387 161 C360 125 318 102 274 102 C209 102 165 155 176 220 C188 286 250 339 316 339 C344 339 371 362 376 390 C376 391 376 391 376 392 C376 393 377 393 377 394 L396 504 C401 533 382 555 354 555 C326 555 299 533 294 504 L281 435 C180 412 92 325 74 220 C52 98 134 -1 256 -1 L256 -1 Z " />
<glyph glyph-name="Agrave" unicode="&#xc0;" horiz-adv-x="790" d="M240 165 L484 165 L510 36 C514 14 533 0 555 0 C562 0 568 1 575 3 C606 14 626 46 620 75 L503 664 C498 687 479 700 456 700 C433 700 409 687 397 664 L72 75 C56 46 65 14 91 3 C97 1 104 0 110 0 C133 0 156 14 168 36 L240 165 L240 165 Z M301 275 L419 490 L462 275 L301 275 L301 275 Z M551 790 C569 790 582 798 582 811 C582 818 577 827 573 833 L516 921 C505 939 489 950 468 950 C436 950 396 930 396 911 C396 900 403 890 413 881 L481 817 C504 795 523 790 551 790 L551 790 Z " />
<glyph glyph-name="Aacute" unicode="&#xc1;" horiz-adv-x="646" d="M239 165 L483 165 L509 36 C513 14 532 0 554 0 C561 0 567 1 574 3 C605 14 625 46 619 75 L502 664 C497 687 478 700 455 700 C432 700 408 687 396 664 L71 75 C55 46 64 14 90 3 C96 1 103 0 109 0 C132 0 155 14 167 36 L239 165 L239 165 Z M300 275 L418 490 L461 275 L300 275 L300 275 Z M389 790 C417 790 436 795 460 817 L527 881 C537 890 544 900 544 911 C544 930 504 950 472 950 C451 950 435 939 424 921 L367 833 C363 827 359 818 359 811 C359 798 372 790 389 790 L389 790 Z " />
<glyph glyph-name="Acircumflex" unicode="&#xc2;" horiz-adv-x="790" d="M240 165 L484 165 L510 36 C514 14 533 0 555 0 C562 0 568 1 575 3 C606 14 626 46 620 75 L503 664 C498 687 479 700 456 700 C433 700 409 687 397 664 L72 75 C56 46 65 14 91 3 C97 1 104 0 110 0 C133 0 156 14 168 36 L240 165 L240 165 Z M301 275 L419 490 L462 275 L301 275 L301 275 Z M510 862 L548 817 C569 795 586 790 614 790 C630 790 645 797 649 810 C651 817 648 826 644 834 L603 917 C594 935 582 946 554 946 L518 946 C490 946 471 935 451 917 L360 834 C352 826 343 817 341 810 C337 797 347 790 362 790 C390 790 412 795 444 817 L510 862 Z " />
<glyph glyph-name="Atilde" unicode="&#xc3;" horiz-adv-x="790" d="M240 165 L484 165 L510 36 C514 14 533 0 555 0 C562 0 568 1 575 3 C606 14 626 46 620 75 L503 664 C498 687 479 700 456 700 C433 700 409 687 397 664 L72 75 C56 46 65 14 91 3 C97 1 104 0 110 0 C133 0 156 14 168 36 L240 165 L240 165 Z M301 275 L419 490 L462 275 L301 275 L301 275 Z M399 803 C411 825 422 835 445 835 C481 835 534 795 589 795 C642 795 670 828 691 886 C693 893 695 903 695 909 C695 926 678 942 658 942 C643 942 632 933 625 922 C613 900 602 890 579 890 C543 890 490 930 435 930 C382 930 354 897 333 839 C331 832 329 822 329 816 C329 799 346 783 366 783 C382 783 392 792 399 803 L399 803 Z " />
<glyph glyph-name="Adieresis" unicode="&#xc4;" horiz-adv-x="790" d="M240 165 L484 165 L510 36 C514 14 533 0 555 0 C562 0 568 1 575 3 C606 14 626 46 620 75 L503 664 C498 687 479 700 456 700 C433 700 409 687 397 664 L72 75 C56 46 65 14 91 3 C97 1 104 0 110 0 C133 0 156 14 168 36 L240 165 L240 165 Z M301 275 L419 490 L462 275 L301 275 L301 275 Z M607 920 C570 920 535 894 528 858 L527 851 C519 815 543 790 580 790 C616 790 650 815 658 851 L659 858 C666 894 643 920 607 920 L607 920 Z M408 920 C371 920 336 894 329 858 L328 851 C320 815 344 790 381 790 C417 790 451 815 459 851 L460 858 C467 894 444 920 408 920 L408 920 Z " />
<glyph glyph-name="Aring" unicode="&#xc5;" horiz-adv-x="790" d="M319 275 L438 490 L481 275 L319 275 L319 275 Z M529 35 C533 13 551 0 573 0 C580 0 588 1 593 3 C624 14 644 46 639 75 L528 629 C568 651 600 689 607 732 L608 734 C620 801 569 857 502 857 C435 857 364 801 352 734 L351 732 C344 689 363 650 395 628 L91 75 C76 46 84 14 111 3 C117 1 122 0 129 0 C151 0 175 13 188 35 L259 165 L502 165 L529 35 L529 35 Z M471 685 C444 685 427 706 431 732 L432 734 C436 760 461 781 488 781 C515 781 532 760 528 734 L527 732 C523 706 498 685 471 685 L471 685 Z " />
<glyph glyph-name="AE" unicode="&#xc6;" horiz-adv-x="1045" d="M40 57 C35 28 55 6 85 6 C109 6 128 18 145 40 L251 181 L515 181 L496 74 C490 39 512 12 547 12 L937 12 C967 12 996 36 1001 67 C1007 97 986 122 956 122 L627 122 L660 310 L939 310 C969 310 999 334 1004 364 C1009 395 989 420 959 420 L680 420 L712 602 L1036 602 C1066 602 1095 626 1100 657 C1106 687 1085 712 1055 712 L574 712 C539 712 514 696 495 669 L56 92 C48 83 42 69 40 57 L40 57 L40 57 Z M333 290 L569 605 L589 605 L534 290 L333 290 L333 290 Z " />
<glyph glyph-name="Ccedilla" unicode="&#xc7;" horiz-adv-x="738" d="M404 0 C404 0 404 0 404 0 C487 0 570 28 639 76 C667 94 677 129 663 153 C648 177 614 182 587 163 C539 130 482 111 423 111 C354 111 297 138 260 181 C223 225 206 284 218 350 C229 416 267 475 320 519 C372 562 439 589 507 589 C566 589 616 569 653 537 C674 518 709 522 732 546 C755 570 757 605 736 624 C684 672 611 700 527 700 C330 700 142 544 107 350 C73 155 207 0 404 0 L404 0 Z M463 10 L372 10 L301 -93 C296 -100 293 -108 293 -116 C293 -137 339 -160 363 -160 C384 -160 394 -150 402 -131 L463 10 Z " />
<glyph glyph-name="Egrave" unicode="&#xc8;" horiz-adv-x="670" d="M155 -2 C155 -2 155 -2 155 -2 C156 -2 156 -2 156 -2 L481 -2 C511 -2 540 23 546 53 C551 84 531 109 500 109 L229 109 L262 293 L495 293 C526 293 555 317 560 348 C566 379 545 403 515 403 L281 403 L314 587 L585 587 C615 587 644 612 650 643 C655 673 635 698 604 698 L280 698 C280 698 279 698 279 698 C279 698 278 698 278 698 C247 698 218 673 213 643 L109 53 C104 23 124 -2 155 -2 L155 -2 Z M495 790 C513 790 526 798 526 811 C526 818 521 827 517 833 L460 921 C449 939 433 950 412 950 C380 950 340 930 340 911 C340 900 347 890 357 881 L425 817 C448 795 467 790 495 790 L495 790 Z " />
<glyph glyph-name="Eacute" unicode="&#xc9;" horiz-adv-x="670" d="M155 -2 C155 -2 155 -2 155 -2 C156 -2 156 -2 156 -2 L481 -2 C511 -2 540 23 546 53 C551 84 531 109 500 109 L229 109 L262 293 L495 293 C526 293 555 317 560 348 C566 379 545 403 515 403 L281 403 L314 587 L585 587 C615 587 644 612 650 643 C655 673 635 698 604 698 L280 698 C280 698 279 698 279 698 C279 698 278 698 278 698 C247 698 218 673 213 643 L109 53 C104 23 124 -2 155 -2 L155 -2 Z M410 790 C438 790 457 795 481 817 L548 881 C558 890 565 900 565 911 C565 930 525 950 493 950 C472 950 456 939 445 921 L388 833 C384 827 380 818 380 811 C380 798 393 790 410 790 L410 790 Z " />
<glyph glyph-name="Ecircumflex" unicode="&#xca;" horiz-adv-x="670" d="M155 -2 C155 -2 155 -2 155 -2 C156 -2 156 -2 156 -2 L481 -2 C511 -2 540 23 546 53 C551 84 531 109 500 109 L229 109 L262 293 L495 293 C526 293 555 317 560 348 C566 379 545 403 515 403 L281 403 L314 587 L585 587 C615 587 644 612 650 643 C655 673 635 698 604 698 L280 698 C280 698 279 698 279 698 C279 698 278 698 278 698 C247 698 218 673 213 643 L109 53 C104 23 124 -2 155 -2 L155 -2 Z M505 862 L543 817 C564 795 581 790 609 790 C625 790 640 797 644 810 C646 817 643 826 639 834 L598 917 C589 935 577 946 549 946 L513 946 C485 946 466 935 446 917 L355 834 C347 826 338 817 336 810 C332 797 342 790 357 790 C385 790 407 795 439 817 L505 862 Z " />
<glyph glyph-name="Edieresis" unicode="&#xcb;" horiz-adv-x="670" d="M155 -2 C155 -2 155 -2 155 -2 C156 -2 156 -2 156 -2 L481 -2 C511 -2 540 23 546 53 C551 84 531 109 500 109 L229 109 L262 293 L495 293 C526 293 555 317 560 348 C566 379 545 403 515 403 L281 403 L314 587 L585 587 C615 587 644 612 650 643 C655 673 635 698 604 698 L280 698 C280 698 279 698 279 698 C279 698 278 698 278 698 C247 698 218 673 213 643 L109 53 C104 23 124 -2 155 -2 L155 -2 Z M589 920 C552 920 517 894 510 858 L509 851 C501 815 525 790 562 790 C598 790 632 815 640 851 L641 858 C648 894 625 920 589 920 L589 920 Z M390 920 C353 920 318 894 311 858 L310 851 C302 815 326 790 363 790 C399 790 433 815 441 851 L442 858 C449 894 426 920 390 920 L390 920 Z " />
<glyph glyph-name="Igrave" unicode="&#xcc;" horiz-adv-x="274" d="M131 54 L235 644 C240 674 220 699 189 699 C159 699 130 674 124 644 L20 54 C15 24 35 -1 66 -1 C96 -1 126 24 131 54 L131 54 Z M272 790 C290 790 303 798 303 811 C303 818 298 827 294 833 L237 921 C226 939 210 950 189 950 C157 950 117 930 117 911 C117 900 124 890 134 881 L202 817 C225 795 244 790 272 790 L272 790 Z " />
<glyph glyph-name="Iacute" unicode="&#xcd;" horiz-adv-x="274" d="M227 54 L331 644 C336 674 316 699 285 699 C255 699 226 674 220 644 L116 54 C111 24 131 -1 162 -1 C192 -1 222 24 227 54 L227 54 Z M218 790 C246 790 265 795 289 817 L356 881 C366 890 373 900 373 911 C373 930 333 950 301 950 C280 950 264 939 253 921 L196 833 C192 827 188 818 188 811 C188 798 201 790 218 790 L218 790 Z " />
<glyph glyph-name="Icircumflex" unicode="&#xce;" horiz-adv-x="274" d="M148 54 L252 644 C257 674 237 699 206 699 C176 699 147 674 141 644 L37 54 C32 24 52 -1 83 -1 C113 -1 143 24 148 54 L148 54 Z M221 862 L259 817 C280 795 297 790 325 790 C341 790 356 797 360 810 C362 817 359 826 355 834 L314 917 C305 935 293 946 265 946 L229 946 C201 946 182 935 162 917 L71 834 C63 826 54 817 52 810 C48 797 58 790 73 790 C101 790 123 795 155 817 L221 862 Z " />
<glyph glyph-name="Idieresis" unicode="&#xcf;" horiz-adv-x="274" d="M156 54 L260 644 C265 674 245 699 214 699 C184 699 155 674 149 644 L45 54 C40 24 60 -1 91 -1 C121 -1 151 24 156 54 L156 54 Z M360 920 C323 920 288 894 281 858 L280 851 C272 815 296 790 333 790 C369 790 403 815 411 851 L412 858 C419 894 396 920 360 920 L360 920 Z M161 920 C124 920 89 894 82 858 L81 851 C73 815 97 790 134 790 C170 790 204 815 212 851 L213 858 C220 894 197 920 161 920 L161 920 Z " />
<glyph glyph-name="Eth" unicode="&#xd0;" horiz-adv-x="812" d="M371 700 L253 700 C222 700 193 676 187 645 L142 389 L104 389 C84 389 64 373 60 353 C55 333 67 317 87 317 L130 317 L84 56 C78 25 99 0 129 0 L130 0 L247 0 C440 0 625 157 659 350 C693 544 564 700 371 700 L371 700 Z M548 350 C525 218 399 111 267 111 L204 111 L240 317 L273 317 C293 317 312 333 317 353 C321 373 310 389 290 389 L253 389 L288 590 L351 590 C483 589 571 483 548 350 L548 350 Z " />
<glyph glyph-name="Ntilde" unicode="&#xd1;" horiz-adv-x="790" d="M110 55 C104 24 125 0 155 0 C186 0 215 24 220 55 L294 474 L538 26 C539 23 541 21 542 19 C550 7 564 0 580 0 C611 0 640 24 645 55 L749 642 C754 672 734 697 703 697 C673 697 644 672 638 642 L565 225 L319 677 C306 702 272 707 245 689 C227 678 216 660 213 642 C213 642 213 642 213 642 L110 55 L110 55 Z M451 803 C463 825 474 835 497 835 C533 835 586 795 641 795 C694 795 722 828 743 886 C745 893 747 903 747 909 C747 926 730 942 710 942 C695 942 684 933 677 922 C665 900 654 890 631 890 C595 890 542 930 487 930 C434 930 406 897 385 839 C383 832 381 822 381 816 C381 799 398 783 418 783 C434 783 444 792 451 803 L451 803 Z " />
<glyph glyph-name="Ograve" unicode="&#xd2;" horiz-adv-x="850" d="M361 -1 C361 -1 361 -1 361 -1 C454 -1 545 39 616 103 C687 166 739 253 755 349 C772 444 751 532 703 595 C654 659 577 699 485 699 C392 699 301 659 230 595 C159 532 107 444 90 349 C73 253 94 166 143 103 C191 39 268 -1 361 -1 L361 -1 Z M297 519 C345 562 405 588 465 588 C525 588 576 562 609 519 C642 476 657 416 645 349 C633 282 597 222 549 178 C500 135 441 110 381 109 C320 110 270 135 237 178 C204 222 189 282 201 349 C213 416 249 476 297 519 L297 519 Z M698 790 C716 790 729 798 729 811 C729 818 724 827 720 833 L663 921 C652 939 636 950 615 950 C583 950 543 930 543 911 C543 900 550 890 560 881 L628 817 C651 795 670 790 698 790 L698 790 Z " />
<glyph glyph-name="Oacute" unicode="&#xd3;" horiz-adv-x="850" d="M361 -1 C361 -1 361 -1 361 -1 C454 -1 545 39 616 103 C687 166 739 253 755 349 C772 444 751 532 703 595 C654 659 577 699 485 699 C392 699 301 659 230 595 C159 532 107 444 90 349 C73 253 94 166 143 103 C191 39 268 -1 361 -1 L361 -1 Z M297 519 C345 562 405 588 465 588 C525 588 576 562 609 519 C642 476 657 416 645 349 C633 282 597 222 549 178 C500 135 441 110 381 109 C320 110 270 135 237 178 C204 222 189 282 201 349 C213 416 249 476 297 519 L297 519 Z M407 790 C435 790 454 795 478 817 L545 881 C555 890 562 900 562 911 C562 930 522 950 490 950 C469 950 453 939 442 921 L385 833 C381 827 377 818 377 811 C377 798 390 790 407 790 L407 790 Z " />
<glyph glyph-name="Ocircumflex" unicode="&#xd4;" horiz-adv-x="850" d="M361 -1 C361 -1 361 -1 361 -1 C454 -1 545 39 616 103 C687 166 739 253 755 349 C772 444 751 532 703 595 C654 659 577 699 485 699 C392 699 301 659 230 595 C159 532 107 444 90 349 C73 253 94 166 143 103 C191 39 268 -1 361 -1 L361 -1 Z M297 519 C345 562 405 588 465 588 C525 588 576 562 609 519 C642 476 657 416 645 349 C633 282 597 222 549 178 C500 135 441 110 381 109 C320 110 270 135 237 178 C204 222 189 282 201 349 C213 416 249 476 297 519 L297 519 Z M584 862 L622 817 C643 795 660 790 688 790 C704 790 719 797 723 810 C725 817 722 826 718 834 L677 917 C668 935 656 946 628 946 L592 946 C564 946 545 935 525 917 L434 834 C426 826 417 817 415 810 C411 797 421 790 436 790 C464 790 486 795 518 817 L584 862 Z " />
<glyph glyph-name="Otilde" unicode="&#xd5;" horiz-adv-x="850" d="M361 -1 C361 -1 361 -1 361 -1 C454 -1 545 39 616 103 C687 166 739 253 755 349 C772 444 751 532 703 595 C654 659 577 699 485 699 C392 699 301 659 230 595 C159 532 107 444 90 349 C73 253 94 166 143 103 C191 39 268 -1 361 -1 L361 -1 Z M297 519 C345 562 405 588 465 588 C525 588 576 562 609 519 C642 476 657 416 645 349 C633 282 597 222 549 178 C500 135 441 110 381 109 C320 110 270 135 237 178 C204 222 189 282 201 349 C213 416 249 476 297 519 L297 519 Z M439 803 C451 825 462 835 485 835 C521 835 574 795 629 795 C682 795 710 828 731 886 C733 893 735 903 735 909 C735 926 718 942 698 942 C683 942 672 933 665 922 C653 900 642 890 619 890 C583 890 530 930 475 930 C422 930 394 897 373 839 C371 832 369 822 369 816 C369 799 386 783 406 783 C422 783 432 792 439 803 L439 803 Z " />
<glyph glyph-name="Odieresis" unicode="&#xd6;" horiz-adv-x="850" d="M361 -1 C361 -1 361 -1 361 -1 C454 -1 545 39 616 103 C687 166 739 253 755 349 C772 444 751 532 703 595 C654 659 577 699 485 699 C392 699 301 659 230 595 C159 532 107 444 90 349 C73 253 94 166 143 103 C191 39 268 -1 361 -1 L361 -1 Z M297 519 C345 562 405 588 465 588 C525 588 576 562 609 519 C642 476 657 416 645 349 C633 282 597 222 549 178 C500 135 441 110 381 109 C320 110 270 135 237 178 C204 222 189 282 201 349 C213 416 249 476 297 519 L297 519 Z M681 920 C644 920 609 894 602 858 L601 851 C593 815 617 790 654 790 C690 790 724 815 732 851 L733 858 C740 894 717 920 681 920 L681 920 Z M482 920 C445 920 410 894 403 858 L402 851 C394 815 418 790 455 790 C491 790 525 815 533 851 L534 858 C541 894 518 920 482 920 L482 920 Z " />
<glyph glyph-name="multiply" unicode="&#xd7;" horiz-adv-x="620" d="M568 481 C580 491 589 505 591 520 C595 550 575 573 545 573 C530 573 516 567 504 556 L358 425 L247 556 C239 566 227 573 210 573 C180 573 153 549 149 519 C146 502 152 489 159 479 L274 351 L127 223 C115 213 106 199 104 183 C100 154 120 131 149 131 C165 131 179 137 191 148 L337 279 L447 147 C456 138 468 131 485 131 C515 131 542 155 546 185 C549 202 543 215 535 225 L421 353 L568 481 Z " />
<glyph glyph-name="Ugrave" unicode="&#xd9;" horiz-adv-x="760" d="M716 700 C686 700 656 676 651 645 L588 289 C571 191 477 111 378 111 C280 111 214 191 231 289 L294 645 C300 676 279 700 249 700 C218 700 189 676 183 645 L121 289 C93 130 199 0 359 0 C519 0 671 130 699 289 L762 645 C767 676 747 700 716 700 L716 700 Z M548 790 C566 790 579 798 579 811 C579 818 574 827 570 833 L513 921 C502 939 486 950 465 950 C433 950 393 930 393 911 C393 900 400 890 410 881 L478 817 C501 795 520 790 548 790 L548 790 Z " />
<glyph glyph-name="Uacute" unicode="&#xda;" horiz-adv-x="760" d="M716 700 C686 700 656 676 651 645 L588 289 C571 191 477 111 378 111 C280 111 214 191 231 289 L294 645 C300 676 279 700 249 700 C218 700 189 676 183 645 L121 289 C93 130 199 0 359 0 C519 0 671 130 699 289 L762 645 C767 676 747 700 716 700 L716 700 Z M468 790 C496 790 515 795 539 817 L606 881 C616 890 623 900 623 911 C623 930 583 950 551 950 C530 950 514 939 503 921 L446 833 C442 827 438 818 438 811 C438 798 451 790 468 790 L468 790 Z " />
<glyph glyph-name="Ucircumflex" unicode="&#xdb;" horiz-adv-x="760" d="M716 700 C686 700 656 676 651 645 L588 289 C571 191 477 111 378 111 C280 111 214 191 231 289 L294 645 C300 676 279 700 249 700 C218 700 189 676 183 645 L121 289 C93 130 199 0 359 0 C519 0 671 130 699 289 L762 645 C767 676 747 700 716 700 L716 700 Z M557 862 L595 817 C616 795 633 790 661 790 C677 790 692 797 696 810 C698 817 695 826 691 834 L650 917 C641 935 629 946 601 946 L565 946 C537 946 518 935 498 917 L407 834 C399 826 390 817 388 810 C384 797 394 790 409 790 C437 790 459 795 491 817 L557 862 Z " />
<glyph glyph-name="Udieresis" unicode="&#xdc;" horiz-adv-x="760" d="M716 700 C686 700 656 676 651 645 L588 289 C571 191 477 111 378 111 C280 111 214 191 231 289 L294 645 C300 676 279 700 249 700 C218 700 189 676 183 645 L121 289 C93 130 199 0 359 0 C519 0 671 130 699 289 L762 645 C767 676 747 700 716 700 L716 700 Z M634 920 C597 920 562 894 555 858 L554 851 C546 815 570 790 607 790 C643 790 677 815 685 851 L686 858 C693 894 670 920 634 920 L634 920 Z M435 920 C398 920 363 894 356 858 L355 851 C347 815 371 790 408 790 C444 790 478 815 486 851 L487 858 C494 894 471 920 435 920 L435 920 Z " />
<glyph glyph-name="Yacute" unicode="&#xdd;" horiz-adv-x="716" d="M592 611 C614 636 615 670 593 688 C572 706 536 701 514 676 L300 440 L169 676 C155 701 121 706 93 688 C66 670 54 636 68 611 L225 328 L176 54 C171 24 191 -1 222 -1 C252 -1 282 24 287 54 L335 328 L592 611 L592 611 Z M374 790 C402 790 421 795 445 817 L512 881 C522 890 529 900 529 911 C529 930 489 950 457 950 C436 950 420 939 409 921 L352 833 C348 827 344 818 344 811 C344 798 357 790 374 790 L374 790 Z " />
<glyph glyph-name="germandbls" unicode="&#xdf;" horiz-adv-x="620" d="M313 31 C308 2 325 -19 359 -19 C472 -17 596 50 619 180 L619 182 C637 281 572 334 499 360 C562 392 624 441 640 531 L640 533 C659 638 593 721 457 721 C311 721 203 631 178 486 L99 38 C93 5 115 -21 148 -21 C182 -21 213 5 219 38 L299 490 C312 568 367 618 433 618 C494 618 528 580 517 522 L517 520 C507 462 460 423 403 394 C386 384 372 368 368 344 C362 313 381 298 403 291 C467 274 509 242 499 185 L499 183 C488 122 437 90 364 79 C337 73 317 55 313 31 L313 31 Z " />
<glyph glyph-name="agrave" unicode="&#xe0;" horiz-adv-x="574" d="M269 1 C269 1 269 1 269 1 C318 1 367 18 409 44 C410 20 427 1 454 1 C483 1 510 25 516 55 L584 446 C590 476 571 499 541 499 C515 499 491 481 482 457 C449 483 406 499 357 499 C291 499 225 471 174 426 C124 380 87 318 76 250 C63 183 79 121 113 75 C147 30 203 1 269 1 L269 1 Z M239 353 C268 378 302 394 338 394 C374 394 403 378 422 353 C442 327 452 291 444 250 C437 210 416 174 386 148 C358 122 323 107 288 107 C252 107 222 122 203 148 C183 174 174 210 181 250 C188 291 210 327 239 353 L239 353 Z M496 590 C514 590 527 598 527 611 C527 618 522 627 518 633 L461 721 C450 739 434 750 413 750 C381 750 341 730 341 711 C341 700 348 690 358 681 L426 617 C449 595 468 590 496 590 L496 590 Z " />
<glyph glyph-name="aacute" unicode="&#xe1;" horiz-adv-x="574" d="M269 1 C269 1 269 1 269 1 C318 1 367 18 409 44 C410 20 427 1 454 1 C483 1 510 25 516 55 L584 446 C590 476 571 499 541 499 C515 499 491 481 482 457 C449 483 406 499 357 499 C291 499 225 471 174 426 C124 380 87 318 76 250 C63 183 79 121 113 75 C147 30 203 1 269 1 L269 1 Z M239 353 C268 378 302 394 338 394 C374 394 403 378 422 353 C442 327 452 291 444 250 C437 210 416 174 386 148 C358 122 323 107 288 107 C252 107 222 122 203 148 C183 174 174 210 181 250 C188 291 210 327 239 353 L239 353 Z M378 590 C406 590 425 595 449 617 L516 681 C526 690 533 700 533 711 C533 730 493 750 461 750 C440 750 424 739 413 721 L356 633 C352 627 348 618 348 611 C348 598 361 590 378 590 L378 590 Z " />
<glyph glyph-name="acircumflex" unicode="&#xe2;" horiz-adv-x="574" d="M269 1 C269 1 269 1 269 1 C318 1 367 18 409 44 C410 20 427 1 454 1 C483 1 510 25 516 55 L584 446 C590 476 571 499 541 499 C515 499 491 481 482 457 C449 483 406 499 357 499 C291 499 225 471 174 426 C124 380 87 318 76 250 C63 183 79 121 113 75 C147 30 203 1 269 1 L269 1 Z M239 353 C268 378 302 394 338 394 C374 394 403 378 422 353 C442 327 452 291 444 250 C437 210 416 174 386 148 C358 122 323 107 288 107 C252 107 222 122 203 148 C183 174 174 210 181 250 C188 291 210 327 239 353 L239 353 Z M496 662 L534 617 C555 595 572 590 600 590 C616 590 631 597 635 610 C637 617 634 626 630 634 L589 717 C580 735 568 746 540 746 L504 746 C476 746 457 735 437 717 L346 634 C338 626 329 617 327 610 C323 597 333 590 348 590 C376 590 398 595 430 617 L496 662 Z " />
<glyph glyph-name="atilde" unicode="&#xe3;" horiz-adv-x="574" d="M269 1 C269 1 269 1 269 1 C318 1 367 18 409 44 C410 20 427 1 454 1 C483 1 510 25 516 55 L584 446 C590 476 571 499 541 499 C515 499 491 481 482 457 C449 483 406 499 357 499 C291 499 225 471 174 426 C124 380 87 318 76 250 C63 183 79 121 113 75 C147 30 203 1 269 1 L269 1 Z M239 353 C268 378 302 394 338 394 C374 394 403 378 422 353 C442 327 452 291 444 250 C437 210 416 174 386 148 C358 122 323 107 288 107 C252 107 222 122 203 148 C183 174 174 210 181 250 C188 291 210 327 239 353 L239 353 Z M360 603 C372 625 383 635 406 635 C442 635 495 595 550 595 C603 595 631 628 652 686 C654 693 656 703 656 709 C656 726 639 742 619 742 C604 742 593 733 586 722 C574 700 563 690 540 690 C504 690 451 730 396 730 C343 730 315 697 294 639 C292 632 290 622 290 616 C290 599 307 583 327 583 C343 583 353 592 360 603 L360 603 Z " />
<glyph glyph-name="adieresis" unicode="&#xe4;" horiz-adv-x="574" d="M269 1 C269 1 269 1 269 1 C318 1 367 18 409 44 C410 20 427 1 454 1 C483 1 510 25 516 55 L584 446 C590 476 571 499 541 499 C515 499 491 481 482 457 C449 483 406 499 357 499 C291 499 225 471 174 426 C124 380 87 318 76 250 C63 183 79 121 113 75 C147 30 203 1 269 1 L269 1 Z M239 353 C268 378 302 394 338 394 C374 394 403 378 422 353 C442 327 452 291 444 250 C437 210 416 174 386 148 C358 122 323 107 288 107 C252 107 222 122 203 148 C183 174 174 210 181 250 C188 291 210 327 239 353 L239 353 Z M620 720 C583 720 548 694 541 658 L540 651 C532 615 556 590 593 590 C629 590 663 615 671 651 L672 658 C679 694 656 720 620 720 L620 720 Z M421 720 C384 720 349 694 342 658 L341 651 C333 615 357 590 394 590 C430 590 464 615 472 651 L473 658 C480 694 457 720 421 720 L421 720 Z " />
<glyph glyph-name="aring" unicode="&#xe5;" horiz-adv-x="574" d="M402 570 C469 570 540 627 552 693 L552 695 C564 762 513 818 446 818 C379 818 308 762 296 695 L296 693 C284 627 335 570 402 570 L402 570 L402 570 Z M415 646 C388 646 371 667 376 693 L376 695 C381 721 405 742 432 742 C459 742 477 721 472 695 L472 693 C467 667 442 646 415 646 L415 646 Z M257 1 C257 1 257 1 257 1 C306 1 355 18 397 44 C398 20 415 1 442 1 C471 1 498 25 504 55 L572 446 C578 476 559 499 529 499 C503 499 479 481 470 457 C437 483 394 499 345 499 C279 499 213 471 162 426 C112 380 75 318 64 250 C51 183 67 121 101 75 C135 30 191 1 257 1 L257 1 Z M227 353 C256 378 290 394 326 394 C362 394 391 378 410 353 C430 327 440 291 432 250 C425 210 404 174 374 148 C346 122 311 107 276 107 C240 107 210 122 191 148 C171 174 162 210 169 250 C176 291 198 327 227 353 L227 353 Z " />
<glyph glyph-name="ae" unicode="&#xe6;" horiz-adv-x="954" d="M661 0 C752 0 810 21 871 79 C890 98 892 127 875 146 C873 148 840 181 802 144 C768 113 719 102 680 105 C645 108 607 127 590 151 C576 168 568 195 568 218 L893 218 C921 218 946 235 954 259 C955 261 956 266 956 268 C957 270 957 272 957 274 C974 411 887 510 754 510 C692 510 633 487 584 451 L585 457 C591 487 571 511 541 511 C514 511 489 493 480 468 C446 495 402 511 352 511 C284 511 217 482 165 436 C113 389 76 326 64 256 C51 187 67 124 102 77 C137 31 194 1 262 1 C312 1 362 18 405 45 C406 20 424 1 451 1 C481 1 509 26 515 56 L515 57 C551 21 601 0 661 0 L661 0 Z M231 361 C261 387 296 403 333 403 C369 403 399 387 419 361 C439 335 449 298 441 256 C434 215 412 178 382 152 C353 125 317 110 281 110 C245 110 214 125 194 152 C174 178 165 215 172 256 C179 298 202 335 231 361 L231 361 Z M736 413 C824 406 865 346 867 305 L578 305 C594 347 648 409 736 413 L736 413 Z " />
<glyph glyph-name="ccedilla" unicode="&#xe7;" horiz-adv-x="571" d="M299 0 C299 0 299 0 299 0 C360 0 420 20 470 55 C497 73 507 107 493 131 C479 155 446 159 419 141 C389 120 354 108 318 108 C233 108 178 175 192 255 C206 335 285 401 370 401 C406 401 437 389 459 369 C480 351 515 355 537 378 C560 402 561 436 541 455 C503 489 450 510 389 510 C246 510 109 397 83 255 C58 113 156 0 299 0 L299 0 Z M365 10 L274 10 L203 -93 C198 -100 195 -108 195 -116 C195 -137 241 -160 265 -160 C286 -160 296 -150 304 -131 L365 10 Z " />
<glyph glyph-name="egrave" unicode="&#xe8;" horiz-adv-x="584" d="M283 0 C373 0 429 21 489 77 C508 96 510 124 493 143 C491 145 459 177 421 141 C388 111 340 100 302 103 C268 106 230 124 214 148 C200 165 192 191 192 214 L511 214 C538 214 563 230 570 254 C571 256 572 261 572 263 C572 263 572 263 572 263 C572 263 572 263 572 263 C573 264 573 266 573 268 C590 403 505 500 374 500 C237 500 111 386 86 250 C61 114 146 1 283 0 L283 0 Z M357 405 C443 398 483 339 485 299 L202 299 C218 340 271 401 357 405 L357 405 Z M517 590 C535 590 548 598 548 611 C548 618 543 627 539 633 L482 721 C471 739 455 750 434 750 C402 750 362 730 362 711 C362 700 369 690 379 681 L447 617 C470 595 489 590 517 590 L517 590 Z " />
<glyph glyph-name="eacute" unicode="&#xe9;" horiz-adv-x="584" d="M283 0 C373 0 429 21 489 77 C508 96 510 124 493 143 C491 145 459 177 421 141 C388 111 340 100 302 103 C268 106 230 124 214 148 C200 165 192 191 192 214 L511 214 C538 214 563 230 570 254 C571 256 572 261 572 263 C572 263 572 263 572 263 C572 263 572 263 572 263 C573 264 573 266 573 268 C590 403 505 500 374 500 C237 500 111 386 86 250 C61 114 146 1 283 0 L283 0 Z M357 405 C443 398 483 339 485 299 L202 299 C218 340 271 401 357 405 L357 405 Z M352 590 C380 590 399 595 423 617 L490 681 C500 690 507 700 507 711 C507 730 467 750 435 750 C414 750 398 739 387 721 L330 633 C326 627 322 618 322 611 C322 598 335 590 352 590 L352 590 Z " />
<glyph glyph-name="ecircumflex" unicode="&#xea;" horiz-adv-x="584" d="M283 0 C373 0 429 21 489 77 C508 96 510 124 493 143 C491 145 459 177 421 141 C388 111 340 100 302 103 C268 106 230 124 214 148 C200 165 192 191 192 214 L511 214 C538 214 563 230 570 254 C571 256 572 261 572 263 C572 263 572 263 572 263 C572 263 572 263 572 263 C573 264 573 266 573 268 C590 403 505 500 374 500 C237 500 111 386 86 250 C61 114 146 1 283 0 L283 0 Z M357 405 C443 398 483 339 485 299 L202 299 C218 340 271 401 357 405 L357 405 Z M448 662 L486 617 C507 595 524 590 552 590 C568 590 583 597 587 610 C589 617 586 626 582 634 L541 717 C532 735 520 746 492 746 L456 746 C428 746 409 735 389 717 L298 634 C290 626 281 617 279 610 C275 597 285 590 300 590 C328 590 350 595 382 617 L448 662 Z " />
<glyph glyph-name="edieresis" unicode="&#xeb;" horiz-adv-x="584" d="M283 0 C373 0 429 21 489 77 C508 96 510 124 493 143 C491 145 459 177 421 141 C388 111 340 100 302 103 C268 106 230 124 214 148 C200 165 192 191 192 214 L511 214 C538 214 563 230 570 254 C571 256 572 261 572 263 C572 263 572 263 572 263 C572 263 572 263 572 263 C573 264 573 266 573 268 C590 403 505 500 374 500 C237 500 111 386 86 250 C61 114 146 1 283 0 L283 0 Z M357 405 C443 398 483 339 485 299 L202 299 C218 340 271 401 357 405 L357 405 Z M565 720 C528 720 493 694 486 658 L485 651 C477 615 501 590 538 590 C574 590 608 615 616 651 L617 658 C624 694 601 720 565 720 L565 720 Z M366 720 C329 720 294 694 287 658 L286 651 C278 615 302 590 339 590 C375 590 409 615 417 651 L418 658 C425 694 402 720 366 720 L366 720 Z " />
<glyph glyph-name="igrave" unicode="&#xec;" horiz-adv-x="249" d="M7 54 C2 24 22 -1 53 -1 C84 -1 113 24 118 54 L190 464 C196 494 175 519 145 519 C114 519 85 494 80 464 L7 54 L7 54 Z M202 590 C220 590 233 598 233 611 C233 618 228 627 224 633 L167 721 C156 739 140 750 119 750 C87 750 47 730 47 711 C47 700 54 690 64 681 L132 617 C155 595 174 590 202 590 L202 590 Z " />
<glyph glyph-name="iacute" unicode="&#xed;" horiz-adv-x="249" d="M105 54 C100 24 120 -1 151 -1 C182 -1 211 24 216 54 L288 464 C294 494 273 519 243 519 C212 519 183 494 178 464 L105 54 L105 54 Z M211 590 C239 590 258 595 282 617 L349 681 C359 690 366 700 366 711 C366 730 326 750 294 750 C273 750 257 739 246 721 L189 633 C185 627 181 618 181 611 C181 598 194 590 211 590 L211 590 Z " />
<glyph glyph-name="icircumflex" unicode="&#xee;" horiz-adv-x="249" d="M20 54 C15 24 35 -1 66 -1 C97 -1 126 24 131 54 L203 464 C209 494 188 519 158 519 C127 519 98 494 93 464 L20 54 L20 54 Z M212 662 L250 617 C271 595 288 590 316 590 C332 590 347 597 351 610 C353 617 350 626 346 634 L305 717 C296 735 284 746 256 746 L220 746 C192 746 173 735 153 717 L62 634 C54 626 45 617 43 610 C39 597 49 590 64 590 C92 590 114 595 146 617 L212 662 Z " />
<glyph glyph-name="idieresis" unicode="&#xef;" horiz-adv-x="249" d="M12 54 C7 24 27 -1 58 -1 C89 -1 118 24 123 54 L195 464 C201 494 180 519 150 519 C119 519 90 494 85 464 L12 54 L12 54 Z M312 720 C275 720 240 694 233 658 L232 651 C224 615 248 590 285 590 C321 590 355 615 363 651 L364 658 C371 694 348 720 312 720 L312 720 Z M113 720 C76 720 41 694 34 658 L33 651 C25 615 49 590 86 590 C122 590 156 615 164 651 L165 658 C172 694 149 720 113 720 L113 720 Z " />
<glyph glyph-name="eth" unicode="&#xf0;" horiz-adv-x="628" d="M482 445 C443 471 407 486 350 486 C219 486 103 390 81 249 C58 105 154 -12 309 -12 C482 -12 606 113 628 259 C642 348 626 416 579 503 L509 631 L586 662 C602 668 615 680 618 698 C621 719 607 737 586 737 C581 737 575 735 568 733 L475 695 L467 711 C458 727 445 738 423 738 C392 738 364 713 359 683 C358 671 359 661 364 651 L267 611 C250 605 237 593 235 575 C231 554 246 537 267 537 C273 537 279 538 284 540 L401 588 L482 445 Z M507 247 C494 161 423 91 330 91 C239 91 186 163 199 246 C213 332 282 397 374 397 C467 397 520 330 507 247 L507 247 Z " />
<glyph glyph-name="ntilde" unicode="&#xf1;" horiz-adv-x="613" d="M410 55 C405 25 424 1 454 1 C483 1 511 25 515 55 L557 291 C578 407 501 500 385 500 C346 500 307 489 272 469 C267 488 251 500 230 500 C201 500 173 476 167 447 L140 291 C140 291 140 291 140 291 L98 55 C93 25 113 1 142 1 C142 1 142 1 142 1 C142 1 142 1 142 1 C171 1 200 25 204 55 L247 291 C256 348 310 394 367 394 C424 394 462 348 452 291 L410 55 L410 55 Z M298 603 C310 625 321 635 344 635 C380 635 433 595 488 595 C541 595 569 628 590 686 C592 693 594 703 594 709 C594 726 577 742 557 742 C542 742 531 733 524 722 C512 700 501 690 478 690 C442 690 389 730 334 730 C281 730 253 697 232 639 C230 632 228 622 228 616 C228 599 245 583 265 583 C281 583 291 592 298 603 L298 603 Z " />
<glyph glyph-name="ograve" unicode="&#xf2;" horiz-adv-x="640" d="M353 500 C286 500 220 470 169 425 C119 379 82 317 70 249 C58 180 73 118 107 73 C143 27 198 -2 265 -2 C265 -2 265 -2 265 -2 C332 -2 398 27 448 73 C499 118 536 180 548 249 C560 317 545 379 511 425 C475 470 420 500 353 500 L353 500 Z M442 249 C434 208 412 171 384 146 C354 120 319 104 283 104 C248 104 218 120 198 146 C178 171 169 208 176 249 C184 289 206 326 234 351 C264 378 298 393 335 393 C370 393 400 378 419 351 C440 326 449 289 442 249 L442 249 L442 249 Z M477 590 C495 590 508 598 508 611 C508 618 503 627 499 633 L442 721 C431 739 415 750 394 750 C362 750 322 730 322 711 C322 700 329 690 339 681 L407 617 C430 595 449 590 477 590 L477 590 Z " />
<glyph glyph-name="oacute" unicode="&#xf3;" horiz-adv-x="640" d="M353 500 C286 500 220 470 169 425 C119 379 82 317 70 249 C58 180 73 118 107 73 C143 27 198 -2 265 -2 C265 -2 265 -2 265 -2 C332 -2 398 27 448 73 C499 118 536 180 548 249 C560 317 545 379 511 425 C475 470 420 500 353 500 L353 500 Z M442 249 C434 208 412 171 384 146 C354 120 319 104 283 104 C248 104 218 120 198 146 C178 171 169 208 176 249 C184 289 206 326 234 351 C264 378 298 393 335 393 C370 393 400 378 419 351 C440 326 449 289 442 249 L442 249 L442 249 Z M272 590 C300 590 319 595 343 617 L410 681 C420 690 427 700 427 711 C427 730 387 750 355 750 C334 750 318 739 307 721 L250 633 C246 627 242 618 242 611 C242 598 255 590 272 590 L272 590 Z " />
<glyph glyph-name="ocircumflex" unicode="&#xf4;" horiz-adv-x="640" d="M353 500 C286 500 220 470 169 425 C119 379 82 317 70 249 C58 180 73 118 107 73 C143 27 198 -2 265 -2 C265 -2 265 -2 265 -2 C332 -2 398 27 448 73 C499 118 536 180 548 249 C560 317 545 379 511 425 C475 470 420 500 353 500 L353 500 Z M442 249 C434 208 412 171 384 146 C354 120 319 104 283 104 C248 104 218 120 198 146 C178 171 169 208 176 249 C184 289 206 326 234 351 C264 378 298 393 335 393 C370 393 400 378 419 351 C440 326 449 289 442 249 L442 249 L442 249 Z M442 662 L480 617 C501 595 518 590 546 590 C562 590 577 597 581 610 C583 617 580 626 576 634 L535 717 C526 735 514 746 486 746 L450 746 C422 746 403 735 383 717 L292 634 C284 626 275 617 273 610 C269 597 279 590 294 590 C322 590 344 595 376 617 L442 662 Z " />
<glyph glyph-name="otilde" unicode="&#xf5;" horiz-adv-x="640" d="M353 500 C286 500 220 470 169 425 C119 379 82 317 70 249 C58 180 73 118 107 73 C143 27 198 -2 265 -2 C265 -2 265 -2 265 -2 C332 -2 398 27 448 73 C499 118 536 180 548 249 C560 317 545 379 511 425 C475 470 420 500 353 500 L353 500 Z M442 249 C434 208 412 171 384 146 C354 120 319 104 283 104 C248 104 218 120 198 146 C178 171 169 208 176 249 C184 289 206 326 234 351 C264 378 298 393 335 393 C370 393 400 378 419 351 C440 326 449 289 442 249 L442 249 L442 249 Z M305 603 C317 625 328 635 351 635 C387 635 440 595 495 595 C548 595 576 628 597 686 C599 693 601 703 601 709 C601 726 584 742 564 742 C549 742 538 733 531 722 C519 700 508 690 485 690 C449 690 396 730 341 730 C288 730 260 697 239 639 C237 632 235 622 235 616 C235 599 252 583 272 583 C288 583 298 592 305 603 L305 603 Z " />
<glyph glyph-name="odieresis" unicode="&#xf6;" horiz-adv-x="640" d="M353 500 C286 500 220 470 169 425 C119 379 82 317 70 249 C58 180 73 118 107 73 C143 27 198 -2 265 -2 C265 -2 265 -2 265 -2 C332 -2 398 27 448 73 C499 118 536 180 548 249 C560 317 545 379 511 425 C475 470 420 500 353 500 L353 500 Z M442 249 C434 208 412 171 384 146 C354 120 319 104 283 104 C248 104 218 120 198 146 C178 171 169 208 176 249 C184 289 206 326 234 351 C264 378 298 393 335 393 C370 393 400 378 419 351 C440 326 449 289 442 249 L442 249 L442 249 Z M533 720 C496 720 461 694 454 658 L453 651 C445 615 469 590 506 590 C542 590 576 615 584 651 L585 658 C592 694 569 720 533 720 L533 720 Z M334 720 C297 720 262 694 255 658 L254 651 C246 615 270 590 307 590 C343 590 377 615 385 651 L386 658 C393 694 370 720 334 720 L334 720 Z " />
<glyph glyph-name="divide" unicode="&#xf7;" horiz-adv-x="620" d="M517 300 C546 300 572 324 577 352 C581 380 561 404 532 404 L128 404 C99 404 73 380 69 352 C64 324 84 300 113 300 L517 300 Z M363 629 C325 629 290 599 285 563 L284 558 C278 521 305 491 343 491 C381 491 416 521 422 558 L423 563 C428 599 401 629 363 629 L363 629 Z M302 213 C264 213 229 183 223 146 L222 141 C217 104 244 75 282 75 C320 75 355 104 360 141 L361 146 C367 183 340 213 302 213 L302 213 Z " />
<glyph glyph-name="ugrave" unicode="&#xf9;" horiz-adv-x="613" d="M519 500 C490 500 462 477 457 447 L415 210 C405 154 351 108 294 108 C238 108 199 154 209 210 L251 447 C256 477 237 500 207 500 C178 500 151 477 145 447 L104 210 C83 95 160 1 276 1 C391 1 501 95 521 210 L562 447 C568 477 549 500 519 500 L519 500 Z M409 590 C427 590 440 598 440 611 C440 618 435 627 431 633 L374 721 C363 739 347 750 326 750 C294 750 254 730 254 711 C254 700 261 690 271 681 L339 617 C362 595 381 590 409 590 L409 590 Z " />
<glyph glyph-name="uacute" unicode="&#xfa;" horiz-adv-x="613" d="M519 500 C490 500 462 477 457 447 L415 210 C405 154 351 108 294 108 C238 108 199 154 209 210 L251 447 C256 477 237 500 207 500 C178 500 151 477 145 447 L104 210 C83 95 160 1 276 1 C391 1 501 95 521 210 L562 447 C568 477 549 500 519 500 L519 500 Z M316 590 C344 590 363 595 387 617 L454 681 C464 690 471 700 471 711 C471 730 431 750 399 750 C378 750 362 739 351 721 L294 633 C290 627 286 618 286 611 C286 598 299 590 316 590 L316 590 Z " />
<glyph glyph-name="ucircumflex" unicode="&#xfb;" horiz-adv-x="613" d="M519 500 C490 500 462 477 457 447 L415 210 C405 154 351 108 294 108 C238 108 199 154 209 210 L251 447 C256 477 237 500 207 500 C178 500 151 477 145 447 L104 210 C83 95 160 1 276 1 C391 1 501 95 521 210 L562 447 C568 477 549 500 519 500 L519 500 Z M424 662 L462 617 C483 595 500 590 528 590 C544 590 559 597 563 610 C565 617 562 626 558 634 L517 717 C508 735 496 746 468 746 L432 746 C404 746 385 735 365 717 L274 634 C266 626 257 617 255 610 C251 597 261 590 276 590 C304 590 326 595 358 617 L424 662 Z " />
<glyph glyph-name="udieresis" unicode="&#xfc;" horiz-adv-x="613" d="M519 500 C490 500 462 477 457 447 L415 210 C405 154 351 108 294 108 C238 108 199 154 209 210 L251 447 C256 477 237 500 207 500 C178 500 151 477 145 447 L104 210 C83 95 160 1 276 1 C391 1 501 95 521 210 L562 447 C568 477 549 500 519 500 L519 500 Z M505 720 C468 720 433 694 426 658 L425 651 C417 615 441 590 478 590 C514 590 548 615 556 651 L557 658 C564 694 541 720 505 720 L505 720 Z M306 720 C269 720 234 694 227 658 L226 651 C218 615 242 590 279 590 C315 590 349 615 357 651 L358 658 C365 694 342 720 306 720 L306 720 Z " />
<glyph glyph-name="yacute" unicode="&#xfd;" horiz-adv-x="588" d="M537 447 C540 465 534 481 521 490 C514 497 504 500 492 500 C474 500 456 490 443 475 C436 467 431 457 429 447 L388 207 C377 150 323 103 265 103 C207 103 169 150 179 207 L222 447 C227 477 207 500 177 500 C148 500 120 477 114 447 L72 207 C52 91 130 -4 246 -4 C281 -4 315 4 347 20 C320 -34 263 -71 205 -71 C184 -71 165 -66 149 -58 C125 -45 90 -56 72 -82 C55 -109 60 -141 84 -154 C113 -170 148 -179 186 -179 C319 -179 446 -71 469 62 L523 370 L537 447 L537 447 Z M309 590 C337 590 356 595 380 617 L447 681 C457 690 464 700 464 711 C464 730 424 750 392 750 C371 750 355 739 344 721 L287 633 C283 627 279 618 279 611 C279 598 292 590 309 590 L309 590 Z " />
<glyph glyph-name="ydieresis" unicode="&#xff;" horiz-adv-x="588" d="M537 447 C540 465 534 481 521 490 C514 497 504 500 492 500 C474 500 456 490 443 475 C436 467 431 457 429 447 L388 207 C377 150 323 103 265 103 C207 103 169 150 179 207 L222 447 C227 477 207 500 177 500 C148 500 120 477 114 447 L72 207 C52 91 130 -4 246 -4 C281 -4 315 4 347 20 C320 -34 263 -71 205 -71 C184 -71 165 -66 149 -58 C125 -45 90 -56 72 -82 C55 -109 60 -141 84 -154 C113 -170 148 -179 186 -179 C319 -179 446 -71 469 62 L523 370 L537 447 L537 447 Z M506 720 C469 720 434 694 427 658 L426 651 C418 615 442 590 479 590 C515 590 549 615 557 651 L558 658 C565 694 542 720 506 720 L506 720 Z M307 720 C270 720 235 694 228 658 L227 651 C219 615 243 590 280 590 C316 590 350 615 358 651 L359 658 C366 694 343 720 307 720 L307 720 Z " />
<glyph glyph-name="OE" unicode="&#x152;" horiz-adv-x="1152" d="M622 1 L624 2 C624 2 623 1 625 1 L949 1 C978 1 1009 26 1014 56 C1020 87 998 112 969 112 L698 112 L730 296 L963 296 C993 296 1023 321 1028 352 C1033 381 1013 407 983 407 L750 407 L782 590 L1053 590 C1082 590 1113 615 1118 646 C1124 677 1102 701 1073 701 L746 701 C715 701 687 677 681 646 L675 609 C673 611 672 612 672 614 C624 680 543 721 451 721 C355 721 260 680 188 614 C114 548 61 460 44 361 C26 262 48 173 98 108 C148 43 228 1 324 1 C416 1 512 43 582 108 C584 109 585 111 587 112 L577 56 C572 26 591 1 622 1 L622 1 L622 1 Z M515 187 C465 142 405 115 345 115 C281 115 229 142 195 187 C161 230 146 293 158 361 C170 429 207 492 257 536 C307 581 367 607 431 607 C491 607 543 581 577 536 C610 492 626 429 614 361 C602 293 564 230 515 187 L515 187 Z " />
<glyph glyph-name="oe" unicode="&#x153;" horiz-adv-x="1055" d="M658 0 C749 0 807 21 868 79 C887 98 889 127 872 146 C870 148 837 181 799 144 C765 113 716 102 677 105 C642 108 604 127 587 151 C573 168 565 195 565 218 L890 218 C918 218 943 235 951 259 C952 261 953 266 953 268 C954 270 954 272 954 274 C971 411 884 510 751 510 C668 510 589 469 533 408 C529 416 523 424 518 432 C482 478 426 508 358 508 C290 508 223 478 171 432 C120 385 82 322 70 253 C58 183 73 120 108 74 C144 27 200 -2 268 -2 C336 -2 403 27 454 74 C463 82 471 90 479 99 C513 39 577 0 658 0 L658 0 Z M448 253 C440 211 418 174 389 148 C359 122 323 106 287 106 C251 106 221 122 200 148 C180 174 171 211 178 253 C186 294 208 331 237 357 C267 384 302 399 339 399 C375 399 405 384 425 357 C446 331 455 294 448 253 L448 253 Z M733 413 C821 406 862 346 864 305 L575 305 C591 347 645 409 733 413 L733 413 Z " />
<glyph glyph-name="Scaron" unicode="&#x160;" horiz-adv-x="640" d="M483 848 L521 803 C542 781 559 776 587 776 C603 776 618 783 622 796 C624 803 621 812 617 820 L576 903 C567 921 555 932 527 932 L491 932 C463 932 444 921 424 903 L333 820 C325 812 316 803 314 796 C310 783 320 776 335 776 C363 776 385 781 417 803 L483 848 Z M83 98 C65 115 67 146 88 168 L88 168 C109 189 141 192 160 175 L160 175 C196 140 263 99 334 100 L334 100 C383 100 429 115 461 136 L461 136 C494 158 511 182 516 206 L516 206 C518 219 517 228 513 237 L513 237 C508 247 501 257 488 266 L488 266 C463 285 418 302 362 313 L362 313 L361 313 L360 313 C316 322 276 334 242 351 L242 351 C208 369 180 392 164 427 L164 427 C154 450 151 478 156 506 L156 506 C167 565 209 616 260 648 L260 648 C311 681 373 700 437 700 L437 700 C531 700 591 654 635 622 L635 622 C656 607 656 576 637 553 L637 553 C618 530 586 523 566 539 L566 539 C522 571 479 601 420 600 L420 600 C375 601 333 587 304 568 L304 568 C275 548 260 527 256 506 L256 506 C254 495 255 487 259 479 L259 479 C262 471 269 463 280 454 L280 454 C303 436 344 421 395 411 L395 411 L397 411 L397 411 C445 402 488 389 525 370 L525 370 C560 351 591 326 607 290 L607 290 C618 265 621 236 615 206 L615 206 C604 144 560 90 506 55 L506 55 C451 20 385 0 316 0 L316 0 C210 1 130 53 83 98 L83 98 L83 98 Z " />
<glyph glyph-name="scaron" unicode="&#x161;" horiz-adv-x="497" d="M388 654 L426 609 C447 587 464 582 492 582 C508 582 523 589 527 602 C529 609 526 618 522 626 L481 709 C472 727 460 738 432 738 L396 738 C368 738 349 727 329 709 L238 626 C230 618 221 609 219 602 C215 589 225 582 240 582 C268 582 290 587 322 609 L388 654 Z M71 70 C51 89 54 121 76 143 L76 143 C99 167 134 170 154 150 L154 150 C174 129 215 107 253 108 L253 108 C281 108 308 116 325 126 L325 126 C342 138 348 147 350 155 L350 155 C350 160 350 162 349 166 L349 166 C347 169 344 173 338 179 L338 179 C324 188 296 199 261 206 L261 206 L261 206 L261 206 L260 206 C230 212 201 220 177 232 L177 232 C156 245 133 263 121 291 L121 291 C114 309 111 330 114 353 L114 353 C123 398 156 437 192 462 L192 462 C231 486 276 500 321 500 L321 500 C390 500 433 466 461 444 L461 444 L461 444 C483 429 484 395 463 371 L463 371 C444 347 409 340 388 356 L388 356 C360 377 335 394 303 394 L303 394 C278 394 254 386 240 375 L240 375 C225 366 221 357 220 353 L220 353 C219 349 220 348 220 345 L220 345 C221 343 224 339 230 335 L230 335 C240 326 265 317 297 312 L297 312 L298 311 L299 311 C332 305 362 296 387 282 L387 282 C412 269 435 250 447 222 L447 222 C456 202 458 180 454 155 L454 155 C445 108 411 67 372 41 L372 41 C332 16 283 1 235 1 L235 1 C159 2 104 38 71 70 L71 70 L71 70 Z " />
<glyph glyph-name="Ydieresis" unicode="&#x178;" horiz-adv-x="716" d="M592 611 C614 636 615 670 593 688 C572 706 536 701 514 676 L300 440 L169 676 C155 701 121 706 93 688 C66 670 54 636 68 611 L225 328 L176 54 C171 24 191 -1 222 -1 C252 -1 282 24 287 54 L335 328 L592 611 L592 611 Z M497 920 C460 920 425 894 418 858 L417 851 C409 815 433 790 470 790 C506 790 540 815 548 851 L549 858 C556 894 533 920 497 920 L497 920 Z M298 920 C261 920 226 894 219 858 L218 851 C210 815 234 790 271 790 C307 790 341 815 349 851 L350 858 C357 894 334 920 298 920 L298 920 Z " />
<glyph glyph-name="florin" unicode="&#x192;" horiz-adv-x="506" d="M121 -7 C213 -7 269 36 288 143 L326 356 L425 356 C454 356 476 378 476 406 C476 434 454 457 425 457 L344 457 L356 526 C366 581 390 604 437 604 C447 604 457 602 461 602 C489 602 511 624 511 652 C511 680 490 700 466 703 C449 705 433 706 414 706 C306 706 258 652 239 551 L221 457 L170 457 C142 457 119 434 119 406 C119 378 142 356 170 356 L204 356 L169 161 C161 117 142 97 106 94 C76 92 56 71 56 44 C56 13 80 -7 121 -7 L121 -7 Z " />
<glyph glyph-name="circumflex" unicode="&#x2c6;" horiz-adv-x="500" d="M314 662 L352 617 C373 595 390 590 418 590 C434 590 449 597 453 610 C455 617 452 626 448 634 L407 717 C398 735 386 746 358 746 L322 746 C294 746 275 735 255 717 L164 634 C156 626 147 617 145 610 C141 597 151 590 166 590 C194 590 216 595 248 617 L314 662 Z " />
<glyph glyph-name="tilde" unicode="&#x2dc;" horiz-adv-x="500" d="M175 603 C187 625 198 635 221 635 C257 635 310 595 365 595 C418 595 446 628 467 686 C469 693 471 703 471 709 C471 726 454 742 434 742 C419 742 408 733 401 722 C389 700 378 690 355 690 C319 690 266 730 211 730 C158 730 130 697 109 639 C107 632 105 622 105 616 C105 599 122 583 142 583 C158 583 168 592 175 603 L175 603 Z " />
<glyph glyph-name="endash" unicode="&#x2013;" horiz-adv-x="528" d="M117 249 L429 249 C460 249 492 275 501 306 C509 338 490 364 459 364 L147 364 C116 364 83 338 75 306 C66 275 86 249 117 249 L117 249 Z " />
<glyph glyph-name="emdash" unicode="&#x2014;" horiz-adv-x="898" d="M116 249 L798 249 C829 249 862 275 872 306 C881 338 862 364 831 364 L149 364 C118 364 85 338 76 306 C66 275 85 249 116 249 L116 249 Z " />
<glyph glyph-name="quoteleft" unicode="&#x2018;" horiz-adv-x="230" d="M252 676 C252 692 242 704 221 704 C192 704 153 688 127 661 C95 630 77 583 77 515 L77 505 C77 451 105 417 149 417 C190 417 217 446 217 484 L217 492 C217 528 189 552 160 560 C158 604 182 635 228 649 C242 653 252 662 252 676 L252 676 Z " />
<glyph glyph-name="quoteright" unicode="&#x2019;" horiz-adv-x="230" d="M59 446 C59 430 69 418 90 418 C118 418 157 434 184 461 C215 492 233 539 233 607 L233 617 C233 671 205 705 161 705 C120 705 93 676 93 638 L93 630 C93 594 121 570 150 563 C152 518 128 487 82 473 C69 469 59 460 59 446 L59 446 Z " />
<glyph glyph-name="quotesinglbase" unicode="&#x201a;" horiz-adv-x="230" d="M54 -117 C54 -132 64 -145 85 -145 C113 -145 152 -128 179 -102 C210 -70 228 -24 228 44 L228 55 C228 109 201 143 156 143 C115 143 88 114 88 76 L88 68 C88 32 116 8 145 0 C147 -44 123 -75 77 -90 C64 -93 54 -103 54 -117 L54 -117 Z " />
<glyph glyph-name="quotedblleft" unicode="&#x201c;" horiz-adv-x="410" d="M484 676 C484 692 473 704 452 704 C424 704 385 688 358 661 C327 630 309 583 309 515 L309 505 C309 451 337 417 381 417 C422 417 449 446 449 484 L449 492 C449 528 421 552 392 560 C390 604 414 635 460 649 C474 653 484 662 484 676 L484 676 Z M252 676 C252 692 242 704 221 704 C192 704 153 688 127 661 C95 630 77 583 77 515 L77 505 C77 451 105 417 149 417 C190 417 217 446 217 484 L217 492 C217 528 189 552 160 560 C158 604 182 635 228 649 C242 653 252 662 252 676 L252 676 Z " />
<glyph glyph-name="quotedblright" unicode="&#x201d;" horiz-adv-x="410" d="M59 446 C59 430 69 418 90 418 C118 418 157 434 184 461 C215 492 233 539 233 607 L233 617 C233 671 205 705 161 705 C120 705 93 676 93 638 L93 630 C93 594 121 570 150 563 C152 518 128 487 82 473 C69 469 59 460 59 446 L59 446 Z M290 446 C290 430 300 418 321 418 C350 418 389 434 415 461 C447 492 465 539 465 607 L465 617 C465 671 437 705 393 705 C352 705 325 676 325 638 L325 630 C325 594 353 570 382 563 C384 518 360 487 314 473 C300 469 290 460 290 446 L290 446 Z " />
<glyph glyph-name="quotedblbase" unicode="&#x201e;" horiz-adv-x="410" d="M54 -117 C54 -132 64 -145 85 -145 C113 -145 152 -128 179 -102 C210 -70 228 -24 228 44 L228 55 C228 109 201 143 156 143 C115 143 88 114 88 76 L88 68 C88 32 116 8 145 0 C147 -44 123 -75 77 -90 C64 -93 54 -103 54 -117 L54 -117 Z M285 -117 C285 -132 295 -145 316 -145 C345 -145 384 -128 410 -102 C442 -70 460 -24 460 44 L460 55 C460 108 432 143 388 143 C347 143 320 114 320 76 L320 68 C320 32 348 8 377 0 C379 -44 355 -75 309 -90 C295 -93 285 -103 285 -117 L285 -117 Z " />
<glyph glyph-name="ellipsis" unicode="&#x2026;" horiz-adv-x="680" d="M181 50 C181 77 159 99 132 99 C106 99 82 77 82 50 C82 24 106 0 132 0 C159 0 181 24 181 50 L181 50 Z M399 50 C399 77 377 99 350 99 C324 99 300 77 300 50 C300 24 324 0 350 0 C377 0 399 24 399 50 L399 50 Z M617 50 C617 77 595 99 568 99 C542 99 518 77 518 50 C518 24 542 0 568 0 C595 0 617 24 617 50 L617 50 Z " />
<glyph glyph-name="trademark" unicode="&#x2122;" horiz-adv-x="690" d="M24 677 C22 664 31 654 43 654 L112 654 L72 425 C69 412 78 401 90 401 C104 401 116 412 119 425 L159 654 L227 654 C239 654 252 664 255 677 C256 690 248 701 235 701 L53 701 C39 701 27 690 24 677 L24 677 Z M383 692 C380 699 373 702 366 701 C365 701 365 701 365 701 C365 701 365 701 365 701 C365 701 365 701 365 701 C352 701 340 691 337 678 L293 426 C291 412 299 402 312 402 C326 402 338 412 341 426 L372 605 L418 520 C422 513 429 510 436 510 C436 510 436 510 436 510 C437 510 437 510 437 510 C444 510 452 513 458 520 L534 605 L503 426 C501 412 510 402 523 402 C536 402 548 412 550 426 L595 678 C597 691 589 701 576 701 C576 701 576 701 576 701 C576 701 576 701 576 701 C576 701 576 701 576 701 C567 702 560 699 554 692 L448 573 L383 692 L383 692 Z " />
</font>
</svg>
