<?xml version="1.0" encoding="utf-8"?>
<!-- Generator: Adobe Illustrator 24.0.3, SVG Export Plug-In . SVG Version: 6.00 Build 0)  -->
<svg version="1.1" id="Layer_1" xmlns="http://www.w3.org/2000/svg" xmlns:xlink="http://www.w3.org/1999/xlink" x="0px" y="0px"
	 viewBox="0 0 967.5 143.5" style="enable-background:new 0 0 967.5 143.5;" xml:space="preserve">
<path d="M180,72.6L150.1,102l-4.8,4.7h4.8H180h9.2h7.5l17.6-67.9l-25.1,25L180,72.6z M193.7,90.6l-2.2,9.1h-2.2h-4.8l4.8-4.8
	L193.7,90.6z"/>
<path d="M454.7,72.2L434.4,92l-14.5,14.2l14.5,0.5h20.3h8.8h7.5l18.5-67.9l-26,24.6L454.7,72.2z M468.3,90.2l-2.6,9.8l-2.2-0.3h-4.4
	l4.4-4.5L468.3,90.2z"/>
<path d="M698.6,69.5l2.2-1.3l1.8-1.8l1.8-1.8l2.2-4l6.6-11.4l13.2-22l0.9-2.2l0.4-1.8l-0.9-0.9l-0.4-1.1l-3.1-0.7h-2.6h-7.5h-14.5
	h-12.3L660,68.1l-2.6,4.4h2.6h28h4l3.1-1.1l3.1-1.4L698.6,69.5z M693.7,65.2l-1.8,0.5h-2.2h-3.1l11.9-20.8l1.3-3.2h10.6l-9.7,17.2
	l-1.8,2.2l-0.4,0.9l-1.8,1.4L693.7,65.2z"/>
<path d="M967.5,20.2L957.4,0l-84.5-0.4L870.7,3l-2.2-3.2h-1.8L839-0.6L783.5,95l-0.9,1.8l-1.8,2.2l-2.6,1.1l-3.5,0.6H769l48-82.9
	L804.6-0.3h-29.5l-11.9,20.6l-7.9-11.9l-2.2-2.7L750,2.6l-1.8-1.3L746,0.4L743.8,0l-2.6-0.4H713h-14.5h-26.4h-12.3h-18.9h-22.4h-9.7
	L603,0.5l-5.3,2.2l-4,2.6l-3.5,3.1l-3.1,3.5l-2.2,3.5l-3.5,6.6l-43.6,76.6l-4,7.9l-0.4,0.4l-1.3,3.1l-0.4,2.6l-0.4,3.1l0.4,2.2
	l0.4,2.6l1.8,2.6l6.6,10.1l3.1,3.5l3.5,3.5l2.2,1.3l2.6,1.3l2.6,0.9l4,0.4l49.3-0.4l3.5-6.1l4.4,5.8h26l17.6-31h0.4l2.6-5h15.4
	l0.9,4.9l3.1,15.8l10.1,15.3h27.3l-3.5-19.2l5.3,8l2.6,3.6l3.5,3.5l2.2,1.8l2.6,0.9l3.1,1l3.5,0.5H795l4.4-0.5l4-1.4l3.5-1.8
	l2.6-2.2l4.4,6.2l83.6,0.4l17.2-29.5l-1.3-2l-7.5-11.2h-18.5l67.8-57.9L967.5,20.2z M869.8,37l3.5,5.7h10.6l-17.2,14.5l-17.2,14.5
	l17.2-29.5L869.8,37z M594.2,122.8l-45.3,0.4l-4-0.4l-2.2-0.9L541,121l-1.8-1.3l-0.4-1.8l-0.9-2.2l0.4-3.1l0.9-3.5l2.2-4l2.2-4
	l42.7-74.8l3.5-5.7l2.2-3.5l2.6-3.1l3.1-3.1l3.5-2.2L606,7l4.8-0.4h7.5l22.4-1h18.9h0.9l-0.9,2L652.1,21l-11.4,0.6h-20.2h-2.2h-1.8
	l-3.5,0.8l-2.6,0.8l-2.6,1.7l-1.8,1.8l-1.8,2.2l-2.6,3.5L563.9,99l-1.3,2.6l-0.4,2.2l0.4,1.3l0.4,1.3l0.9,0.4l1.8,0.8h3.1h33.9
	l-2.6,4.9L594.2,122.8z M647.9,42l-7,12.2l-22.4,39.5l-4.4,6.9h-25.5l27.3-47.5l2.2-3.5l0.4-0.4l1.3-1.8l2.2-1.8l2.6-1.8l2.6-0.7
	l3.5-0.7h4h6.2L647.9,42z M687.1,122.7l-1.3-10.3l-5.3-25.7h-20.7h-11l-7.9,13.9l-7,11.9l-5.7,10.2h-18.9l5.7-10.1l3.5-6.1
	l22.4-39.2l18.9-33.2l15.8-28.4h22.9H713h26.4l2.6,0.7l2.6,0.6l2.6,1.4l1.8,1.4l0.9,2.7l0.4,3.1l-0.9,4l-2.6,4.8l-2.2,4l-22.5,39.2
	l-3.1,5.3l-2.2,3.5l-2.6,3.1l-1.3,1.3l-1.8,1.8l-4,2.2l-4.4,1.8l-4.4,0.2l-0.9,0.2h-1.8l2.6,13.9l2.2,11.9l1.8,10.2h-15.1V122.7z
	 M711.8,105.7h1.3h1.3l-1.3,3.3l-0.4,1L711.8,105.7z M795.8,116.6l-4,3.1l-2.2,0.9l-2.6,1.3l-3.1,0.4l-3.1,0.4l-51.5-0.4l-4-0.4
	l-2.2-0.9l-1.8-0.4l-1.4-1.3l-1.4-1.8v-2.2v-2.6l1-3.5l2.2-4.4l2.7-4.6l54.2-94.4H798l-53.9,92.7l-1.5,2.9v1.8v1.8l0.6,0.9l1.4,0.9
	l1.4,0.4l3.1,0.4l24.7,0.4l3.1-0.4l3.1-0.4l2.2-0.9l1.8-1.3l3.1-3.1l1.8-2.6l53.7-92.4H862L805.5,103l-2.2,4.4l-4,5.3L795.8,116.6z
	 M941.5,21.8l-74.8,64.7l-24.2,21.1h24.2h27.7l-2.6,4.9l-5.7,10.6l-78.4-0.4l5.7-10.1l2.6-4.8l50.6-43.3l51.1-42.9h-49.3l8.8-15
	h73.1L941.5,21.8z"/>
<path d="M535.2,16.7l-1.8-2.6L524.2,0l-27.7-0.4L482,14.1l-9.2-14.5h-9.2h-8.8h-20.3h-54.6h-35.2l-29.5,50.1l0.4-35.6l-9.7-14.5
	h-27.3l-16.3,29l-9.7,18l7.9-30.3L248.7-0.3h-26.9l-7.9,7.5l-4.8-7.5h-19.8H180h-29.9h-9.7l-4,0.4l-4,0.8l-3.1,1.3l-3,1.8l-2.6,2.2
	L121,8.8l-4,6.2L75.3,87.2l-4,5.3l-1.8,2.2l-2.6,2.2l-2.6,1.3l-3.1,1.8l-3.5,0.4l-3.5,0.4H16.3l-7.9,11.9L0,125.9l11.4,17.6
	l70.4,0.4l4-0.4l3.1-0.9l3.1-0.9l3.1-1.8l2.2-2.2l2.2-2.2l4-5.3l6.2,14l113.6-0.6h26.4l18-31.1l7.2-11.8l-0.2,12v10.1l13.7,20.9h26
	l17.6-31l41.4-72h11.4L343,112.8l-5.7,10.1l13.6,20.7l26.4,0.4l3.1-5.3l3.5,4.8l117.1,0.4l8.4-31.3l24.2-89.4L535.2,16.7z
	 M83.6,117.1l-4.4,3.1L77,121l-2.6,1.3l-3.1,0.4h-3.1H9.7l6.6-10.1l3.5-4.9h36.5l4-0.4l4-0.8l3.1-1.3l3.5-1.8l2.2-2.2l2.6-2.6
	l4.4-5.7l41.4-72.6l4-5.7l1.8-2.2l2.6-2.2l2.6-1.8l3.1-0.9l3.5-1.1l4-0.7h7l29.9,1h9.2H205l-9.7,15h-6.2H180h-26.4h-3.5h-0.4l-3.5,1
	l-3.1,1l-2.6,1.8l-2.2,2.2l-2.2,2.2l-4,5.7l-42.3,73.5l-2.6,3.5L83.6,117.1z M178.7,42.7l-28.6,27.5l-28.2,27.2L146.1,56l3.5-5.3
	l0.4-0.9l1.8-1.8l2.2-2.2l3.1-1.8l2.6-0.7l4-0.7h4L178.7,42.7L178.7,42.7z M208.6,122.8l-103.4,0.4l10.6-10.6l34.3-33.9l29.9-29
	l9.2-9l35.2-35h15.4l-28.6,106.8L208.6,122.8z M305.9,112.4l-5.7,10.3h-18.9l0.4-10.1l1.8-73.5l-21.1,37l-20.7,36.8l-5.7,10.8h-19
	l5.7-10.8l39.6-70.1L283,6.7h18l-2.2,84.7l49.3-85.7H367L305.9,112.4z M364,122.7h-19.4l5.7-10.3l53.3-91.7h-35.2L377.7,6l56.8,0.7
	h20.3h8.8h5.3l-5.3,8.4l-3.5,6.6h-5.3h-20.3h-12.3l-52.8,91L364,122.7z M454.3,40.7l-19.8,19.5l-19.8,19l19.8-34.4l2.6-4.1H454.3z
	 M485.5,112.7l-2.6,10.1l-103.4-0.5l9.7-9.7L434.5,69l20.3-19.4l8.8-8.8l36.1-34.3H515L485.5,112.7z"/>
</svg>
