<?xml version="1.0" encoding="utf-8"?>
<!-- Generator: Adobe Illustrator 25.2.0, SVG Export Plug-In . SVG Version: 6.00 Build 0)  -->
<svg version="1.1" id="Layer_1" xmlns="http://www.w3.org/2000/svg" xmlns:xlink="http://www.w3.org/1999/xlink" x="0px" y="0px"
	 viewBox="0 0 1672.65 288" style="enable-background:new 0 0 1672.65 288;" xml:space="preserve">
<g>
	<path d="M1640.94,116.87c-0.16-0.69,0.45-1.62,1.45-2.47c4.82-3.3,8.1-3.99,10.19-4.75c0.49-0.15,1.67-0.22,3.29-0.23v-8.3
		c-4.66,2.76-9.53,6.31-11.42,6.66c0.99-2.77,7.15-10.26,11.42-15.26V85.3c-6.7,6.37-18.88,18.46-23.58,26.72
		c-6.68,11.66-13.88,18.27-18.12,24.48c-4.24,6.2-29.94,27.06-31.45,25.66c-3.56-3.25,2.94-22.64,2.08-34.12
		c0.09-3.58-2.06-19.65,5.79-27.83c4.38-5.21,10.16-16.92,21.51-24.11c8.9-5.63,14.53-8.29,20.48-8.38
		c9.41-0.12,18.25-2.43,23.29-4.04v-5.16c-2.48,0.67-5.47,1.4-7.42,1.62c-3.23,0.41-10.68,2.47-12.73,1.19
		c4.05-1.85,11.86-9.21,14.96-11.2c0.95-0.6,2.88-1.81,5.19-3.01v-4.42c-1.62,0.62-3.09,1.2-4.04,1.61
		c-5.38,1.62-15.6,12.05-20.96,13.39c-3.56,0.9-11.8,4.43-14.91,5.56c4.74-6.7,5.22-10.25,14.68-13.35
		c3.87-2.37,7.38-6.73,10.5-10.83c-1.71-0.54-3.42-1.23-5.14-1.99c-3.1,3.75-5.8,7.31-8.01,7.69c1.53-2.41,3.17-5.85,4.6-9.33
		c-2.42-1.25-4.87-2.71-7.35-4.35c-0.4-0.26-0.77-0.5-1.16-0.74c-0.33,1.09-0.55,1.76-0.55,1.76s-1.95,4.9-3.43,7.34
		c-0.96,1.59-2.71,4.18-5.26,5.55c-1.05,0.59-4.36-9.37-5.98-22.54c-2.23-0.82-4.13-1.35-5.79-1.7c-0.81,18,5.72,30.14,4.87,31.83
		c-0.98,1.94-1.81,6.52-6.13,9.6c-4.3,3.09-11.58,8.13-13.53,10.09c-2.45,1.96-7.34,10.05-10.01,10.34
		c-0.88-2.53-1.44-8.31-1.93-11.74c-0.98-4.4-1.03-13.2-1.32-15.57c-0.31-2.38-1.15-11.78,0.13-17.52c0.71-3.12,1.86-7.46,2.99-11.6
		l-2.89-3.67c-0.02-0.01-0.03-0.04-0.08-0.07c-0.15-0.15-0.55-0.5-1.08-0.84c-1.47-0.91-3-1.38-4.82-1.4l-0.91,0.04
		c-2.52,7.78-5.36,19.14-4.92,30.09c-1.21,0.53-4.51-10.25-5.35-17.35c-0.68-3.15-0.55-6.86-0.12-10.31
		c-2.48,0.95-5.31,2.25-8.52,3.99c0.2,4.77,0.98,14.9,2.19,18.79c1.41,4.52,7.25,17.5,7.74,21.91c0.49,4.42,0.2,8.41-0.39,9.01
		c-0.59,0.58-3.81-4.41-8.32-9.8c-2.48-2.99-5.6-18.93-12.33-33.11c-2.16,1.27-4.3,2.4-6.43,3.35c3.86,11.08,9.67,26.45,7.44,26.26
		c-3.79-3.15-6.77-5.68-7.43-6.49c-1.39-1.77-12.1-6.54-20.41-9.65v8.21c5.57,2.08,14.11,5.63,17.47,9.76
		c4.42,5.39,21.08,19.16,24.05,25.99c1.95,4.47,4.93,11.26,4.75,17.5c-0.18,6.27-0.54,22.51-3.49,23.83
		c-2.88-0.82-5.26-2.71-8.64-4.54c-3.38-1.82-7.4-4.64-9.56-9.12c-2.15-4.45-10.79-17.87-15.05-20.49
		c-2.85-2.13-6.42-4.33-9.54-6.11v4.73c2.28,1.63,4.41,3.22,5.33,4.06c3.29,2.99,8.94,11.76,8.01,14.68
		c-2.63,0-10.58-6.17-13.34-8.36v7.51c6.39,4.63,19.59,14.44,18.67,15.92c-1.22,1.97-9.92,5.82-13.83,6.33
		c-1.11,0.13-2.82,0.2-4.83,0.29v6.69c1.39-0.55,5.14-2.16,7.7-2.44c0.15,2.18-1.72,3.61-2.92,5.7c-0.81,1.43-2.93,4.15-4.77,6.21
		v7.17c3.2-2.06,5.55-6.4,8.74-11.1c2.69-3.96,6.4-7.06,7.65-7.58c0.9-0.38,5.43-2.93,8.18-2.93c3.39,0,4.5,1.94,6.43,4.05
		c2.22,2.45,3.37,2.72,6.89,8c2.19,3.3,2.94,12.51,2.69,21.57c-0.18,7.12-7.17,45.1-3.75,75.19c13.76,5.57,25.59,11.87,35.35,18.77
		c5.09-3.61,10.74-7.03,16.95-10.28c-5.51-12.3-10.2-24.05-11.84-32c-2.83-13.73-2.95-24.1-2.34-27.82c1-6.13,5.63-13.65,8.34-16.92
		c1.58-1.88,7.52-4.85,10.97-4.44c6.27,0.76,14.86-0.12,17.38-0.68c0.47-1.3,0.81-3.33,0.81-4.67c-1.33-0.12-5.22,0.04-10.75-0.84
		c-5.43-0.87-6.76,0.03-6.92-2.43c-0.13-2.33,3.09-5.44,5.65-7.62c2.58-2.21,7.85-6.96,12.68-6.46c7.9,0.79,20.68-5.08,31.23-9.87
		v-5.25c-7.09,2.32-23.3,8.18-26.92,6.44c-1.21-0.58-2.52-0.67-2.09-3.11c0.45-2.45,5.96-14.4,9.13-15.59
		c2.08-0.77,6.55,0.44,9.8,0.9c3.23,0.47,7.79,0,7.79,0l2.29-0.18v-6.52c-1.98-0.13-3.59-0.2-3.86-0.2
		C1650.16,118.92,1642.41,117.62,1640.94,116.87z"/>
	<path d="M1598.3,9.62c-8.35-0.12-14.87,6.15-14.87,6.15s-4.88-6.18-14.33-6.15c-6.26,0-17.03,2.19-32.81,12.64
		c-8.9,5.92-17.16,8.8-25.2,8.8c-4.03,0-7.41-0.73-10.18-1.53v214.6c5.95,1.31,16.6,3.93,28.99,8.08
		c22.78,7.66,40.85,16.93,53.79,27.61c12.95-10.67,31-19.94,53.78-27.61c12.38-4.15,23.05-6.77,29.01-8.08V29.53
		c-2.78,0.8-6.16,1.53-10.18,1.53c-8.06,0-16.31-2.88-25.21-8.8C1615.33,11.82,1604.55,9.62,1598.3,9.62 M1598.3,3.46
		c8.16,0,20.04,2.95,36.21,13.67c9.05,5.99,16.14,7.75,21.8,7.75c7.81,0,12.85-3.36,16.33-3.52v227.77c0,0-58.87,10.81-88.95,38.86
		c-30.07-28.05-88.94-38.86-88.94-38.86V21.37c3.48,0.16,8.5,3.52,16.33,3.52c5.65,0,12.76-1.76,21.79-7.75
		c16.17-10.73,28.04-13.67,36.22-13.67c10.11,0,14.58,4.53,14.58,4.53S1588.17,3.46,1598.3,3.46"/>
</g>
<g>
	<g>
		<g>
			<g>
				<path d="M1210.58,62.78c0,0,8.15,0,11.35,0h41.45c6.19,0,12.99-4.85,15.11-10.78l14.16-39.63c2.12-5.93-1.22-10.78-7.41-10.78
					h-41.45c-6.2,0-13,4.85-15.11,10.78l-14.16,39.63C1213.5,54.86,1210.58,62.78,1210.58,62.78z"/>
			</g>
		</g>
	</g>
	<g>
		<g>
			<path d="M1456.22,93.79c-6.32-10.12-17.4-15.18-33.25-15.18h-59.2c-16.42,0-32.4,5.8-47.91,17.39
				c-15.53,11.59-26.32,25.9-32.4,42.91l-0.31,0.87c-10.76,30.12-21.52,60.18-23.19,64.61c-4.21,11.16-14.13,16.7-22.96,16.8
				c-8.73,0.1-15.53-6.56-12.92-16.49c0.16-0.75,0.35-1.48,0.62-2.16l32.79-91.76l6.17-17.29c2.58-7.56,1.17-15.08-9.87-15.08
				h-48.69c-6.55,18.38-32.99,92.54-42.17,117.99c0,0-3.01,8.27-3.14,8.54c-4.31,10.83-14.06,16.22-22.75,16.32
				c-9.22,0.1-16.3-7.32-12.41-18.19l44.39-124.46h-115.29c-16.43,0-32.34,7.05-46.43,17.47c-13.82,10.2-23.79,23.62-29.9,40.18
				c-11.17,31.28-22.73,63.59-24.47,68.2c-1.62,4.31-4.1,7.77-7.04,10.41c-2.6,2.44-5.61,4.19-8.96,5.21
				c-2.31,0.76-4.66,1.15-6.95,1.18c-9.22,0.1-16.3-7.32-12.41-18.19l44.46-124.64h-83.22c-25.96,24.1-69.07,65.64-104.89,65.81
				c-5.82,0.03-14.07-1.17-16.24-5.11c0.47-1.85,0.99-3.36,2.07-7.12c3.46-12,2.3-26.02-4.03-36c-7.36-11.59-19.21-17.39-35.6-17.39
				h-53.44c-16.39,0-32.33,5.8-47.82,17.39c-14.85,11.11-25.34,24.7-31.55,40.78c-12.84,35.91-23.8,66.48-25.16,70.11
				c-4.21,11.16-14.13,16.7-22.95,16.8c-9.22,0.1-16.31-7.32-12.42-18.18l67.41-192.78c2.02-6.15-1.19-11.13-7.26-11.13l-94.22-0.01
				c0,0-83.36,95.33-102.67,121.54C397,104,433.23,1.61,433.23,1.61s-85.07-0.03-89.12-0.03c-35,36.23-135.9,141.42-154.61,160.87
				c-12.87,13.38-37.8,21.27-57.91,21.21c-2.07-0.01-33.33-0.01-62.42-0.01L0,255.68c65.57,0,120.12,0,120.12,0
				c38.28,0,79.67-18.11,105.91-45.59c19.94-20.89,127.48-132.36,127.48-132.36l-63.45,177.92h47.06
				c0,0,134.41-139.77,170.19-177.92c-9.24,24.63-42.16,118.77-47.62,132.53c-5.45,13.76-0.05,25.31-0.05,25.31
				c5.47,12.91,27.55,20.08,43.97,20.08h16.01c28.74,0,39.56-9.35,47.78-17.56c6.03,9.8,16.39,17.59,32.78,17.59h56.65
				c16.39,0,32.38-5.78,48.03-17.39c15.63-11.58,26.5-25.89,32.58-42.92c0,0,7.36-19.87,10.35-28.99
				c2.84,2.17,10.88,4.89,18.85,4.83l-7.76,21.71c-6.25,17.5-4.94,35.37,0.08,43.4c4.71,7.54,16.42,19.37,32.84,19.37h51.13
				c13.74,0,26.42-3.35,38.05-10.02c3.55,6.24,9.03,9.97,20.46,10.01c4.2,0.02,9.31,0,13.54,0c12.98,0,26.6-3.72,39.18-18.37
				c0.35,0.77,1.16,2.1,1.47,2.74c6.49,10.43,18.11,15.63,34.82,15.63h44.52c14.61,0,28.47-4.94,41.54-14.83
				c5.98,9.89,11.34,14.83,25.71,14.83h15.05c17.53,0,30.86-7.85,38.17-14.89c6.5,9.72,15.98,14.89,30.47,14.89h26.07
				c17.69,0,37.41,1.41,52.62-18.32c10.42,15.18,20.87,18.32,40.98,18.32h54.12c15.84,0,30.56-5.06,44.1-15.19
				c13.56-10.12,23.22-23.26,34.83-55.77l1.32-3.7h-63.95c0,0-1.49,4.19-3.54,9.91c-4.76,13.32-8.28,13.88-17.18,13.88h-17.47
				c-9.31,0-12.3-4.66-8.96-13.98l15.75-44.09c3.34-9.33,9.66-13.99,18.97-13.99c0,0,11.13,0,15.98,0c6.63,0,13.62,2.61,9.36,12.1
				c-0.86,1.92-2.24,5.75-6.3,7.38c-5.63,2.25-10.39,1.44-14.67-1.71c-0.45,8.66,5.83,15.84,22.52,15.84
				c33.18,0,57.49-8.51,66.55-33.17c0.01,0,0.03,0,0.03,0C1462.83,117.05,1462.55,103.92,1456.22,93.79z M691.01,146.72l-15.9,44.11
				c-3.33,9.32-9.66,13.98-18.97,13.98h-15.28c-9.31,0-12.3-4.66-8.97-13.98l15.91-44.11c3.33-9.33,9.65-13.99,18.96-13.99h15.27
				C691.34,132.73,694.34,137.39,691.01,146.72z M857.88,191.32c-3.21,8.99-10.61,13.49-18.96,13.49h-12.08
				c-9.92,0-14.57-6.6-13.3-13.33c0.91-4.78,5.6-16.25,8.12-22.73c12.08-4.86,39.83-23.84,57.58-37.22
				C873.69,147.92,857.88,191.32,857.88,191.32z M1065.62,189.21c-1.47,4.11-4.13,7.7-8,10.79c-3.86,3.08-7.83,4.62-11.9,4.62
				h-14.83c-9.31,0-12.29-4.69-8.93-14.09l15.64-43.78c3.36-9.4,9.65-13.99,18.97-13.99h29.25L1065.62,189.21z"/>
		</g>
	</g>
</g>
<g>
	<path d="M654.23,44.35V4.64c0-1.29,0.45-2.38,1.35-3.29c0.9-0.9,2-1.35,3.29-1.35h16.24c4.56,0,8.03,0.95,10.44,2.84
		c2.4,2.07,3.61,4.86,3.61,8.38c0,2.23-0.47,4.12-1.42,5.67c-0.95,1.46-2.28,2.62-3.99,3.48c2.23,0.95,3.95,2.28,5.16,4
		c1.11,1.64,1.67,3.78,1.67,6.44c0,4.3-1.38,7.65-4.13,10.06c-2.83,2.32-6.83,3.48-11.99,3.48H654.23z M662.99,17.14h10.44
		c2.24,0,3.87-0.38,4.9-1.16c1.03-0.77,1.55-1.98,1.55-3.61c0-1.63-0.52-2.84-1.55-3.61c-0.86-0.69-2.54-1.03-5.03-1.03h-10.31
		V17.14z M662.99,36.35h10.83c2.4,0,4.25-0.47,5.54-1.42c1.21-0.86,1.8-2.32,1.8-4.38c0-2.07-0.6-3.57-1.8-4.51
		c-1.12-0.86-3.01-1.29-5.67-1.29h-10.7V36.35z"/>
	<path d="M718.87,33.78h6.45c-0.95,3.61-2.75,6.36-5.42,8.25c-2.66,1.98-6.01,2.97-10.05,2.97c-4.9,0-8.72-1.59-11.47-4.77
		c-2.75-3.09-4.12-7.52-4.12-13.28c0-5.5,1.33-9.8,4-12.89c2.75-3.18,6.57-4.77,11.47-4.77c5.16,0,9.15,1.55,11.99,4.64
		c2.75,3.18,4.13,7.61,4.13,13.28c0,0.35,0,0.65,0,0.9c0,0.26,0,0.43,0,0.51c0,0.43-0.05,0.73-0.13,0.9h-22.3
		c0.09,2.67,0.73,4.64,1.94,5.93c1.12,1.37,2.79,2.06,5.03,2.06c1.46,0,2.7-0.3,3.74-0.9c0.26-0.08,0.49-0.24,0.71-0.45
		c0.22-0.21,0.45-0.45,0.71-0.71c0.09-0.26,0.41-0.6,0.97-1.03C717.04,33.99,717.84,33.78,718.87,33.78z M703.4,23.72h13.15
		c-0.18-2.32-0.77-4.04-1.8-5.16c-1.12-1.2-2.71-1.8-4.77-1.8c-1.89,0-3.44,0.6-4.64,1.8C704.13,19.77,703.49,21.49,703.4,23.72z"/>
	<path d="M729.12,33h8.77c0.08,1.72,0.73,3.01,1.93,3.87c1.29,0.86,3.01,1.29,5.16,1.29c1.55,0,2.88-0.3,4-0.9
		c1.03-0.6,1.55-1.42,1.55-2.45c0-1.55-1.8-2.71-5.41-3.48c-1.55-0.25-2.71-0.52-3.48-0.77c-4.56-1.12-7.61-2.45-9.15-4
		c-1.72-1.55-2.58-3.61-2.58-6.19c0-3.27,1.24-5.97,3.74-8.12c2.58-1.98,5.93-2.97,10.05-2.97c4.47,0,8.04,0.99,10.7,2.97
		c2.49,2.15,3.82,4.94,4,8.38h-5.55c-1.63,0-2.88-0.73-3.74-2.19c-0.34-0.34-0.69-0.69-1.03-1.03c-1.03-0.78-2.45-1.16-4.25-1.16
		c-1.72,0-3.01,0.25-3.87,0.77c-0.78,0.51-1.16,1.29-1.16,2.32c0,1.37,2.23,2.53,6.7,3.48c0.52,0.17,0.97,0.3,1.36,0.39
		c0.38,0.08,0.75,0.13,1.1,0.13c4.38,1.12,7.43,2.4,9.15,3.87c1.63,1.55,2.45,3.61,2.45,6.19c0,3.78-1.37,6.7-4.12,8.77
		c-2.58,1.89-6.45,2.84-11.6,2.84c-4.9,0-8.55-0.99-10.96-2.97c-2.5-1.98-3.74-4.85-3.74-8.64V33z"/>
	<path d="M772.36,52.6c0,1.2-0.43,2.23-1.29,3.09c-0.86,0.86-1.89,1.29-3.09,1.29h-4.38v-32.1c0-6.02,1.76-10.12,5.28-12.31
		c3.52-2.19,7.35-3.29,11.47-3.29c2.15,0,4.32,0.41,6.51,1.23c2.19,0.82,3.93,2,5.22,3.54c2.58,3.35,3.87,7.65,3.87,12.89
		c0,5.42-1.29,9.8-3.87,13.15c-2.58,3.27-5.89,4.9-9.93,4.9c-2.15,0-4.04-0.39-5.67-1.16c-1.72-0.86-3.09-2.19-4.12-4V52.6z
		 M787.06,27.33c0-3.35-0.64-5.93-1.93-7.73c-1.29-1.81-3.14-2.71-5.54-2.71c-2.32,0-4.13,0.9-5.42,2.71
		c-1.21,1.63-1.8,4.21-1.8,7.73c0,3.27,0.65,5.71,1.93,7.34c1.29,1.81,3.14,2.71,5.54,2.71c2.23,0,3.99-0.9,5.28-2.71
		C786.41,32.87,787.06,30.42,787.06,27.33z"/>
	<path d="M804.39,41.25c-1.8-1.55-3.09-3.63-3.87-6.25c-0.77-2.62-1.16-5.35-1.16-8.18c0-2.32,0.32-4.64,0.97-6.96
		c0.64-2.32,1.65-4.25,3.03-5.8c2.23-2.58,5.11-4.1,8.64-4.57c3.52-0.47,6.7-0.2,9.54,0.84c3.26,1.29,5.67,3.53,7.22,6.7
		c1.46,2.83,2.2,6.15,2.2,9.92c0,2.75-0.31,5.12-0.91,7.09c-0.6,1.98-1.37,3.65-2.32,5.03c-2.07,2.83-4.68,4.6-7.87,5.29
		c-2.83,0.77-5.69,0.84-8.57,0.19C808.41,43.89,806.11,42.8,804.39,41.25z M810.58,18.56c-1.8,1.98-2.62,4.92-2.45,8.83
		s0.9,6.64,2.19,8.19c0.51,0.69,1.42,1.27,2.7,1.74c1.29,0.47,2.6,0.51,3.94,0.13c1.33-0.38,2.51-1.35,3.54-2.9
		c1.03-1.55,1.59-4.04,1.68-7.48c0-3.09-0.5-5.41-1.49-6.96c-0.99-1.55-2.12-2.53-3.41-2.97c-1.29-0.43-2.58-0.45-3.87-0.06
		C812.13,17.47,811.18,17.96,810.58,18.56z"/>
	<path d="M844.03,10.06v12.63l10.96-12.63h10.83l-12.25,13.15l12.37,21.14h-10.83l-6.32-11.6c-1.29-2.32-2.41-3.31-3.35-2.96
		c-0.94,0.35-1.42,0.86-1.42,1.55v4.77v8.25h-9.02V0h4.64c1.2,0,2.23,0.43,3.09,1.29c0.86,0.86,1.29,1.85,1.29,2.97V10.06z"/>
	<path d="M893.98,33.78h6.45c-0.94,3.61-2.75,6.36-5.42,8.25c-2.66,1.98-6.01,2.97-10.05,2.97c-4.9,0-8.72-1.59-11.47-4.77
		c-2.75-3.09-4.12-7.52-4.12-13.28c0-5.5,1.33-9.8,3.99-12.89c2.75-3.18,6.58-4.77,11.47-4.77c5.16,0,9.15,1.55,11.99,4.64
		c2.75,3.18,4.12,7.61,4.12,13.28c0,0.35,0,0.65,0,0.9c0,0.26,0,0.43,0,0.51c0,0.43-0.04,0.73-0.13,0.9h-22.3
		c0.08,2.67,0.73,4.64,1.93,5.93c1.11,1.37,2.79,2.06,5.03,2.06c1.46,0,2.7-0.3,3.74-0.9c0.26-0.08,0.5-0.24,0.71-0.45
		c0.21-0.21,0.45-0.45,0.71-0.71c0.08-0.26,0.41-0.6,0.97-1.03C892.15,33.99,892.94,33.78,893.98,33.78z M878.51,23.72h13.15
		c-0.17-2.32-0.77-4.04-1.81-5.16c-1.11-1.2-2.71-1.8-4.76-1.8c-1.89,0-3.44,0.6-4.64,1.8C879.24,19.77,878.59,21.49,878.51,23.72z"
		/>
	<path d="M922.46,44.35V4.64c0-1.29,0.45-2.38,1.35-3.29c0.9-0.9,2-1.35,3.28-1.35h16.25c4.55,0,8.04,0.95,10.44,2.84
		c2.41,2.07,3.61,4.86,3.61,8.38c0,2.23-0.47,4.12-1.42,5.67c-0.95,1.46-2.28,2.62-4,3.48c2.23,0.95,3.95,2.28,5.16,4
		c1.11,1.64,1.67,3.78,1.67,6.44c0,4.3-1.37,7.65-4.12,10.06c-2.84,2.32-6.83,3.48-11.99,3.48H922.46z M931.22,17.14h10.44
		c2.24,0,3.87-0.38,4.9-1.16c1.03-0.77,1.55-1.98,1.55-3.61c0-1.63-0.51-2.84-1.55-3.61c-0.86-0.69-2.53-1.03-5.03-1.03h-10.31
		V17.14z M931.22,36.35h10.83c2.41,0,4.25-0.47,5.54-1.42c1.2-0.86,1.8-2.32,1.8-4.38c0-2.07-0.6-3.57-1.8-4.51
		c-1.12-0.86-3.01-1.29-5.67-1.29h-10.7V36.35z"/>
	<path d="M964.03,0h4.64c1.2,0,2.23,0.43,3.09,1.29c0.86,0.86,1.29,1.89,1.29,3.09v2.71h-9.02V0z M964.03,10.06h4.64
		c1.2,0,2.23,0.43,3.09,1.29c0.86,0.86,1.29,1.89,1.29,3.09v29.91h-9.02V10.06z"/>
	<path d="M999.93,33.78h6.45c-0.95,3.61-2.75,6.36-5.42,8.25c-2.66,1.98-6.02,2.97-10.05,2.97c-4.9,0-8.73-1.59-11.48-4.77
		c-2.75-3.09-4.12-7.52-4.12-13.28c0-5.5,1.33-9.8,3.99-12.89c2.75-3.18,6.57-4.77,11.48-4.77c5.16,0,9.15,1.55,11.99,4.64
		c1.55,1.89,2.66,4.08,3.35,6.57h-9.02c-0.43-0.86-0.86-1.5-1.29-1.93c-1.11-1.2-2.7-1.8-4.77-1.8c-1.88,0-3.44,0.6-4.64,1.8
		c-1.55,1.72-2.32,4.55-2.32,8.51c0,3.95,0.77,6.75,2.32,8.38c1.11,1.37,2.78,2.06,5.02,2.06c1.47,0,2.71-0.3,3.74-0.9
		c0.25-0.08,0.5-0.24,0.71-0.45c0.21-0.21,0.45-0.45,0.71-0.71c0.17-0.26,0.51-0.6,1.03-1.03C998.12,33.99,998.9,33.78,999.93,33.78
		z"/>
	<path d="M1015.33,56.46v-7.09h2.45c1.72,0,3.07-0.41,4.06-1.23c0.98-0.82,1.18-2.12,0.58-3.93l-11.98-34.16h9.92l6.96,24.23
		l6.06-21.14c0.51-2.06,1.89-3.09,4.12-3.09h6.19l-13.15,39.06c-1.03,2.83-2.32,4.85-3.86,6.06c-1.55,1.03-4.08,1.55-7.61,1.55
		c-0.25,0-0.56,0-0.9,0c-0.35,0-0.65,0-0.91,0c-0.25-0.09-0.58-0.15-0.96-0.19C1015.91,56.48,1015.59,56.46,1015.33,56.46z"/>
	<path d="M1071.73,33.78h6.45c-0.95,3.61-2.75,6.36-5.42,8.25c-2.66,1.98-6.01,2.97-10.05,2.97c-4.9,0-8.73-1.59-11.48-4.77
		c-2.75-3.09-4.12-7.52-4.12-13.28c0-5.5,1.33-9.8,4-12.89c2.75-3.18,6.57-4.77,11.47-4.77c5.16,0,9.15,1.55,11.99,4.64
		c1.55,1.89,2.67,4.08,3.35,6.57h-9.03c-0.43-0.86-0.86-1.5-1.29-1.93c-1.11-1.2-2.7-1.8-4.76-1.8c-1.89,0-3.44,0.6-4.64,1.8
		c-1.55,1.72-2.32,4.55-2.32,8.51c0,3.95,0.77,6.75,2.32,8.38c1.12,1.37,2.79,2.06,5.02,2.06c1.47,0,2.71-0.3,3.74-0.9
		c0.26-0.08,0.5-0.24,0.71-0.45c0.21-0.21,0.45-0.45,0.71-0.71c0.16-0.26,0.51-0.6,1.03-1.03
		C1069.92,33.99,1070.69,33.78,1071.73,33.78z"/>
	<path d="M1082.62,0h4.64c1.2,0,2.23,0.41,3.09,1.23c0.86,0.81,1.29,1.82,1.29,3.03v40.09h-9.02V0z"/>
	<path d="M1119.67,33.78h6.45c-0.94,3.61-2.75,6.36-5.42,8.25c-2.66,1.98-6.01,2.97-10.05,2.97c-4.9,0-8.72-1.59-11.47-4.77
		c-2.75-3.09-4.13-7.52-4.13-13.28c0-5.5,1.33-9.8,4-12.89c2.75-3.18,6.57-4.77,11.47-4.77c5.16,0,9.15,1.55,12,4.64
		c2.74,3.18,4.12,7.61,4.12,13.28c0,0.35,0,0.65,0,0.9c0,0.26,0,0.43,0,0.51c0,0.43-0.05,0.73-0.12,0.9h-22.31
		c0.09,2.67,0.73,4.64,1.93,5.93c1.12,1.37,2.79,2.06,5.03,2.06c1.46,0,2.7-0.3,3.74-0.9c0.26-0.08,0.49-0.24,0.71-0.45
		c0.21-0.21,0.45-0.45,0.71-0.71c0.09-0.26,0.41-0.6,0.97-1.03C1117.85,33.99,1118.64,33.78,1119.67,33.78z M1104.2,23.72h13.16
		c-0.18-2.32-0.78-4.04-1.81-5.16c-1.12-1.2-2.71-1.8-4.77-1.8c-1.89,0-3.44,0.6-4.64,1.8C1104.93,19.77,1104.29,21.49,1104.2,23.72
		z"/>
	<path d="M1129.92,33h8.77c0.09,1.72,0.73,3.01,1.93,3.87c1.29,0.86,3.01,1.29,5.16,1.29c1.54,0,2.88-0.3,4-0.9
		c1.03-0.6,1.54-1.42,1.54-2.45c0-1.55-1.8-2.71-5.41-3.48c-1.55-0.25-2.71-0.52-3.48-0.77c-4.55-1.12-7.61-2.45-9.16-4
		c-1.72-1.55-2.58-3.61-2.58-6.19c0-3.27,1.24-5.97,3.74-8.12c2.58-1.98,5.93-2.97,10.06-2.97c4.47,0,8.04,0.99,10.7,2.97
		c2.49,2.15,3.82,4.94,4,8.38h-5.54c-1.64,0-2.89-0.73-3.75-2.19c-0.34-0.34-0.69-0.69-1.03-1.03c-1.03-0.78-2.45-1.16-4.25-1.16
		c-1.72,0-3.01,0.25-3.87,0.77c-0.77,0.51-1.16,1.29-1.16,2.32c0,1.37,2.24,2.53,6.71,3.48c0.52,0.17,0.97,0.3,1.35,0.39
		c0.39,0.08,0.75,0.13,1.1,0.13c4.38,1.12,7.43,2.4,9.16,3.87c1.63,1.55,2.44,3.61,2.44,6.19c0,3.78-1.37,6.7-4.12,8.77
		c-2.58,1.89-6.45,2.84-11.6,2.84c-4.9,0-8.55-0.99-10.96-2.97c-2.49-1.98-3.74-4.85-3.74-8.64V33z"/>
</g>
</svg>
