<?xml version="1.0" encoding="utf-8"?>
<!-- Generator: Adobe Illustrator 24.0.3, SVG Export Plug-In . SVG Version: 6.00 Build 0)  -->
<svg version="1.1" id="Layer_1" xmlns="http://www.w3.org/2000/svg" xmlns:xlink="http://www.w3.org/1999/xlink" x="0px" y="0px"
	 viewBox="0 0 389.6 43.6" style="enable-background:new 0 0 389.6 43.6;" xml:space="preserve">
<style type="text/css">
	.st0{fill-rule:evenodd;clip-rule:evenodd;}
</style>
<path class="st0" d="M278.5,9.8c-2.1,7.5-4.5,14.9-6.7,22.3c-9.1,0-18.1,0-27.2,0c2.4-7.5,4.6-15.3,7.5-22.3L278.5,9.8z M255.7,14
	c-1.8,4.3-3.2,9-4.7,13.7h16.8c1.5-4.5,2.9-9,4.1-13.7C266.6,14,261.1,14,255.7,14z"/>
<path class="st0" d="M14.6,0.2h74.8c2.1,3.5,3.7,7.5,4.1,12.7c2.3-3.4,2.9-8.7,4.7-12.7h62.9c3.2,7.5,6,15.4,9.1,23
	c4,1.3,6.1-0.4,10.3-4.5c3.2-3.2,12.7-13,12.7-13s4.2-4.7,6.1-5.2c3.2-0.9,9.3-0.3,13.7-0.3h88.8c1,1.8,2.2,4,2.5,6.5
	c0.8-1.5,2.4-6.5,2.4-6.5h82.9c-1,4.8-3.1,10.7-4.9,15.5c-7.4,0-17.3,0-23.1,0c-3.4,8.7-6.1,18.3-9.1,27.5c-11.8,0-23.7,0-35.5,0
	c3-9.3,6.1-18.4,9.3-27.5c-6.7,0-14.6,0-20.5,0c-1.6,5.8-3.5,10.8-6.5,15.8c-1.9,3.2-6.6,10.7-10.4,11.7c-4.1,1-12.9,0-17.6,0
	c-17.3,0-35.9,0-52.8,0c-3.1-5.9-3.4-17.2-0.8-23.8c-6.2,5.4-12.3,11.3-18.9,17.9c-2.1,2.1-4.9,5.8-7.1,6c-3.6,0.4-8.1-0.1-11.8-0.1
	c-12.3,0-24.7,0-37,0c-4.4-11.1-8.7-22.4-13-33.7c-3.8,10.8-6.9,22.4-10.4,33.7c-11.9,0-23.8,0-35.7,0c0.9-4.1,2.4-7.6,3.6-11.4
	c-13.5-0.5-47.9-1-47.9-1l3.4-11.7l17.9,0.1c1.3-1.7,2-6.2,2-6.2H43c0,0-7.9,26.3-9.3,30.1c-11.2,0-22.4,0-33.7,0
	C5,28.8,9.6,14.3,14.6,0.2L14.6,0.2z M101.9,4.6c-4.2,11-7.6,22.8-11.7,33.9h25.4c3.4-11.4,7.1-22.6,10.4-34.2
	C119,4.6,109.3,4,101.9,4.6z M307.8,11.1h25.1c-3,9.4-6.5,18.2-9.3,27.7h25.1c3.2-9.3,5.7-19.1,9.3-28c7.3,0.6,15.6,0.1,23.3,0.3
	c0.8-2,2.1-4.7,2.1-6.7c-24.4,0-48.9,0-73.3,0C309,6.3,308.4,8.7,307.8,11.1z M18.5,4.9c-2.1,4.1-4.1,11.3-6,17.1
	c-1.8,5.6-3.6,11.2-5.4,16.6h23.8c3.1-9.8,6.2-19.5,9.6-29h28.2c-0.2,3.6-2.1,10.4-4.2,13.3c-5.8,0-13-0.1-18.8-0.1
	c-0.7,2.3-0.7,1.6-1.4,3.9C57.5,26.7,72,27,85.2,27c3.8-4.3,5.1-16.4,1.6-22C66.2,4.9,39.6,4.9,18.5,4.9z M133.7,4.6
	c4,11.5,8.3,22.8,12.4,34.2h33.4c3.3,0,7.9,0.3,11.1,0c1.1-0.1,3.3-2.5,4.7-3.9c9.9-9.7,19.5-18.7,28.8-28.2
	c0.5-0.5,1.6-1.2,1.3-2.1c-4.2,0-7.9,0-11.7,0c-3.9,0-9.4-0.5-12.5,0.4c-1.7,0.5-4.2,3.2-5.8,4.8c-4.7,4.7-7.1,7.8-11.5,12.2
	c-1.7,1.7-5.3,5.6-7.1,5.8c-3.3,0.4-6.6,0.1-9.8,0.2c-2.9-7.9-6-15.6-9.1-23.3C150,4.6,141.8,4.6,133.7,4.6z M235,4.6
	c-8.1,6.3-17.9,20-12.2,33.9H271c4.4,0,12.5,1,16.3,0c3.1-0.8,6.7-7,8.5-9.8c3.9-6,7.5-16.9,2.6-24.1C277.3,4.6,256.1,4.6,235,4.6z"
	/>
</svg>
