<?xml version="1.0" encoding="utf-8"?>
<!-- Generator: Adobe Illustrator 24.0.3, SVG Export Plug-In . SVG Version: 6.00 Build 0)  -->
<svg version="1.1" id="Layer_1" xmlns="http://www.w3.org/2000/svg" xmlns:xlink="http://www.w3.org/1999/xlink" x="0px" y="0px"
	 viewBox="0 0 54.3 6.6" style="enable-background:new 0 0 54.3 6.6;" xml:space="preserve">
<path d="M45,0h-4.6l-2.3,6.5h4.5L45,0z"/>
<path d="M44.2,3l2.7,3.5h5.2l-3-3.5l5.2-3H49L44.2,3z"/>
<path d="M39,1.2L39.4,0H27.8l-1.6,4.4c-0.1,0.3-0.1,0.6,0.1,0.9C26.4,5.4,26.9,6,27,6.1c0.2,0.2,0.4,0.4,0.8,0.4h9.4l0.4-1.2h-6.5
	c-0.4,0-0.6-0.3-0.5-0.6l0.2-0.9H38l0.4-1.2h-7.2l0.5-1.3L39,1.2z"/>
<path d="M25.6,0H14l-2.3,6.5h4.4L18,1.3h3.3c0.4,0,0.5,0.3,0.4,0.5c-0.1,0.3-0.2,0.6-0.3,0.8c-0.1,0.3-0.4,0.5-0.8,0.5s-3.1,0-3.1,0
	l2.7,3.5h5.1L23,4h1.4c0.6,0,1-0.3,1.2-0.8s0.6-1.7,0.8-2.1C26.6,0.4,26.2,0,25.6,0"/>
<path d="M13.2,0H0.5L0,1.2h4.4L2.5,6.5h4.3l1.9-5.3h4L13.2,0z"/>
</svg>
