<?xml version="1.0" encoding="utf-8"?>
<!-- Generator: Adobe Illustrator 24.0.3, SVG Export Plug-In . SVG Version: 6.00 Build 0)  -->
<svg version="1.1" id="Layer_1" xmlns="http://www.w3.org/2000/svg" xmlns:xlink="http://www.w3.org/1999/xlink" x="0px" y="0px"
	 viewBox="0 0 639.2 89.7" style="enable-background:new 0 0 639.2 89.7;" xml:space="preserve">
<style type="text/css">
	.st0{fill-rule:evenodd;clip-rule:evenodd;}
</style>
<g>
	<path class="st0" d="M43.1,51.2c-2.9-2.1-6.2-3.8-9.9-3.8c-7.4,0-13.2,5.7-13.2,13.2c0,7.8,5.6,13.3,13.5,13.3
		c3.4,0,7.1-1.4,9.6-3.7v16.3c-4.2,2.1-8.9,3.1-13.5,3.1c-16.1,0-29.5-12-29.5-28.4c0-17.5,13.3-29.5,30.4-29.5
		c4.4,0,8.9,1.1,12.7,3.2L43.1,51.2z"/>
	<path class="st0" d="M114.4,87.9H95.1v-6h-0.2c-3.4,5.4-10.1,7.8-16.4,7.8c-16.1,0-27.4-13.4-27.4-29s11.1-28.9,27.2-28.9
		c6.2,0,12.8,2.3,16.8,7.1v-5.3h19.3L114.4,87.9z M71,60.8C71,67.7,75.6,73,83.4,73s12.4-5.3,12.4-12.2c0-6.7-4.6-12.3-12.4-12.3
		S71,54.1,71,60.8z"/>
	<path class="st0" d="M146.5,40.5h0.2c4.4-6.6,9.8-8.8,17.4-8.8c14.6,0,20.4,9.2,20.4,22.5v33.6h-19.3V61.3c0-5.2,0.8-14.3-8.7-14.3
		c-7.8,0-10.1,5.8-10.1,12.6v28.2h-19.3V33.5h19.3v7L146.5,40.5z"/>
	<path class="st0" d="M216.4,40.5h0.2c4.4-6.6,9.8-8.8,17.4-8.8c14.6,0,20.4,9.2,20.4,22.5v33.6h-19.3V61.3c0-5.2,0.8-14.3-8.7-14.3
		c-7.8,0-10.1,5.8-10.1,12.6v28.2H197V33.5h19.3v7L216.4,40.5z"/>
	<path class="st0" d="M328.5,60.8c0,18.4-15.2,28.9-32.7,28.9c-17.4,0-32.7-10.4-32.7-28.9s15.2-29,32.7-29S328.5,42.2,328.5,60.8z
		 M283.4,60.8c0,6.9,4.6,12.2,12.4,12.2s12.4-5.3,12.4-12.2c0-6.7-4.6-12.3-12.4-12.3S283.4,54.1,283.4,60.8z"/>
	<path class="st0" d="M356.4,40.5h0.2c4.4-6.6,9.8-8.8,17.4-8.8c14.6,0,20.4,9.2,20.4,22.5v33.6h-19.3V61.3c0-5.2,0.8-14.3-8.7-14.3
		c-7.8,0-10.1,5.8-10.1,12.6v28.2H337V33.5h19.3v7L356.4,40.5z"/>
	<path class="st0" d="M448,81.8h-0.2c-3.4,5.4-10.1,7.8-16.4,7.8c-16.1,0-27.4-13.4-27.4-29s11.1-28.9,27.2-28.9
		c6.2,0,12.8,2.3,16.8,7.1V0h19.3v87.9H448V81.8z M423.8,60.8c0,6.9,4.6,12.2,12.4,12.2s12.4-5.3,12.4-12.2
		c0-6.7-4.6-12.3-12.4-12.3S423.8,54.1,423.8,60.8z"/>
	<path class="st0" d="M538.7,87.9h-19.3v-6h-0.2c-3.4,5.4-10.1,7.8-16.4,7.8c-16.1,0-27.4-13.4-27.4-29s11.1-28.9,27.2-28.9
		c6.2,0,12.8,2.3,16.8,7.1v-5.3h19.3V87.9z M495.3,60.8c0,6.9,4.6,12.2,12.4,12.2s12.4-5.3,12.4-12.2c0-6.7-4.6-12.3-12.4-12.3
		C499.8,48.5,495.3,54.1,495.3,60.8L495.3,60.8z"/>
	<path class="st0" d="M570.7,87.9h-19.2V0h19.2V87.9z"/>
	<path class="st0" d="M639.2,63.9h-40.5c0,7.8,4.1,12.1,12.1,12.1c4.1,0,7.1-1.4,9.2-5h18.5c-3.1,12.8-15.2,18.6-27.6,18.6
		c-18,0-31.4-10.2-31.4-28.9c0-18.1,12.4-29,30.1-29c18.8,0,29.7,11.6,29.7,30.2L639.2,63.9z M621.3,52.8c-1-5.2-5.7-8.6-10.9-8.6
		c-5.6,0-10.3,3-11.4,8.6H621.3z"/>
</g>
</svg>
