<?xml version="1.0" encoding="UTF-8"?>
<svg width="4.69in" height=".71in" data-name="Layer 1" viewBox="0 0 337.73 51.06" xmlns="http://www.w3.org/2000/svg">
    <defs>
        <style>.cls-1 {
            fill: #71767a;
            }

            .cls-2 {
            fill: #779221;
            }

            .cls-3 {
            fill: #fff;
            }
        </style>
    </defs>
    <title>logo</title>
    <path class="cls-1" transform="translate(-11.78 -43.18)"
          d="M110.39,62.5c1.26.57,1.88,1.3,1.88,2.19a1.58,1.58,0,0,1-.39,1,1.27,1.27,0,0,1-1,.46,1.68,1.68,0,0,1-.74-.14c-.18-.09-.42-.24-.73-.44a4,4,0,0,0-.69-.48,4.69,4.69,0,0,0-1.22-.34,8.72,8.72,0,0,0-1.44-.14,6.63,6.63,0,0,0-3.31.82,5.79,5.79,0,0,0-2.23,2.27A6.63,6.63,0,0,0,99.72,71a6.78,6.78,0,0,0,.77,3.25,5.71,5.71,0,0,0,2.18,2.26,6.27,6.27,0,0,0,3.2.82,7,7,0,0,0,3-.55,7.74,7.74,0,0,0,.69-.44,3.66,3.66,0,0,1,.63-.41,1.67,1.67,0,0,1,1.79.29,1.5,1.5,0,0,1,.42,1.11,1.9,1.9,0,0,1-1,1.42,7.93,7.93,0,0,1-2.56,1.14,12.66,12.66,0,0,1-3.44.45,9.41,9.41,0,0,1-4.82-1.22,8.31,8.31,0,0,1-3.22-3.35A10.06,10.06,0,0,1,96.3,71a9.64,9.64,0,0,1,1.19-4.76,8.53,8.53,0,0,1,3.31-3.35,9.57,9.57,0,0,1,4.85-1.22A11.51,11.51,0,0,1,110.39,62.5Z"/>
    <path class="cls-1" transform="translate(-11.78 -43.18)"
          d="m132.53 75.79a8.92 8.92 0 0 1-3.44 3.32 10.2 10.2 0 0 1-9.6 0 8.92 8.92 0 0 1-3.44-3.32 9.15 9.15 0 0 1-1.26-4.79 9.37 9.37 0 0 1 1.26-4.82 8.86 8.86 0 0 1 3.44-3.35 10.2 10.2 0 0 1 9.6 0 8.86 8.86 0 0 1 3.44 3.35 9.37 9.37 0 0 1 1.26 4.82 9.15 9.15 0 0 1-1.26 4.79zm-3-8.08a5.78 5.78 0 0 0-2.19-2.25 6.26 6.26 0 0 0-6.16 0 5.78 5.78 0 0 0-2.18 2.25 6.67 6.67 0 0 0-0.81 3.3 6.5 6.5 0 0 0 0.81 3.25 6 6 0 0 0 2.19 2.24 6.33 6.33 0 0 0 6.16 0 6 6 0 0 0 2.19-2.24 6.5 6.5 0 0 0 0.81-3.25 6.67 6.67 0 0 0-0.79-3.3z"/>
    <path class="cls-1" transform="translate(-11.78 -43.18)"
          d="M140.41,79.49a1.76,1.76,0,0,1-1.22.47,1.68,1.68,0,0,1-1.21-.47,1.6,1.6,0,0,1-.49-1.17v-22a1.54,1.54,0,0,1,.51-1.16,1.69,1.69,0,0,1,1.22-.48,1.67,1.67,0,0,1,1.21.48,1.59,1.59,0,0,1,.48,1.16v22A1.57,1.57,0,0,1,140.41,79.49Z"/>
    <path class="cls-1" transform="translate(-11.78 -43.18)"
          d="m162.35 75.79a8.9 8.9 0 0 1-3.43 3.32 10.22 10.22 0 0 1-9.61 0 8.9 8.9 0 0 1-3.43-3.32 9.15 9.15 0 0 1-1.26-4.79 9.37 9.37 0 0 1 1.26-4.82 8.83 8.83 0 0 1 3.43-3.35 10.22 10.22 0 0 1 9.61 0 8.83 8.83 0 0 1 3.43 3.35 9.37 9.37 0 0 1 1.26 4.82 9.15 9.15 0 0 1-1.26 4.79zm-3-8.08a5.81 5.81 0 0 0-2.2-2.25 6.24 6.24 0 0 0-6.15 0 5.81 5.81 0 0 0-2.2 2.25 6.77 6.77 0 0 0-0.8 3.29 6.6 6.6 0 0 0 0.8 3.25 6 6 0 0 0 2.2 2.25 6.31 6.31 0 0 0 6.15 0 6 6 0 0 0 2.2-2.24 6.5 6.5 0 0 0 0.85-3.26 6.67 6.67 0 0 0-0.81-3.29z"/>
    <path class="cls-1" transform="translate(-11.78 -43.18)"
          d="M178.58,62.11a1.34,1.34,0,0,1,.68,1.14,1.65,1.65,0,0,1-.45,1.25,1.54,1.54,0,0,1-1.09.43c-.22,0-.82-.2-1-.21a4.38,4.38,0,0,0-1.12,0,6.11,6.11,0,0,0-1.89.69,5.43,5.43,0,0,0-2.08,1.81,4.84,4.84,0,0,0-.66,2.86v8.23a1.56,1.56,0,0,1-.49,1.17,1.72,1.72,0,0,1-1.24.47A1.65,1.65,0,0,1,168,79.5a1.6,1.6,0,0,1-.47-1.18V63.69a1.56,1.56,0,0,1,.49-1.16,1.63,1.63,0,0,1,1.2-.48,1.69,1.69,0,0,1,1.24.48,1.56,1.56,0,0,1,.49,1.16v1.75a6.62,6.62,0,0,1,2.37-2.72,6.74,6.74,0,0,1,3.6-1.08A2.83,2.83,0,0,1,178.58,62.11Z"/>
    <path class="cls-1" transform="translate(-11.78 -43.18)"
          d="M197.16,62.28a1.56,1.56,0,0,1,.49,1.21V78.32a1.56,1.56,0,0,1-.49,1.17,1.72,1.72,0,0,1-1.24.47,1.65,1.65,0,0,1-1.22-.46,1.6,1.6,0,0,1-.47-1.18v-.89a7.66,7.66,0,0,1-2.55,2,7.49,7.49,0,0,1-3.49.84,8.41,8.41,0,0,1-7.58-4.53,10.78,10.78,0,0,1,0-9.61,8.47,8.47,0,0,1,3.11-3.33,8.24,8.24,0,0,1,4.36-1.2,8.39,8.39,0,0,1,3.54.76,7.37,7.37,0,0,1,2.61,1.91v-.82a1.66,1.66,0,0,1,.47-1.2,1.63,1.63,0,0,1,1.22-.48A1.72,1.72,0,0,1,197.16,62.28Zm-5.57,14.2a5.75,5.75,0,0,0,2-2.26,7.51,7.51,0,0,0,0-6.46,5.85,5.85,0,0,0-2-2.27,5.48,5.48,0,0,0-3-.84,5.5,5.5,0,0,0-5.05,3.08,7.48,7.48,0,0,0,0,6.49,5.76,5.76,0,0,0,8.06,2.26Z"/>
    <path class="cls-1" transform="translate(-11.78 -43.18)"
          d="M218.89,55.13a1.54,1.54,0,0,1,.49,1.18v22a1.56,1.56,0,0,1-.49,1.17,1.71,1.71,0,0,1-1.24.47,1.65,1.65,0,0,1-1.22-.46,1.6,1.6,0,0,1-.47-1.18v-.95a7.21,7.21,0,0,1-2.54,2.08,7.46,7.46,0,0,1-3.5.86,8.36,8.36,0,0,1-4.43-1.2,8.59,8.59,0,0,1-3.13-3.33A10,10,0,0,1,201.21,71a10.18,10.18,0,0,1,1.13-4.8,8.54,8.54,0,0,1,3.11-3.33,8.53,8.53,0,0,1,7.88-.44A7.55,7.55,0,0,1,216,64.34v-8a1.6,1.6,0,0,1,.47-1.18,1.69,1.69,0,0,1,1.22-.46A1.74,1.74,0,0,1,218.89,55.13Zm-5.57,21.35a5.75,5.75,0,0,0,2.05-2.26,7.56,7.56,0,0,0,0-6.48,5.78,5.78,0,0,0-2.05-2.27,5.64,5.64,0,0,0-3-.82,5.49,5.49,0,0,0-5.05,3.09,7.46,7.46,0,0,0,0,6.48,5.76,5.76,0,0,0,8.06,2.26Z"/>
    <path class="cls-1" transform="translate(-11.78 -43.18)"
          d="M240.32,75.79a8.92,8.92,0,0,1-3.44,3.32,10.2,10.2,0,0,1-9.6,0,8.85,8.85,0,0,1-3.44-3.32A9.15,9.15,0,0,1,222.58,71a9.37,9.37,0,0,1,1.26-4.82,8.79,8.79,0,0,1,3.44-3.35,10.2,10.2,0,0,1,9.6,0,8.86,8.86,0,0,1,3.44,3.35A9.37,9.37,0,0,1,241.58,71,9.15,9.15,0,0,1,240.32,75.79Zm-3-8.08a5.74,5.74,0,0,0-2.2-2.25,5.94,5.94,0,0,0-3.07-.81,6,6,0,0,0-3.08.81,5.78,5.78,0,0,0-2.19,2.25A6.67,6.67,0,0,0,226,71a6.5,6.5,0,0,0,.81,3.25A6,6,0,0,0,229,76.5a6.1,6.1,0,0,0,3.08.8,6,6,0,0,0,3.07-.8,5.92,5.92,0,0,0,2.2-2.24,6.5,6.5,0,0,0,.81-3.25A6.67,6.67,0,0,0,237.35,67.71Z"/>
    <path class="cls-1" transform="translate(-11.78 -43.18)"
          d="M272.62,71.3a1.55,1.55,0,0,1-.5-1.18,1.47,1.47,0,0,1,.5-1.13,1.84,1.84,0,0,1,1.23-.44h6.9A1.68,1.68,0,0,1,282,69a1.57,1.57,0,0,1,.48,1.18,1.49,1.49,0,0,1-.48,1.13,1.75,1.75,0,0,1-1.21.44h-6.9A1.76,1.76,0,0,1,272.62,71.3Z"/>
    <path class="cls-1" transform="translate(-11.78 -43.18)"
          d="M299,62.84a8.37,8.37,0,0,1,3.11,3.32,9.9,9.9,0,0,1,1.14,4.78,10.15,10.15,0,0,1-1.14,4.82A8.32,8.32,0,0,1,299,79.11a8.23,8.23,0,0,1-4.35,1.2,8.31,8.31,0,0,1-6.12-2.74v1a1.59,1.59,0,0,1-.48,1.17,1.75,1.75,0,0,1-1.25.47,1.65,1.65,0,0,1-1.2-.46,1.54,1.54,0,0,1-.49-1.18V56.31a1.6,1.6,0,0,1,.47-1.18,1.69,1.69,0,0,1,1.22-.46,1.71,1.71,0,0,1,1.25.48,1.59,1.59,0,0,1,.48,1.16v8.34a7.26,7.26,0,0,1,2.52-2.12,7.37,7.37,0,0,1,3.53-.89A8.35,8.35,0,0,1,299,62.84ZM297.2,76.46a5.71,5.71,0,0,0,2.06-2.29,6.92,6.92,0,0,0,.74-3.23,6.84,6.84,0,0,0-.74-3.21,5.7,5.7,0,0,0-10.14,0,6.93,6.93,0,0,0-.74,3.23,7,7,0,0,0,.74,3.25,5.74,5.74,0,0,0,2.07,2.27,5.79,5.79,0,0,0,6,0Z"/>
    <path class="cls-1" transform="translate(-11.78 -43.18)"
          d="M307.25,59.27a1.38,1.38,0,0,1-.45-1.15v-.54a1.32,1.32,0,0,1,.49-1.17,2.67,2.67,0,0,1,1.49-.34,2.35,2.35,0,0,1,1.46.36,1.38,1.38,0,0,1,.45,1.15v.54a1.37,1.37,0,0,1-.47,1.17,2.58,2.58,0,0,1-1.48.34A2.41,2.41,0,0,1,307.25,59.27ZM310,79.49a1.75,1.75,0,0,1-1.25.47,1.66,1.66,0,0,1-1.2-.47,1.6,1.6,0,0,1-.49-1.17V63.52a1.6,1.6,0,0,1,.49-1.16,1.63,1.63,0,0,1,1.2-.48,1.71,1.71,0,0,1,1.25.48,1.59,1.59,0,0,1,.48,1.16v14.8A1.59,1.59,0,0,1,310,79.49Z"/>
    <path class="cls-1" transform="translate(-11.78 -43.18)"
          d="M331.34,78.32a1.44,1.44,0,0,1-.56,1.15,1.79,1.79,0,0,1-1.17.46,1.55,1.55,0,0,1-1.26-.55l-7.09-7.14-2.15,1.85v4.23a1.6,1.6,0,0,1-.49,1.17,1.68,1.68,0,0,1-1.2.47,1.75,1.75,0,0,1-1.25-.47,1.59,1.59,0,0,1-.48-1.17v-22a1.59,1.59,0,0,1,.48-1.16,1.71,1.71,0,0,1,1.25-.48,1.64,1.64,0,0,1,1.2.48,1.6,1.6,0,0,1,.49,1.16V70.19l8.81-7.69a2,2,0,0,1,1.26-.51,1.53,1.53,0,0,1,1.11.49,1.46,1.46,0,0,1,.51,1,1.57,1.57,0,0,1-.68,1.23L323.89,70l6.91,7.11A1.66,1.66,0,0,1,331.34,78.32Z"/>
    <path class="cls-1" transform="translate(-11.78 -43.18)"
          d="M265.89,68.79H259.4a1.66,1.66,0,0,0-1.15.42,1.34,1.34,0,0,0-.48,1.06,1.43,1.43,0,0,0,.48,1.11,1.63,1.63,0,0,0,1.15.43h8.4a1.81,1.81,0,0,0,1.19-.43,1.41,1.41,0,0,0,.54-1,8.48,8.48,0,0,0-1.26-4.45,8.78,8.78,0,0,0-15.2.26,10,10,0,0,0-1.24,5A9.31,9.31,0,0,0,253,75.9a8.35,8.35,0,0,0,3.42,3.24,10.84,10.84,0,0,0,5.13,1.17,9.39,9.39,0,0,0,3.52-.69A8.45,8.45,0,0,0,267.88,78a1.68,1.68,0,0,0,.71-1.3,1.28,1.28,0,0,0-.41-1,1.4,1.4,0,0,0-1-.41,2.07,2.07,0,0,0-1.05.31,7.22,7.22,0,0,1-1.9,1.23,7,7,0,0,1-2.81.48,6.26,6.26,0,0,1-4.26-1.51,5.74,5.74,0,0,1-1.94-3.65h0a.25.25,0,0,1,0-.08c0-.09,0-.17-.05-.25h0a9.18,9.18,0,0,1,.14-2.74h0l0-.09c0-.1.05-.19.07-.27a5.12,5.12,0,0,1,1.85-3,5.73,5.73,0,0,1,3.49-1.08,5.62,5.62,0,0,1,3.47,1.16,4.14,4.14,0,0,1,1.71,3h0Z"/>
    <path class="cls-1" transform="translate(-11.78 -43.18)"
          d="M345.87,68.67h-6.5a1.68,1.68,0,0,0-1.15.42,1.37,1.37,0,0,0-.47,1.06,1.46,1.46,0,0,0,.47,1.11,1.64,1.64,0,0,0,1.15.43h6.5l.11,0h1.8a1.76,1.76,0,0,0,1.19-.43,1.46,1.46,0,0,0,.54-1,8.63,8.63,0,0,0-1.26-4.44A8.86,8.86,0,0,0,345,62.65a8.72,8.72,0,0,0-12,3.37,9.91,9.91,0,0,0-1.24,5,9.27,9.27,0,0,0,1.2,4.71A8.25,8.25,0,0,0,336.43,79a10.9,10.9,0,0,0,5.13,1.16,9.58,9.58,0,0,0,3.52-.68,8.41,8.41,0,0,0,2.77-1.68,1.65,1.65,0,0,0,.72-1.29,1.32,1.32,0,0,0-.41-1,1.43,1.43,0,0,0-1-.41,2.07,2.07,0,0,0-1,.31,7.11,7.11,0,0,1-1.91,1.23,7,7,0,0,1-2.8.47,6.34,6.34,0,0,1-4.27-1.5A5.75,5.75,0,0,1,335.18,72v0s0,0,0-.08,0-.16,0-.25h0a9.44,9.44,0,0,1,.15-2.73h0l0-.1c0-.1,0-.18.07-.26a5,5,0,0,1,1.84-3,5.77,5.77,0,0,1,3.49-1.08,5.6,5.6,0,0,1,3.47,1.16,4.14,4.14,0,0,1,1.71,3Z"/>
    <rect class="cls-2" width="75.41" height="51.06" rx="3.81"/>
    <path class="cls-3" transform="translate(-11.78 -43.18)"
          d="M55.67,54.52H52.73a.88.88,0,0,1,0-1.75h2.94a.88.88,0,0,1,0,1.75Z"/>
    <path class="cls-3" transform="translate(-11.78 -43.18)"
          d="M44.2,54.52H37.41a.88.88,0,0,1,0-1.75H44.2a.88.88,0,0,1,0,1.75Z"/>
    <path class="cls-3" transform="translate(-11.78 -43.18)"
          d="M66.13,66.86,59.3,53.22a.87.87,0,0,0-1.56.78l1.2,2.4L44.76,61.45l-1.62-5.16a.88.88,0,1,0-1.67.53l1.72,5.46L32.73,72.68h0a.85.85,0,0,0-.27.63.87.87,0,0,0,.87.88H47.79a.89.89,0,0,0,.73-.42s.08-.06.11-.1L59.85,58.21l4.72,9.43a.87.87,0,0,0,.78.49.81.81,0,0,0,.39-.1A.87.87,0,0,0,66.13,66.86ZM47.44,70l-2.15-6.84,11.93-4.26L47.37,72.45H35.44l8.34-8.3,2,6.33a.88.88,0,0,0,.84.61.82.82,0,0,0,.26,0A.87.87,0,0,0,47.44,70Z"/>
    <path class="cls-3" transform="translate(-11.78 -43.18)"
          d="M43.61,78.34l0-.06a1.12,1.12,0,0,0,0-.36,1.35,1.35,0,0,0-1.35-1.35,1.32,1.32,0,0,0-1.05.47l0,.08-.12.21a8.64,8.64,0,1,1-5.49-12.4l.29.07h0a1.28,1.28,0,0,0,.34.07,1.35,1.35,0,0,0,.49-2.6h0l-.34-.09a11.06,11.06,0,0,0-2.93-.4,11.32,11.32,0,1,0,10,16.65l.13-.23Z"/>
    <path class="cls-3" transform="translate(-11.78 -43.18)" d="M62.94,71.34H61.57a.47.47,0,1,0,0,.94h1.37Z"/>
    <path class="cls-3" transform="translate(-11.78 -43.18)" d="M63,73.39H61.57a.47.47,0,1,0,0,.93H63Z"/>
    <path class="cls-3" transform="translate(-11.78 -43.18)"
          d="M65.62,61.91A11.33,11.33,0,1,0,75,79.61l.12-.21s.1-.11.13-.58a1.34,1.34,0,0,0-1.33-1.37,1,1,0,0,0-.77.2l-.15.14-.15.21a8.64,8.64,0,1,1,1.24-6.62H66.94a1.08,1.08,0,0,0-.73-.66H63.5V75h2.71a1.05,1.05,0,0,0,.73-.66h8.49l.1,0,.08,0a1.2,1.2,0,0,0,1.25-.71A1.43,1.43,0,0,0,77,73,11.25,11.25,0,0,0,65.62,61.91Z"/>
</svg>
